G04*
G04 #@! TF.GenerationSoftware,Altium Limited,Altium Designer,21.8.1 (53)*
G04*
G04 Layer_Physical_Order=4*
G04 Layer_Color=16711680*
%FSAX44Y44*%
%MOMM*%
G71*
G04*
G04 #@! TF.SameCoordinates,6FBE8801-07E3-48D7-8021-9236AF54F44E*
G04*
G04*
G04 #@! TF.FilePolarity,Positive*
G04*
G01*
G75*
%ADD10C,0.1500*%
%ADD11C,0.2500*%
%ADD102C,0.5000*%
%ADD108C,2.2000*%
G04:AMPARAMS|DCode=109|XSize=2.2mm|YSize=2.2mm|CornerRadius=0.11mm|HoleSize=0mm|Usage=FLASHONLY|Rotation=180.000|XOffset=0mm|YOffset=0mm|HoleType=Round|Shape=RoundedRectangle|*
%AMROUNDEDRECTD109*
21,1,2.2000,1.9800,0,0,180.0*
21,1,1.9800,2.2000,0,0,180.0*
1,1,0.2200,-0.9900,0.9900*
1,1,0.2200,0.9900,0.9900*
1,1,0.2200,0.9900,-0.9900*
1,1,0.2200,-0.9900,-0.9900*
%
%ADD109ROUNDEDRECTD109*%
G04:AMPARAMS|DCode=110|XSize=1.25mm|YSize=1.25mm|CornerRadius=0.0625mm|HoleSize=0mm|Usage=FLASHONLY|Rotation=270.000|XOffset=0mm|YOffset=0mm|HoleType=Round|Shape=RoundedRectangle|*
%AMROUNDEDRECTD110*
21,1,1.2500,1.1250,0,0,270.0*
21,1,1.1250,1.2500,0,0,270.0*
1,1,0.1250,-0.5625,-0.5625*
1,1,0.1250,-0.5625,0.5625*
1,1,0.1250,0.5625,0.5625*
1,1,0.1250,0.5625,-0.5625*
%
%ADD110ROUNDEDRECTD110*%
%ADD111C,1.2500*%
%ADD112C,1.6000*%
G04:AMPARAMS|DCode=113|XSize=1.6mm|YSize=1.6mm|CornerRadius=0.24mm|HoleSize=0mm|Usage=FLASHONLY|Rotation=180.000|XOffset=0mm|YOffset=0mm|HoleType=Round|Shape=RoundedRectangle|*
%AMROUNDEDRECTD113*
21,1,1.6000,1.1200,0,0,180.0*
21,1,1.1200,1.6000,0,0,180.0*
1,1,0.4800,-0.5600,0.5600*
1,1,0.4800,0.5600,0.5600*
1,1,0.4800,0.5600,-0.5600*
1,1,0.4800,-0.5600,-0.5600*
%
%ADD113ROUNDEDRECTD113*%
G04:AMPARAMS|DCode=114|XSize=1.6mm|YSize=1.6mm|CornerRadius=0.24mm|HoleSize=0mm|Usage=FLASHONLY|Rotation=90.000|XOffset=0mm|YOffset=0mm|HoleType=Round|Shape=RoundedRectangle|*
%AMROUNDEDRECTD114*
21,1,1.6000,1.1200,0,0,90.0*
21,1,1.1200,1.6000,0,0,90.0*
1,1,0.4800,0.5600,0.5600*
1,1,0.4800,0.5600,-0.5600*
1,1,0.4800,-0.5600,-0.5600*
1,1,0.4800,-0.5600,0.5600*
%
%ADD114ROUNDEDRECTD114*%
%ADD115C,1.3000*%
G04:AMPARAMS|DCode=116|XSize=1.3mm|YSize=1.3mm|CornerRadius=0.065mm|HoleSize=0mm|Usage=FLASHONLY|Rotation=0.000|XOffset=0mm|YOffset=0mm|HoleType=Round|Shape=RoundedRectangle|*
%AMROUNDEDRECTD116*
21,1,1.3000,1.1700,0,0,0.0*
21,1,1.1700,1.3000,0,0,0.0*
1,1,0.1300,0.5850,-0.5850*
1,1,0.1300,-0.5850,-0.5850*
1,1,0.1300,-0.5850,0.5850*
1,1,0.1300,0.5850,0.5850*
%
%ADD116ROUNDEDRECTD116*%
%ADD117C,0.6000*%
%ADD118C,0.7000*%
%ADD125R,1.6000X1.8500*%
%ADD126R,0.6000X1.7000*%
%ADD127R,1.6750X1.7000*%
G36*
X03235946Y03197500D02*
X03072250D01*
X03069750Y03200000D01*
Y03240500D01*
X03067266Y03242984D01*
X02710484D01*
X02707924Y03240424D01*
Y02459554D01*
X02563554D01*
Y03322946D01*
X03235946D01*
Y03197500D01*
D02*
G37*
G36*
Y02952500D02*
X03224691D01*
X03223842Y02953770D01*
X03224250Y02954755D01*
Y02956744D01*
X03223489Y02958582D01*
X03222082Y02959989D01*
X03220244Y02960750D01*
X03218255D01*
X03216418Y02959989D01*
X03215011Y02958582D01*
X03214250Y02956744D01*
Y02954755D01*
X03214658Y02953770D01*
X03213810Y02952500D01*
X03179495D01*
X03179495Y02960899D01*
X03179495Y02960899D01*
X03179495D01*
X03179495Y02966750D01*
X03179495Y02966750D01*
X03179900Y02966918D01*
X03181332Y02967511D01*
X03182739Y02968918D01*
X03183500Y02970755D01*
Y02972744D01*
X03182739Y02974582D01*
X03181332Y02975989D01*
X03179495Y02976750D01*
X03177505D01*
X03175668Y02975989D01*
X03174261Y02974582D01*
X03173500Y02972744D01*
Y02970755D01*
X03173977Y02969603D01*
X03172988Y02968673D01*
X03171595Y02969250D01*
X03169605D01*
X03167768Y02968489D01*
X03166361Y02967082D01*
X03166349Y02967054D01*
X03146938D01*
Y02978183D01*
X03151283Y02982528D01*
X03152255Y02983500D01*
X03153525Y02983500D01*
X03154244D01*
X03156082Y02984261D01*
X03157489Y02985668D01*
X03158250Y02987505D01*
Y02989495D01*
X03157489Y02991332D01*
X03156082Y02992739D01*
X03155778Y02992865D01*
Y02994135D01*
X03156082Y02994261D01*
X03157489Y02995668D01*
X03158250Y02997505D01*
Y02999495D01*
X03157489Y03001332D01*
X03156082Y03002739D01*
X03154244Y03003500D01*
X03152255D01*
X03150418Y03002739D01*
X03149011Y03001332D01*
X03148359Y02999758D01*
X03147464Y02999400D01*
X03146980Y02999341D01*
X03146082Y03000239D01*
X03144245Y03001000D01*
X03142255D01*
X03140418Y03000239D01*
X03139011Y02998832D01*
X03138999Y02998804D01*
X03117000D01*
X03115927Y02998590D01*
X03115017Y02997982D01*
X03104923Y02987888D01*
X03103672Y02988433D01*
X03102989Y02990082D01*
X03101582Y02991489D01*
X03099745Y02992250D01*
X03097755D01*
X03095918Y02991489D01*
X03094511Y02990082D01*
X03094500Y02990054D01*
X03090248D01*
X03089175Y02989840D01*
X03088265Y02989232D01*
X03059771Y02960738D01*
X03059742Y02960750D01*
X03057753D01*
X03055916Y02959989D01*
X03054509Y02958582D01*
X03053748Y02956745D01*
Y02954756D01*
X03054156Y02953770D01*
X03053307Y02952500D01*
X03030189D01*
X03029340Y02953770D01*
X03029748Y02954756D01*
Y02956745D01*
X03028987Y02958582D01*
X03027580Y02959989D01*
X03025742Y02960750D01*
X03023753D01*
X03021916Y02959989D01*
X03020509Y02958582D01*
X03019748Y02956745D01*
Y02954756D01*
X03020156Y02953770D01*
X03019308Y02952500D01*
X02943391D01*
X02942542Y02953770D01*
X02942950Y02954755D01*
Y02956744D01*
X02942189Y02958582D01*
X02940782Y02959989D01*
X02938945Y02960750D01*
X02936955D01*
X02935118Y02959989D01*
X02933711Y02958582D01*
X02932950Y02956744D01*
Y02954755D01*
X02933358Y02953770D01*
X02932509Y02952500D01*
X02898250D01*
X02862536Y02916786D01*
X02861832Y02917489D01*
X02859995Y02918250D01*
X02858005D01*
X02856168Y02917489D01*
X02854761Y02916082D01*
X02854000Y02914244D01*
Y02912255D01*
X02854012Y02912227D01*
X02830517Y02888733D01*
X02829910Y02887823D01*
X02829696Y02886750D01*
Y02847250D01*
X02829668Y02847239D01*
X02828261Y02845832D01*
X02827500Y02843994D01*
Y02842005D01*
X02828261Y02840168D01*
X02829668Y02838761D01*
X02831505Y02838000D01*
X02832500D01*
Y02745500D01*
X02830000Y02743000D01*
X02721000D01*
X02718500Y02745500D01*
Y03185000D01*
X02721000Y03187500D01*
X03235946D01*
Y02952500D01*
D02*
G37*
G36*
X02779750Y02737250D02*
Y02721750D01*
X02777250Y02719250D01*
X02741750D01*
X02739250Y02721750D01*
Y02737250D01*
X02741750Y02739750D01*
X02777250D01*
X02779750Y02737250D01*
D02*
G37*
G36*
X03225000Y02895250D02*
Y02684000D01*
X03222500Y02681500D01*
X03077750D01*
X03075250Y02684000D01*
Y02687456D01*
X03076520Y02688305D01*
X03077255Y02688000D01*
X03079245D01*
X03081082Y02688761D01*
X03082489Y02690168D01*
X03083250Y02692005D01*
Y02693995D01*
X03082489Y02695832D01*
X03081082Y02697239D01*
X03079245Y02698000D01*
X03077255D01*
X03076520Y02697695D01*
X03075250Y02698544D01*
Y02853750D01*
X03119250Y02897750D01*
X03222500D01*
X03225000Y02895250D01*
D02*
G37*
G36*
X03030500Y02895250D02*
Y02684000D01*
X03028000Y02681500D01*
X02883250D01*
X02880750Y02684000D01*
Y02687456D01*
X02882020Y02688305D01*
X02882755Y02688000D01*
X02884745D01*
X02886582Y02688761D01*
X02887989Y02690168D01*
X02888750Y02692005D01*
Y02693994D01*
X02887989Y02695832D01*
X02886582Y02697239D01*
X02884745Y02698000D01*
X02882755D01*
X02882020Y02697695D01*
X02880750Y02698544D01*
Y02853750D01*
X02924750Y02897750D01*
X03028000D01*
X03030500Y02895250D01*
D02*
G37*
G36*
X03233500Y02673250D02*
Y02598000D01*
X03231000Y02595500D01*
X03168250D01*
X03165750Y02598000D01*
Y02673250D01*
X03168250Y02675750D01*
X03231000D01*
X03233500Y02673250D01*
D02*
G37*
G36*
X03039000D02*
Y02598000D01*
X03036500Y02595500D01*
X02973750D01*
X02971250Y02598000D01*
Y02673250D01*
X02973750Y02675750D01*
X03036500D01*
X03039000Y02673250D01*
D02*
G37*
%LPC*%
G36*
X03179750Y03287358D02*
X03177604Y03286931D01*
X03175785Y03285715D01*
X03174569Y03283896D01*
X03174142Y03281750D01*
X03174569Y03279604D01*
X03175785Y03277785D01*
X03177604Y03276569D01*
X03179750Y03276142D01*
X03181896Y03276569D01*
X03183715Y03277785D01*
X03184931Y03279604D01*
X03185358Y03281750D01*
X03184931Y03283896D01*
X03183715Y03285715D01*
X03181896Y03286931D01*
X03179750Y03287358D01*
D02*
G37*
G36*
X03079750D02*
X03077604Y03286931D01*
X03075785Y03285715D01*
X03074569Y03283896D01*
X03074142Y03281750D01*
X03074569Y03279604D01*
X03075785Y03277785D01*
X03077604Y03276569D01*
X03079750Y03276142D01*
X03081896Y03276569D01*
X03083715Y03277785D01*
X03084931Y03279604D01*
X03085358Y03281750D01*
X03084931Y03283896D01*
X03083715Y03285715D01*
X03081896Y03286931D01*
X03079750Y03287358D01*
D02*
G37*
G36*
X02979750D02*
X02977604Y03286931D01*
X02975785Y03285715D01*
X02974569Y03283896D01*
X02974142Y03281750D01*
X02974569Y03279604D01*
X02975785Y03277785D01*
X02977604Y03276569D01*
X02979750Y03276142D01*
X02981896Y03276569D01*
X02983715Y03277785D01*
X02984931Y03279604D01*
X02985358Y03281750D01*
X02984931Y03283896D01*
X02983715Y03285715D01*
X02981896Y03286931D01*
X02979750Y03287358D01*
D02*
G37*
G36*
X02879750D02*
X02877604Y03286931D01*
X02875785Y03285715D01*
X02874569Y03283896D01*
X02874142Y03281750D01*
X02874569Y03279604D01*
X02875785Y03277785D01*
X02877604Y03276569D01*
X02879750Y03276142D01*
X02881896Y03276569D01*
X02883715Y03277785D01*
X02884931Y03279604D01*
X02885358Y03281750D01*
X02884931Y03283896D01*
X02883715Y03285715D01*
X02881896Y03286931D01*
X02879750Y03287358D01*
D02*
G37*
G36*
X02779750D02*
X02777604Y03286931D01*
X02775785Y03285715D01*
X02774569Y03283896D01*
X02774142Y03281750D01*
X02774569Y03279604D01*
X02775785Y03277785D01*
X02777604Y03276569D01*
X02779750Y03276142D01*
X02781896Y03276569D01*
X02783715Y03277785D01*
X02784931Y03279604D01*
X02785358Y03281750D01*
X02784931Y03283896D01*
X02783715Y03285715D01*
X02781896Y03286931D01*
X02779750Y03287358D01*
D02*
G37*
G36*
X02679750D02*
X02677604Y03286931D01*
X02675785Y03285715D01*
X02674569Y03283896D01*
X02674142Y03281750D01*
X02674569Y03279604D01*
X02675785Y03277785D01*
X02677604Y03276569D01*
X02679750Y03276142D01*
X02681896Y03276569D01*
X02683715Y03277785D01*
X02684931Y03279604D01*
X02685358Y03281750D01*
X02684931Y03283896D01*
X02683715Y03285715D01*
X02681896Y03286931D01*
X02679750Y03287358D01*
D02*
G37*
G36*
X02579750D02*
X02577604Y03286931D01*
X02575785Y03285715D01*
X02574569Y03283896D01*
X02574142Y03281750D01*
X02574569Y03279604D01*
X02575785Y03277785D01*
X02577604Y03276569D01*
X02579750Y03276142D01*
X02581896Y03276569D01*
X02583715Y03277785D01*
X02584931Y03279604D01*
X02585358Y03281750D01*
X02584931Y03283896D01*
X02583715Y03285715D01*
X02581896Y03286931D01*
X02579750Y03287358D01*
D02*
G37*
G36*
X03194398Y03236750D02*
X03165902D01*
X03165167Y03236446D01*
X03164604Y03235883D01*
X03164300Y03235148D01*
Y03234750D01*
Y03206750D01*
Y03206352D01*
X03164604Y03205617D01*
X03165167Y03205054D01*
X03165902Y03204750D01*
X03194398D01*
X03195133Y03205054D01*
X03195695Y03205617D01*
X03196000Y03206352D01*
Y03206750D01*
Y03234750D01*
Y03235148D01*
X03195695Y03235883D01*
X03195133Y03236446D01*
X03194398Y03236750D01*
D02*
G37*
G36*
X02684398D02*
X02655902D01*
X02655167Y03236446D01*
X02654604Y03235883D01*
X02654300Y03235148D01*
Y03234750D01*
Y03206750D01*
Y03206352D01*
X02654604Y03205617D01*
X02655167Y03205054D01*
X02655902Y03204750D01*
X02684398D01*
X02685133Y03205054D01*
X02685695Y03205617D01*
X02686000Y03206352D01*
Y03206750D01*
Y03234750D01*
Y03235148D01*
X02685695Y03235883D01*
X02685133Y03236446D01*
X02684398Y03236750D01*
D02*
G37*
G36*
X02679750Y03187358D02*
X02677604Y03186931D01*
X02675785Y03185715D01*
X02674569Y03183896D01*
X02674142Y03181750D01*
X02674569Y03179604D01*
X02675785Y03177785D01*
X02677604Y03176569D01*
X02679750Y03176142D01*
X02681896Y03176569D01*
X02683715Y03177785D01*
X02684931Y03179604D01*
X02685358Y03181750D01*
X02684931Y03183896D01*
X02683715Y03185715D01*
X02681896Y03186931D01*
X02679750Y03187358D01*
D02*
G37*
G36*
X02579750D02*
X02577604Y03186931D01*
X02575785Y03185715D01*
X02574569Y03183896D01*
X02574142Y03181750D01*
X02574569Y03179604D01*
X02575785Y03177785D01*
X02577604Y03176569D01*
X02579750Y03176142D01*
X02581896Y03176569D01*
X02583715Y03177785D01*
X02584931Y03179604D01*
X02585358Y03181750D01*
X02584931Y03183896D01*
X02583715Y03185715D01*
X02581896Y03186931D01*
X02579750Y03187358D01*
D02*
G37*
G36*
X02629750Y03137358D02*
X02627604Y03136931D01*
X02625785Y03135715D01*
X02624569Y03133896D01*
X02624142Y03131750D01*
X02624569Y03129604D01*
X02625785Y03127785D01*
X02627604Y03126569D01*
X02629750Y03126142D01*
X02631896Y03126569D01*
X02633715Y03127785D01*
X02634931Y03129604D01*
X02635358Y03131750D01*
X02634931Y03133896D01*
X02633715Y03135715D01*
X02631896Y03136931D01*
X02629750Y03137358D01*
D02*
G37*
G36*
X02679750Y03087358D02*
X02677604Y03086931D01*
X02675785Y03085715D01*
X02674569Y03083896D01*
X02674142Y03081750D01*
X02674569Y03079604D01*
X02675785Y03077785D01*
X02677604Y03076569D01*
X02679750Y03076142D01*
X02681896Y03076569D01*
X02683715Y03077785D01*
X02684931Y03079604D01*
X02685358Y03081750D01*
X02684931Y03083896D01*
X02683715Y03085715D01*
X02681896Y03086931D01*
X02679750Y03087358D01*
D02*
G37*
G36*
X02579750D02*
X02577604Y03086931D01*
X02575785Y03085715D01*
X02574569Y03083896D01*
X02574142Y03081750D01*
X02574569Y03079604D01*
X02575785Y03077785D01*
X02577604Y03076569D01*
X02579750Y03076142D01*
X02581896Y03076569D01*
X02583715Y03077785D01*
X02584931Y03079604D01*
X02585358Y03081750D01*
X02584931Y03083896D01*
X02583715Y03085715D01*
X02581896Y03086931D01*
X02579750Y03087358D01*
D02*
G37*
G36*
X02629750Y03037358D02*
X02627604Y03036931D01*
X02625785Y03035715D01*
X02624569Y03033896D01*
X02624142Y03031750D01*
X02624569Y03029604D01*
X02625785Y03027785D01*
X02627604Y03026569D01*
X02629750Y03026142D01*
X02631896Y03026569D01*
X02633715Y03027785D01*
X02634931Y03029604D01*
X02635358Y03031750D01*
X02634931Y03033896D01*
X02633715Y03035715D01*
X02631896Y03036931D01*
X02629750Y03037358D01*
D02*
G37*
G36*
X02679750Y02987358D02*
X02677604Y02986931D01*
X02675785Y02985715D01*
X02674569Y02983896D01*
X02674142Y02981750D01*
X02674569Y02979604D01*
X02675785Y02977785D01*
X02677604Y02976569D01*
X02679750Y02976142D01*
X02681896Y02976569D01*
X02683715Y02977785D01*
X02684931Y02979604D01*
X02685358Y02981750D01*
X02684931Y02983896D01*
X02683715Y02985715D01*
X02681896Y02986931D01*
X02679750Y02987358D01*
D02*
G37*
G36*
X02579750D02*
X02577604Y02986931D01*
X02575785Y02985715D01*
X02574569Y02983896D01*
X02574142Y02981750D01*
X02574569Y02979604D01*
X02575785Y02977785D01*
X02577604Y02976569D01*
X02579750Y02976142D01*
X02581896Y02976569D01*
X02583715Y02977785D01*
X02584931Y02979604D01*
X02585358Y02981750D01*
X02584931Y02983896D01*
X02583715Y02985715D01*
X02581896Y02986931D01*
X02579750Y02987358D01*
D02*
G37*
G36*
X02629750Y02937358D02*
X02627604Y02936931D01*
X02625785Y02935715D01*
X02624569Y02933896D01*
X02624142Y02931750D01*
X02624569Y02929604D01*
X02625785Y02927785D01*
X02627604Y02926569D01*
X02629750Y02926142D01*
X02631896Y02926569D01*
X02633715Y02927785D01*
X02634931Y02929604D01*
X02635358Y02931750D01*
X02634931Y02933896D01*
X02633715Y02935715D01*
X02631896Y02936931D01*
X02629750Y02937358D01*
D02*
G37*
G36*
X02679750Y02887358D02*
X02677604Y02886931D01*
X02675785Y02885715D01*
X02674569Y02883896D01*
X02674142Y02881750D01*
X02674569Y02879604D01*
X02675785Y02877785D01*
X02677604Y02876569D01*
X02679750Y02876142D01*
X02681896Y02876569D01*
X02683715Y02877785D01*
X02684931Y02879604D01*
X02685358Y02881750D01*
X02684931Y02883896D01*
X02683715Y02885715D01*
X02681896Y02886931D01*
X02679750Y02887358D01*
D02*
G37*
G36*
X02579750D02*
X02577604Y02886931D01*
X02575785Y02885715D01*
X02574569Y02883896D01*
X02574142Y02881750D01*
X02574569Y02879604D01*
X02575785Y02877785D01*
X02577604Y02876569D01*
X02579750Y02876142D01*
X02581896Y02876569D01*
X02583715Y02877785D01*
X02584931Y02879604D01*
X02585358Y02881750D01*
X02584931Y02883896D01*
X02583715Y02885715D01*
X02581896Y02886931D01*
X02579750Y02887358D01*
D02*
G37*
G36*
X02629750Y02837358D02*
X02627604Y02836931D01*
X02625785Y02835715D01*
X02624569Y02833896D01*
X02624142Y02831750D01*
X02624569Y02829604D01*
X02625785Y02827785D01*
X02627604Y02826569D01*
X02629750Y02826142D01*
X02631896Y02826569D01*
X02633715Y02827785D01*
X02634931Y02829604D01*
X02635358Y02831750D01*
X02634931Y02833896D01*
X02633715Y02835715D01*
X02631896Y02836931D01*
X02629750Y02837358D01*
D02*
G37*
G36*
X02679750Y02787358D02*
X02677604Y02786931D01*
X02675785Y02785715D01*
X02674569Y02783896D01*
X02674142Y02781750D01*
X02674569Y02779604D01*
X02675785Y02777785D01*
X02677604Y02776569D01*
X02679750Y02776142D01*
X02681896Y02776569D01*
X02683715Y02777785D01*
X02684931Y02779604D01*
X02685358Y02781750D01*
X02684931Y02783896D01*
X02683715Y02785715D01*
X02681896Y02786931D01*
X02679750Y02787358D01*
D02*
G37*
G36*
X02579750D02*
X02577604Y02786931D01*
X02575785Y02785715D01*
X02574569Y02783896D01*
X02574142Y02781750D01*
X02574569Y02779604D01*
X02575785Y02777785D01*
X02577604Y02776569D01*
X02579750Y02776142D01*
X02581896Y02776569D01*
X02583715Y02777785D01*
X02584931Y02779604D01*
X02585358Y02781750D01*
X02584931Y02783896D01*
X02583715Y02785715D01*
X02581896Y02786931D01*
X02579750Y02787358D01*
D02*
G37*
G36*
X02629750Y02737358D02*
X02627604Y02736931D01*
X02625785Y02735715D01*
X02624569Y02733896D01*
X02624142Y02731750D01*
X02624569Y02729604D01*
X02625785Y02727785D01*
X02627604Y02726569D01*
X02629750Y02726142D01*
X02631896Y02726569D01*
X02633715Y02727785D01*
X02634931Y02729604D01*
X02635358Y02731750D01*
X02634931Y02733896D01*
X02633715Y02735715D01*
X02631896Y02736931D01*
X02629750Y02737358D01*
D02*
G37*
G36*
X02679750Y02687358D02*
X02677604Y02686931D01*
X02675785Y02685715D01*
X02674569Y02683896D01*
X02674142Y02681750D01*
X02674569Y02679604D01*
X02675785Y02677785D01*
X02677604Y02676569D01*
X02679750Y02676142D01*
X02681896Y02676569D01*
X02683715Y02677785D01*
X02684931Y02679604D01*
X02685358Y02681750D01*
X02684931Y02683896D01*
X02683715Y02685715D01*
X02681896Y02686931D01*
X02679750Y02687358D01*
D02*
G37*
G36*
X02579750D02*
X02577604Y02686931D01*
X02575785Y02685715D01*
X02574569Y02683896D01*
X02574142Y02681750D01*
X02574569Y02679604D01*
X02575785Y02677785D01*
X02577604Y02676569D01*
X02579750Y02676142D01*
X02581896Y02676569D01*
X02583715Y02677785D01*
X02584931Y02679604D01*
X02585358Y02681750D01*
X02584931Y02683896D01*
X02583715Y02685715D01*
X02581896Y02686931D01*
X02579750Y02687358D01*
D02*
G37*
G36*
X02629750Y02637358D02*
X02627604Y02636931D01*
X02625785Y02635715D01*
X02624569Y02633896D01*
X02624142Y02631750D01*
X02624569Y02629604D01*
X02625785Y02627785D01*
X02627604Y02626569D01*
X02629750Y02626142D01*
X02631896Y02626569D01*
X02633715Y02627785D01*
X02634931Y02629604D01*
X02635358Y02631750D01*
X02634931Y02633896D01*
X02633715Y02635715D01*
X02631896Y02636931D01*
X02629750Y02637358D01*
D02*
G37*
G36*
X02679750Y02587358D02*
X02677604Y02586931D01*
X02675785Y02585715D01*
X02674569Y02583896D01*
X02674142Y02581750D01*
X02674569Y02579604D01*
X02675785Y02577785D01*
X02677604Y02576569D01*
X02679750Y02576142D01*
X02681896Y02576569D01*
X02683715Y02577785D01*
X02684931Y02579604D01*
X02685358Y02581750D01*
X02684931Y02583896D01*
X02683715Y02585715D01*
X02681896Y02586931D01*
X02679750Y02587358D01*
D02*
G37*
G36*
X02579750D02*
X02577604Y02586931D01*
X02575785Y02585715D01*
X02574569Y02583896D01*
X02574142Y02581750D01*
X02574569Y02579604D01*
X02575785Y02577785D01*
X02577604Y02576569D01*
X02579750Y02576142D01*
X02581896Y02576569D01*
X02583715Y02577785D01*
X02584931Y02579604D01*
X02585358Y02581750D01*
X02584931Y02583896D01*
X02583715Y02585715D01*
X02581896Y02586931D01*
X02579750Y02587358D01*
D02*
G37*
G36*
X02633598Y02577750D02*
X02605102D01*
X02604367Y02577445D01*
X02603805Y02576883D01*
X02603500Y02576148D01*
Y02575750D01*
Y02547750D01*
Y02547352D01*
X02603805Y02546617D01*
X02604367Y02546054D01*
X02605102Y02545750D01*
X02633598D01*
X02634333Y02546054D01*
X02634896Y02546617D01*
X02635200Y02547352D01*
Y02547750D01*
Y02575750D01*
Y02576148D01*
X02634896Y02576883D01*
X02634333Y02577445D01*
X02633598Y02577750D01*
D02*
G37*
G36*
X02629750Y02537358D02*
X02627604Y02536931D01*
X02625785Y02535715D01*
X02624569Y02533896D01*
X02624142Y02531750D01*
X02624569Y02529604D01*
X02625785Y02527785D01*
X02627604Y02526569D01*
X02629750Y02526142D01*
X02631896Y02526569D01*
X02633715Y02527785D01*
X02634931Y02529604D01*
X02635358Y02531750D01*
X02634931Y02533896D01*
X02633715Y02535715D01*
X02631896Y02536931D01*
X02629750Y02537358D01*
D02*
G37*
G36*
X02679750Y02487358D02*
X02677604Y02486931D01*
X02675785Y02485715D01*
X02674569Y02483896D01*
X02674142Y02481750D01*
X02674569Y02479604D01*
X02675785Y02477785D01*
X02677604Y02476569D01*
X02679750Y02476142D01*
X02681896Y02476569D01*
X02683715Y02477785D01*
X02684931Y02479604D01*
X02685358Y02481750D01*
X02684931Y02483896D01*
X02683715Y02485715D01*
X02681896Y02486931D01*
X02679750Y02487358D01*
D02*
G37*
G36*
X02579750D02*
X02577604Y02486931D01*
X02575785Y02485715D01*
X02574569Y02483896D01*
X02574142Y02481750D01*
X02574569Y02479604D01*
X02575785Y02477785D01*
X02577604Y02476569D01*
X02579750Y02476142D01*
X02581896Y02476569D01*
X02583715Y02477785D01*
X02584931Y02479604D01*
X02585358Y02481750D01*
X02584931Y02483896D01*
X02583715Y02485715D01*
X02581896Y02486931D01*
X02579750Y02487358D01*
D02*
G37*
G36*
X02913569Y03183350D02*
X02911331D01*
X02909169Y03182771D01*
X02907231Y03181652D01*
X02905648Y03180069D01*
X02904529Y03178131D01*
X02903950Y03175969D01*
Y03173731D01*
X02904529Y03171569D01*
X02905648Y03169631D01*
X02907231Y03168048D01*
X02909169Y03166929D01*
X02911331Y03166350D01*
X02913569D01*
X02915731Y03166929D01*
X02917669Y03168048D01*
X02919252Y03169631D01*
X02920371Y03171569D01*
X02920950Y03173731D01*
Y03175969D01*
X02920371Y03178131D01*
X02919252Y03180069D01*
X02917669Y03181652D01*
X02915731Y03182771D01*
X02913569Y03183350D01*
D02*
G37*
G36*
X02888169D02*
X02885931D01*
X02883769Y03182771D01*
X02881831Y03181652D01*
X02880248Y03180069D01*
X02879129Y03178131D01*
X02878550Y03175969D01*
Y03173731D01*
X02879129Y03171569D01*
X02880248Y03169631D01*
X02881831Y03168048D01*
X02883769Y03166929D01*
X02885931Y03166350D01*
X02888169D01*
X02890331Y03166929D01*
X02892269Y03168048D01*
X02893852Y03169631D01*
X02894971Y03171569D01*
X02895550Y03173731D01*
Y03175969D01*
X02894971Y03178131D01*
X02893852Y03180069D01*
X02892269Y03181652D01*
X02890331Y03182771D01*
X02888169Y03183350D01*
D02*
G37*
G36*
X03049245Y03152750D02*
X03047256D01*
X03045418Y03151989D01*
X03044011Y03150582D01*
X03043250Y03148745D01*
Y03146755D01*
X03044011Y03144918D01*
X03045418Y03143511D01*
X03047256Y03142750D01*
X03049245D01*
X03051082Y03143511D01*
X03052489Y03144918D01*
X03053250Y03146755D01*
Y03148745D01*
X03052489Y03150582D01*
X03051082Y03151989D01*
X03049245Y03152750D01*
D02*
G37*
G36*
X03210916Y03161750D02*
X03208283D01*
X03205740Y03161068D01*
X03203460Y03159752D01*
X03201598Y03157890D01*
X03200281Y03155610D01*
X03199600Y03153066D01*
Y03150433D01*
X03200281Y03147890D01*
X03201598Y03145610D01*
X03203460Y03143748D01*
X03205740Y03142432D01*
X03208283Y03141750D01*
X03210916D01*
X03213460Y03142432D01*
X03215740Y03143748D01*
X03217602Y03145610D01*
X03218918Y03147890D01*
X03219600Y03150433D01*
Y03153066D01*
X03218918Y03155610D01*
X03217602Y03157890D01*
X03215740Y03159752D01*
X03213460Y03161068D01*
X03210916Y03161750D01*
D02*
G37*
G36*
X03160117D02*
X03157484D01*
X03154940Y03161068D01*
X03152660Y03159752D01*
X03150798Y03157890D01*
X03149482Y03155610D01*
X03148800Y03153066D01*
Y03150433D01*
X03149482Y03147890D01*
X03150798Y03145610D01*
X03152660Y03143748D01*
X03154940Y03142432D01*
X03157484Y03141750D01*
X03160117D01*
X03162660Y03142432D01*
X03164940Y03143748D01*
X03166802Y03145610D01*
X03168119Y03147890D01*
X03168800Y03150433D01*
Y03153066D01*
X03168119Y03155610D01*
X03166802Y03157890D01*
X03164940Y03159752D01*
X03162660Y03161068D01*
X03160117Y03161750D01*
D02*
G37*
G36*
X03139000Y03161836D02*
X03127800D01*
X03126083Y03161495D01*
X03124628Y03160522D01*
X03123655Y03159067D01*
X03123314Y03157350D01*
Y03146150D01*
X03123655Y03144433D01*
X03124628Y03142978D01*
X03126083Y03142005D01*
X03127800Y03141664D01*
X03139000D01*
X03140717Y03142005D01*
X03142172Y03142978D01*
X03143145Y03144433D01*
X03143486Y03146150D01*
Y03157350D01*
X03143145Y03159067D01*
X03142172Y03160522D01*
X03140717Y03161495D01*
X03139000Y03161836D01*
D02*
G37*
G36*
X03228995Y03142250D02*
X03227005D01*
X03225168Y03141489D01*
X03223761Y03140082D01*
X03223000Y03138245D01*
Y03136255D01*
X03223761Y03134418D01*
X03225168Y03133011D01*
X03227005Y03132250D01*
X03228995D01*
X03230832Y03133011D01*
X03232239Y03134418D01*
X03233000Y03136255D01*
Y03138245D01*
X03232239Y03140082D01*
X03230832Y03141489D01*
X03228995Y03142250D01*
D02*
G37*
G36*
X03087745Y03137500D02*
X03085756D01*
X03083918Y03136739D01*
X03082511Y03135332D01*
X03081750Y03133495D01*
Y03131505D01*
X03082158Y03130520D01*
X03081310Y03129250D01*
X03081255D01*
X03079418Y03128489D01*
X03078011Y03127082D01*
X03077250Y03125244D01*
Y03123255D01*
X03078011Y03121418D01*
X03079418Y03120011D01*
X03081255Y03119250D01*
X03083245D01*
X03085082Y03120011D01*
X03086489Y03121418D01*
X03087250Y03123255D01*
Y03125244D01*
X03086842Y03126230D01*
X03087690Y03127500D01*
X03087745D01*
X03089582Y03128261D01*
X03090989Y03129668D01*
X03091750Y03131505D01*
Y03133495D01*
X03090989Y03135332D01*
X03089582Y03136739D01*
X03087745Y03137500D01*
D02*
G37*
G36*
X02913445Y03131500D02*
X02911455D01*
X02909618Y03130739D01*
X02908211Y03129332D01*
X02907450Y03127495D01*
Y03125505D01*
X02908211Y03123668D01*
X02909618Y03122261D01*
X02910612Y03121849D01*
X02925956Y03106506D01*
X02927444Y03105511D01*
X02929200Y03105162D01*
X03010011D01*
X03011005Y03104750D01*
X03012995D01*
X03014832Y03105511D01*
X03016239Y03106918D01*
X03017000Y03108755D01*
Y03110745D01*
X03016239Y03112582D01*
X03014832Y03113989D01*
X03012995Y03114750D01*
X03011005D01*
X03010011Y03114338D01*
X02931100D01*
X02917101Y03128338D01*
X02916689Y03129332D01*
X02915282Y03130739D01*
X02913445Y03131500D01*
D02*
G37*
G36*
X02788495Y03114750D02*
X02786505D01*
X02784668Y03113989D01*
X02783261Y03112582D01*
X02782500Y03110745D01*
Y03108755D01*
X02783261Y03106918D01*
X02784668Y03105511D01*
X02786505Y03104750D01*
X02788495D01*
X02789489Y03105162D01*
X02851850D01*
X02858099Y03098912D01*
X02858511Y03097918D01*
X02859918Y03096511D01*
X02861755Y03095750D01*
X02863745D01*
X02865582Y03096511D01*
X02866989Y03097918D01*
X02867750Y03099755D01*
Y03101744D01*
X02866989Y03103582D01*
X02865582Y03104989D01*
X02864588Y03105401D01*
X02856994Y03112994D01*
X02855506Y03113989D01*
X02853750Y03114338D01*
X02789489D01*
X02788495Y03114750D01*
D02*
G37*
G36*
X02913569Y03107150D02*
X02911331D01*
X02909169Y03106571D01*
X02907231Y03105452D01*
X02905648Y03103869D01*
X02904529Y03101931D01*
X02903950Y03099769D01*
Y03097531D01*
X02904529Y03095369D01*
X02905648Y03093431D01*
X02907231Y03091848D01*
X02909169Y03090729D01*
X02911331Y03090150D01*
X02913569D01*
X02915731Y03090729D01*
X02917669Y03091848D01*
X02919252Y03093431D01*
X02920371Y03095369D01*
X02920950Y03097531D01*
Y03099769D01*
X02920371Y03101931D01*
X02919252Y03103869D01*
X02917669Y03105452D01*
X02915731Y03106571D01*
X02913569Y03107150D01*
D02*
G37*
G36*
X02892900Y03107202D02*
X02881200D01*
X02880166Y03106996D01*
X02879290Y03106411D01*
X02878704Y03105534D01*
X02878498Y03104500D01*
Y03092800D01*
X02878704Y03091766D01*
X02879290Y03090889D01*
X02880166Y03090304D01*
X02881200Y03090098D01*
X02892900D01*
X02893934Y03090304D01*
X02894810Y03090889D01*
X02895396Y03091766D01*
X02895602Y03092800D01*
Y03104500D01*
X02895396Y03105534D01*
X02894810Y03106411D01*
X02893934Y03106996D01*
X02892900Y03107202D01*
D02*
G37*
G36*
X03196995Y03096250D02*
X03195005D01*
X03193168Y03095489D01*
X03191761Y03094082D01*
X03191000Y03092245D01*
Y03090255D01*
X03191761Y03088418D01*
X03193168Y03087011D01*
X03195005Y03086250D01*
X03196995D01*
X03198832Y03087011D01*
X03200239Y03088418D01*
X03201000Y03090255D01*
Y03092245D01*
X03200239Y03094082D01*
X03198832Y03095489D01*
X03196995Y03096250D01*
D02*
G37*
G36*
X03224100Y03100236D02*
X03212900D01*
X03211183Y03099895D01*
X03209728Y03098922D01*
X03208755Y03097467D01*
X03208414Y03095750D01*
Y03084550D01*
X03208755Y03082833D01*
X03209728Y03081378D01*
X03211183Y03080405D01*
X03212900Y03080064D01*
X03224100D01*
X03225817Y03080405D01*
X03227272Y03081378D01*
X03228245Y03082833D01*
X03228586Y03084550D01*
Y03095750D01*
X03228245Y03097467D01*
X03227272Y03098922D01*
X03225817Y03099895D01*
X03224100Y03100236D01*
D02*
G37*
G36*
X02950495Y03074750D02*
X02948505D01*
X02946668Y03073989D01*
X02945261Y03072582D01*
X02944500Y03070745D01*
Y03068755D01*
X02945261Y03066918D01*
X02946668Y03065511D01*
X02948505Y03064750D01*
X02950495D01*
X02952332Y03065511D01*
X02953739Y03066918D01*
X02954500Y03068755D01*
Y03070745D01*
X02953739Y03072582D01*
X02952332Y03073989D01*
X02950495Y03074750D01*
D02*
G37*
G36*
X02934495D02*
X02932505D01*
X02930668Y03073989D01*
X02929261Y03072582D01*
X02928500Y03070745D01*
Y03068755D01*
X02929261Y03066918D01*
X02930668Y03065511D01*
X02932505Y03064750D01*
X02934495D01*
X02936332Y03065511D01*
X02937739Y03066918D01*
X02938500Y03068755D01*
Y03070745D01*
X02937739Y03072582D01*
X02936332Y03073989D01*
X02934495Y03074750D01*
D02*
G37*
G36*
X02780495D02*
X02778505D01*
X02776668Y03073989D01*
X02775261Y03072582D01*
X02774500Y03070745D01*
Y03068755D01*
X02775261Y03066918D01*
X02776668Y03065511D01*
X02778505Y03064750D01*
X02780495D01*
X02782332Y03065511D01*
X02783739Y03066918D01*
X02784500Y03068755D01*
Y03070745D01*
X02783739Y03072582D01*
X02782332Y03073989D01*
X02780495Y03074750D01*
D02*
G37*
G36*
X02748495D02*
X02746505D01*
X02744668Y03073989D01*
X02743261Y03072582D01*
X02742500Y03070745D01*
Y03068755D01*
X02743261Y03066918D01*
X02744668Y03065511D01*
X02746505Y03064750D01*
X02748495D01*
X02750332Y03065511D01*
X02751739Y03066918D01*
X02752500Y03068755D01*
Y03070745D01*
X02751739Y03072582D01*
X02750332Y03073989D01*
X02748495Y03074750D01*
D02*
G37*
G36*
X03219817D02*
X03217184D01*
X03214640Y03074069D01*
X03212360Y03072752D01*
X03210498Y03070890D01*
X03209182Y03068610D01*
X03208500Y03066067D01*
Y03063434D01*
X03209182Y03060890D01*
X03210498Y03058610D01*
X03212360Y03056748D01*
X03214640Y03055432D01*
X03217184Y03054750D01*
X03219817D01*
X03222360Y03055432D01*
X03224640Y03056748D01*
X03226502Y03058610D01*
X03227819Y03060890D01*
X03228500Y03063434D01*
Y03066067D01*
X03227819Y03068610D01*
X03226502Y03070890D01*
X03224640Y03072752D01*
X03222360Y03074069D01*
X03219817Y03074750D01*
D02*
G37*
G36*
X03104244Y03060250D02*
X03102255D01*
X03100418Y03059489D01*
X03099011Y03058082D01*
X03098999Y03058054D01*
X03066250D01*
X03065177Y03057840D01*
X03064267Y03057233D01*
X03022089Y03015054D01*
X02870301D01*
X02864372Y03020983D01*
X02863462Y03021590D01*
X02862389Y03021804D01*
X02812600D01*
X02812589Y03021832D01*
X02811182Y03023239D01*
X02809344Y03024000D01*
X02807355D01*
X02805518Y03023239D01*
X02804111Y03021832D01*
X02803350Y03019995D01*
Y03018005D01*
X02804111Y03016168D01*
X02805518Y03014761D01*
X02807355Y03014000D01*
X02809344D01*
X02811182Y03014761D01*
X02812589Y03016168D01*
X02812600Y03016196D01*
X02822572D01*
X02823058Y03015023D01*
X02819167Y03011133D01*
X02818560Y03010223D01*
X02818346Y03009150D01*
Y02998751D01*
X02818318Y02998739D01*
X02816911Y02997332D01*
X02816150Y02995494D01*
Y02993505D01*
X02816432Y02992824D01*
X02815584Y02991554D01*
X02780673D01*
X02780495Y02992750D01*
X02782332Y02993511D01*
X02783739Y02994918D01*
X02784500Y02996755D01*
Y02998745D01*
X02783739Y03000582D01*
X02782332Y03001989D01*
X02780495Y03002750D01*
X02778505D01*
X02776668Y03001989D01*
X02775261Y03000582D01*
X02774500Y02998745D01*
Y02996755D01*
X02775261Y02994918D01*
X02776668Y02993511D01*
X02778505Y02992750D01*
X02778327Y02991554D01*
X02773661D01*
X02768488Y02996727D01*
X02768500Y02996755D01*
Y02998745D01*
X02767739Y03000582D01*
X02766332Y03001989D01*
X02764495Y03002750D01*
X02762505D01*
X02760668Y03001989D01*
X02759261Y03000582D01*
X02758500Y02998745D01*
Y02996755D01*
X02759261Y02994918D01*
X02760668Y02993511D01*
X02762505Y02992750D01*
X02764495D01*
X02764523Y02992762D01*
X02770517Y02986767D01*
X02771427Y02986160D01*
X02772500Y02985946D01*
X02852750D01*
X02853823Y02986160D01*
X02854733Y02986767D01*
X02869161Y03001196D01*
X02896216D01*
X02896989Y02999926D01*
X02896500Y02998745D01*
Y02996755D01*
X02897261Y02994918D01*
X02898668Y02993511D01*
X02900505Y02992750D01*
X02902495D01*
X02904332Y02993511D01*
X02905739Y02994918D01*
X02906500Y02996755D01*
Y02998745D01*
X02906011Y02999926D01*
X02906784Y03001196D01*
X02944216D01*
X02944989Y02999926D01*
X02944500Y02998745D01*
Y02996755D01*
X02945261Y02994918D01*
X02946668Y02993511D01*
X02948505Y02992750D01*
X02950495D01*
X02952332Y02993511D01*
X02953739Y02994918D01*
X02954500Y02996755D01*
Y02998745D01*
X02954011Y02999926D01*
X02954784Y03001196D01*
X03014716D01*
X03015490Y02999926D01*
X03015000Y02998745D01*
Y02996755D01*
X03015761Y02994918D01*
X03017168Y02993511D01*
X03019005Y02992750D01*
X03020995D01*
X03022832Y02993511D01*
X03024239Y02994918D01*
X03024250Y02994946D01*
X03029000D01*
X03030073Y02995160D01*
X03030983Y02995768D01*
X03047411Y03012196D01*
X03102708D01*
X03103414Y03011140D01*
X03103250Y03010745D01*
Y03008755D01*
X03104011Y03006918D01*
X03105418Y03005511D01*
X03107255Y03004750D01*
X03109244D01*
X03111082Y03005511D01*
X03112489Y03006918D01*
X03112501Y03006946D01*
X03124250D01*
X03125323Y03007160D01*
X03126233Y03007767D01*
X03141161Y03022696D01*
X03166249D01*
X03166261Y03022668D01*
X03167668Y03021261D01*
X03169505Y03020500D01*
X03171494D01*
X03173332Y03021261D01*
X03174739Y03022668D01*
X03175500Y03024505D01*
Y03026494D01*
X03174739Y03028332D01*
X03173332Y03029739D01*
X03171494Y03030500D01*
X03169505D01*
X03167668Y03029739D01*
X03166261Y03028332D01*
X03166249Y03028304D01*
X03141928D01*
X03141442Y03029477D01*
X03147227Y03035262D01*
X03147255Y03035250D01*
X03149244D01*
X03151082Y03036011D01*
X03152489Y03037418D01*
X03153250Y03039255D01*
Y03041245D01*
X03152489Y03043082D01*
X03151082Y03044489D01*
X03149244Y03045250D01*
X03147255D01*
X03145418Y03044489D01*
X03144011Y03043082D01*
X03143250Y03041245D01*
Y03039255D01*
X03143262Y03039227D01*
X03121839Y03017804D01*
X03113792D01*
X03113086Y03018860D01*
X03113250Y03019255D01*
Y03021245D01*
X03112489Y03023082D01*
X03111082Y03024489D01*
X03109244Y03025250D01*
X03107255D01*
X03107056Y03025167D01*
X03106000Y03025873D01*
Y03026494D01*
X03105239Y03028332D01*
X03103832Y03029739D01*
X03103804Y03029750D01*
Y03033589D01*
X03109161Y03038946D01*
X03113999D01*
X03114011Y03038918D01*
X03115418Y03037511D01*
X03117255Y03036750D01*
X03119245D01*
X03121082Y03037511D01*
X03122489Y03038918D01*
X03123250Y03040755D01*
Y03042744D01*
X03122489Y03044582D01*
X03121082Y03045989D01*
X03119245Y03046750D01*
X03117255D01*
X03115418Y03045989D01*
X03114011Y03044582D01*
X03113999Y03044554D01*
X03108000D01*
X03106927Y03044341D01*
X03106017Y03043733D01*
X03099017Y03036732D01*
X03098410Y03035823D01*
X03098196Y03034750D01*
Y03029750D01*
X03098168Y03029739D01*
X03096761Y03028332D01*
X03096000Y03026494D01*
Y03024505D01*
X03096164Y03024110D01*
X03095458Y03023054D01*
X03080179D01*
X03079692Y03024227D01*
X03084977Y03029512D01*
X03085005Y03029500D01*
X03086995D01*
X03088832Y03030261D01*
X03090239Y03031668D01*
X03091000Y03033505D01*
Y03035494D01*
X03090239Y03037332D01*
X03088832Y03038739D01*
X03086995Y03039500D01*
X03085005D01*
X03083168Y03038739D01*
X03081761Y03037332D01*
X03081000Y03035494D01*
Y03033505D01*
X03081012Y03033477D01*
X03073339Y03025804D01*
X03046317D01*
X03045832Y03026977D01*
X03066300Y03047446D01*
X03078999D01*
X03079011Y03047418D01*
X03080418Y03046011D01*
X03082255Y03045250D01*
X03084244D01*
X03086082Y03046011D01*
X03087489Y03047418D01*
X03088250Y03049255D01*
Y03051245D01*
X03088190Y03051390D01*
X03088895Y03052446D01*
X03098999D01*
X03099011Y03052418D01*
X03100418Y03051011D01*
X03102255Y03050250D01*
X03104244D01*
X03106082Y03051011D01*
X03107489Y03052418D01*
X03108250Y03054255D01*
Y03056245D01*
X03107489Y03058082D01*
X03106082Y03059489D01*
X03104244Y03060250D01*
D02*
G37*
G36*
X03219817Y03049350D02*
X03217184D01*
X03214640Y03048669D01*
X03212360Y03047352D01*
X03210498Y03045490D01*
X03209182Y03043210D01*
X03208500Y03040667D01*
Y03038033D01*
X03209182Y03035490D01*
X03210498Y03033210D01*
X03212360Y03031348D01*
X03214640Y03030031D01*
X03217184Y03029350D01*
X03219817D01*
X03222360Y03030031D01*
X03224640Y03031348D01*
X03226502Y03033210D01*
X03227819Y03035490D01*
X03228500Y03038033D01*
Y03040667D01*
X03227819Y03043210D01*
X03226502Y03045490D01*
X03224640Y03047352D01*
X03222360Y03048669D01*
X03219817Y03049350D01*
D02*
G37*
G36*
X02918495Y03036750D02*
X02916505D01*
X02914668Y03035989D01*
X02913261Y03034582D01*
X02912500Y03032744D01*
Y03030755D01*
X02913261Y03028918D01*
X02914668Y03027511D01*
X02916505Y03026750D01*
X02918495D01*
X02920332Y03027511D01*
X02921739Y03028918D01*
X02922500Y03030755D01*
Y03032744D01*
X02921739Y03034582D01*
X02920332Y03035989D01*
X02918495Y03036750D01*
D02*
G37*
G36*
X02748495D02*
X02746505D01*
X02744668Y03035989D01*
X02743261Y03034582D01*
X02742500Y03032744D01*
Y03030755D01*
X02743261Y03028918D01*
X02744668Y03027511D01*
X02746505Y03026750D01*
X02748495D01*
X02750332Y03027511D01*
X02751739Y03028918D01*
X02752500Y03030755D01*
Y03032744D01*
X02751739Y03034582D01*
X02750332Y03035989D01*
X02748495Y03036750D01*
D02*
G37*
G36*
X03155245Y03016500D02*
X03153256D01*
X03151418Y03015739D01*
X03150011Y03014332D01*
X03149250Y03012495D01*
Y03010505D01*
X03150011Y03008668D01*
X03151418Y03007261D01*
X03153256Y03006500D01*
X03155245D01*
X03157082Y03007261D01*
X03158489Y03008668D01*
X03159250Y03010505D01*
Y03012495D01*
X03158489Y03014332D01*
X03157082Y03015739D01*
X03155245Y03016500D01*
D02*
G37*
G36*
X03059495Y03002750D02*
X03057505D01*
X03055668Y03001989D01*
X03054261Y03000582D01*
X03053500Y02998745D01*
Y02996755D01*
X03054261Y02994918D01*
X03055668Y02993511D01*
X03057505Y02992750D01*
X03059495D01*
X03061332Y02993511D01*
X03062739Y02994918D01*
X03063500Y02996755D01*
Y02998745D01*
X03062739Y03000582D01*
X03061332Y03001989D01*
X03059495Y03002750D01*
D02*
G37*
G36*
X03043495D02*
X03041505D01*
X03039668Y03001989D01*
X03038261Y03000582D01*
X03037500Y02998745D01*
Y02996755D01*
X03038261Y02994918D01*
X03039668Y02993511D01*
X03041505Y02992750D01*
X03043495D01*
X03045332Y02993511D01*
X03046739Y02994918D01*
X03047500Y02996755D01*
Y02998745D01*
X03046739Y03000582D01*
X03045332Y03001989D01*
X03043495Y03002750D01*
D02*
G37*
G36*
X02748495D02*
X02746505D01*
X02744668Y03001989D01*
X02743261Y03000582D01*
X02742500Y02998745D01*
Y02996755D01*
X02743261Y02994918D01*
X02744668Y02993511D01*
X02746505Y02992750D01*
X02748495D01*
X02750332Y02993511D01*
X02751739Y02994918D01*
X02752500Y02996755D01*
Y02998745D01*
X02751739Y03000582D01*
X02750332Y03001989D01*
X02748495Y03002750D01*
D02*
G37*
G36*
X02843745Y02981000D02*
X02841755D01*
X02839918Y02980239D01*
X02838511Y02978832D01*
X02838385Y02978528D01*
X02837115D01*
X02836989Y02978832D01*
X02835582Y02980239D01*
X02833745Y02981000D01*
X02831755D01*
X02829918Y02980239D01*
X02828511Y02978832D01*
X02828385Y02978528D01*
X02827115D01*
X02826989Y02978832D01*
X02825582Y02980239D01*
X02823745Y02981000D01*
X02821755D01*
X02819918Y02980239D01*
X02818511Y02978832D01*
X02818385Y02978528D01*
X02817115D01*
X02816989Y02978832D01*
X02815582Y02980239D01*
X02813745Y02981000D01*
X02811755D01*
X02809918Y02980239D01*
X02808511Y02978832D01*
X02808385Y02978528D01*
X02807115D01*
X02806989Y02978832D01*
X02805582Y02980239D01*
X02803745Y02981000D01*
X02801755D01*
X02799918Y02980239D01*
X02798511Y02978832D01*
X02797750Y02976995D01*
Y02975005D01*
X02798511Y02973168D01*
X02799918Y02971761D01*
X02801755Y02971000D01*
X02803745D01*
X02805582Y02971761D01*
X02806989Y02973168D01*
X02807115Y02973472D01*
X02808385D01*
X02808511Y02973168D01*
X02809918Y02971761D01*
X02811755Y02971000D01*
X02813745D01*
X02815582Y02971761D01*
X02816989Y02973168D01*
X02817115Y02973472D01*
X02818385D01*
X02818511Y02973168D01*
X02819918Y02971761D01*
X02821755Y02971000D01*
X02823745D01*
X02825582Y02971761D01*
X02826989Y02973168D01*
X02827115Y02973472D01*
X02828385D01*
X02828511Y02973168D01*
X02829918Y02971761D01*
X02831755Y02971000D01*
X02833745D01*
X02835582Y02971761D01*
X02836989Y02973168D01*
X02837115Y02973472D01*
X02838385D01*
X02838511Y02973168D01*
X02839918Y02971761D01*
X02841755Y02971000D01*
X02843745D01*
X02845582Y02971761D01*
X02846989Y02973168D01*
X02847750Y02975005D01*
Y02976995D01*
X02846989Y02978832D01*
X02845582Y02980239D01*
X02843745Y02981000D01*
D02*
G37*
G36*
X02892895Y02980000D02*
X02890905D01*
X02889068Y02979239D01*
X02887661Y02977832D01*
X02886900Y02975995D01*
Y02974005D01*
X02887661Y02972168D01*
X02889068Y02970761D01*
X02890905Y02970000D01*
X02892895D01*
X02894732Y02970761D01*
X02896139Y02972168D01*
X02896900Y02974005D01*
Y02975995D01*
X02896139Y02977832D01*
X02894732Y02979239D01*
X02892895Y02980000D01*
D02*
G37*
G36*
X02857245D02*
X02855255D01*
X02853418Y02979239D01*
X02852011Y02977832D01*
X02851250Y02975995D01*
Y02974005D01*
X02852011Y02972168D01*
X02853418Y02970761D01*
X02855255Y02970000D01*
X02857245D01*
X02859082Y02970761D01*
X02860489Y02972168D01*
X02861250Y02974005D01*
Y02975995D01*
X02860489Y02977832D01*
X02859082Y02979239D01*
X02857245Y02980000D01*
D02*
G37*
G36*
X03220244Y02976750D02*
X03218255D01*
X03216418Y02975989D01*
X03215011Y02974582D01*
X03214250Y02972744D01*
Y02970755D01*
X03215011Y02968918D01*
X03216418Y02967511D01*
X03218255Y02966750D01*
X03220244D01*
X03222082Y02967511D01*
X03223489Y02968918D01*
X03224250Y02970755D01*
Y02972744D01*
X03223489Y02974582D01*
X03222082Y02975989D01*
X03220244Y02976750D01*
D02*
G37*
G36*
X02806586Y02960400D02*
X02804414D01*
X02802316Y02959838D01*
X02800434Y02958752D01*
X02798898Y02957216D01*
X02797812Y02955334D01*
X02797250Y02953236D01*
Y02951064D01*
X02797812Y02948965D01*
X02798898Y02947084D01*
X02800434Y02945548D01*
X02802316Y02944462D01*
X02804414Y02943900D01*
X02806586D01*
X02808684Y02944462D01*
X02810565Y02945548D01*
X02812102Y02947084D01*
X02813188Y02948965D01*
X02813750Y02951064D01*
Y02953236D01*
X02813188Y02955334D01*
X02812102Y02957216D01*
X02810565Y02958752D01*
X02808684Y02959838D01*
X02806586Y02960400D01*
D02*
G37*
G36*
X02811125Y02909651D02*
X02799875D01*
X02798851Y02909448D01*
X02797982Y02908867D01*
X02797402Y02907999D01*
X02797198Y02906975D01*
Y02895725D01*
X02797402Y02894701D01*
X02797982Y02893832D01*
X02798851Y02893252D01*
X02799875Y02893048D01*
X02811125D01*
X02812149Y02893252D01*
X02813018Y02893832D01*
X02813598Y02894701D01*
X02813801Y02895725D01*
Y02906975D01*
X02813598Y02907999D01*
X02813018Y02908867D01*
X02812149Y02909448D01*
X02811125Y02909651D01*
D02*
G37*
G36*
X03218445Y02825300D02*
X03216455D01*
X03214618Y02824539D01*
X03213211Y02823132D01*
X03212450Y02821295D01*
Y02819305D01*
X03213211Y02817468D01*
X03214618Y02816061D01*
X03216455Y02815300D01*
X03218445D01*
X03220282Y02816061D01*
X03221689Y02817468D01*
X03222450Y02819305D01*
Y02821295D01*
X03221689Y02823132D01*
X03220282Y02824539D01*
X03218445Y02825300D01*
D02*
G37*
G36*
X03100145Y02848750D02*
X03098156D01*
X03096318Y02847989D01*
X03094911Y02846582D01*
X03094150Y02844745D01*
Y02842755D01*
X03094911Y02840918D01*
X03096318Y02839511D01*
X03096346Y02839500D01*
Y02828600D01*
X03096559Y02827527D01*
X03097167Y02826617D01*
X03105517Y02818268D01*
X03106427Y02817660D01*
X03107500Y02817446D01*
X03108014D01*
X03108333Y02816492D01*
X03108355Y02816176D01*
X03107011Y02814832D01*
X03106250Y02812994D01*
Y02811005D01*
X03107011Y02809168D01*
X03107679Y02808500D01*
X03107011Y02807832D01*
X03106250Y02805995D01*
Y02804005D01*
X03106632Y02803083D01*
X03105783Y02801814D01*
X03096507D01*
X03095582Y02802739D01*
X03093745Y02803500D01*
X03091755D01*
X03089918Y02802739D01*
X03088511Y02801332D01*
X03087750Y02799495D01*
Y02797505D01*
X03088511Y02795668D01*
X03089918Y02794261D01*
X03091755Y02793500D01*
X03093745D01*
X03095582Y02794261D01*
X03096507Y02795186D01*
X03113743D01*
X03114668Y02794261D01*
X03116505Y02793500D01*
X03118495D01*
X03120332Y02794261D01*
X03121676Y02795605D01*
X03121992Y02795583D01*
X03122946Y02795264D01*
Y02790911D01*
X03117517Y02785482D01*
X03116909Y02784573D01*
X03116696Y02783500D01*
Y02731517D01*
X03115511Y02730332D01*
X03114750Y02728495D01*
Y02726505D01*
X03115511Y02724668D01*
X03116918Y02723261D01*
X03118755Y02722500D01*
X03120745D01*
X03122582Y02723261D01*
X03123989Y02724668D01*
X03124750Y02726505D01*
Y02727496D01*
X03124756Y02727500D01*
X03126745D01*
X03128582Y02728261D01*
X03129989Y02729668D01*
X03130750Y02731505D01*
Y02733495D01*
X03129989Y02735332D01*
X03128582Y02736739D01*
X03128554Y02736750D01*
Y02745605D01*
X03129610Y02746310D01*
X03129755Y02746250D01*
X03131745D01*
X03133582Y02747011D01*
X03134989Y02748418D01*
X03135001Y02748446D01*
X03151000D01*
X03152073Y02748660D01*
X03152982Y02749267D01*
X03188733Y02785017D01*
X03189341Y02785927D01*
X03189554Y02787000D01*
Y02791249D01*
X03189582Y02791261D01*
X03190989Y02792668D01*
X03191750Y02794505D01*
Y02796495D01*
X03190989Y02798332D01*
X03189582Y02799739D01*
X03187745Y02800500D01*
X03185756D01*
X03183918Y02799739D01*
X03182511Y02798332D01*
X03181750Y02796495D01*
Y02794505D01*
X03182511Y02792668D01*
X03183918Y02791261D01*
X03183946Y02791249D01*
Y02788161D01*
X03169574Y02773789D01*
X03168304Y02774315D01*
Y02799000D01*
X03168091Y02800073D01*
X03167483Y02800983D01*
X03165238Y02803227D01*
X03165250Y02803255D01*
Y02805244D01*
X03164489Y02807082D01*
X03163082Y02808489D01*
X03161245Y02809250D01*
X03159255D01*
X03157418Y02808489D01*
X03156011Y02807082D01*
X03155250Y02805244D01*
Y02803255D01*
X03156011Y02801418D01*
X03156724Y02800705D01*
X03157320Y02799875D01*
X03156724Y02799045D01*
X03156011Y02798332D01*
X03155250Y02796494D01*
Y02794505D01*
X03155262Y02794477D01*
X03139518Y02778733D01*
X03138910Y02777823D01*
X03138696Y02776750D01*
Y02769250D01*
X03138668Y02769239D01*
X03137500Y02768071D01*
X03136332Y02769239D01*
X03134495Y02770000D01*
X03132505D01*
X03130668Y02769239D01*
X03129824Y02768395D01*
X03128554Y02768921D01*
Y02782339D01*
X03132483Y02786267D01*
X03133091Y02787177D01*
X03133304Y02788250D01*
Y02807250D01*
X03133091Y02808323D01*
X03132483Y02809232D01*
X03123136Y02818580D01*
X03123383Y02819825D01*
X03123832Y02820011D01*
X03125239Y02821418D01*
X03126000Y02823255D01*
Y02825244D01*
X03125239Y02827082D01*
X03123832Y02828489D01*
X03121995Y02829250D01*
X03120005D01*
X03118168Y02828489D01*
X03116761Y02827082D01*
X03116000Y02825244D01*
Y02823255D01*
X03115865Y02823054D01*
X03109231D01*
X03108812Y02823480D01*
X03108863Y02823836D01*
X03109560Y02824750D01*
X03110494D01*
X03112332Y02825511D01*
X03113739Y02826918D01*
X03114500Y02828755D01*
Y02830745D01*
X03113739Y02832582D01*
X03112332Y02833989D01*
X03110494Y02834750D01*
X03108505D01*
X03106668Y02833989D01*
X03105261Y02832582D01*
X03104500Y02830745D01*
Y02829011D01*
X03103773Y02828528D01*
X03103327Y02828389D01*
X03101954Y02829761D01*
Y02839500D01*
X03101982Y02839511D01*
X03103389Y02840918D01*
X03104150Y02842755D01*
Y02844745D01*
X03103389Y02846582D01*
X03101982Y02847989D01*
X03100145Y02848750D01*
D02*
G37*
G36*
X03206495Y02775000D02*
X03204505D01*
X03202668Y02774239D01*
X03201261Y02772832D01*
X03200500Y02770995D01*
Y02769005D01*
X03201261Y02767168D01*
X03202668Y02765761D01*
X03204505Y02765000D01*
X03206495D01*
X03208332Y02765761D01*
X03209739Y02767168D01*
X03210500Y02769005D01*
Y02770995D01*
X03209739Y02772832D01*
X03208332Y02774239D01*
X03206495Y02775000D01*
D02*
G37*
G36*
X03176495Y02764250D02*
X03174506D01*
X03172668Y02763489D01*
X03171261Y02762082D01*
X03170500Y02760245D01*
Y02758255D01*
X03171261Y02756418D01*
X03172159Y02755520D01*
X03171633Y02754250D01*
X03170505D01*
X03168668Y02753489D01*
X03167261Y02752082D01*
X03166500Y02750244D01*
Y02748255D01*
X03167261Y02746418D01*
X03168668Y02745011D01*
X03170505Y02744250D01*
X03172495D01*
X03174332Y02745011D01*
X03175257Y02745936D01*
X03176628D01*
X03178907Y02743657D01*
X03179982Y02742939D01*
X03181250Y02742686D01*
X03210993D01*
X03211918Y02741761D01*
X03213755Y02741000D01*
X03215745D01*
X03217582Y02741761D01*
X03218989Y02743168D01*
X03219750Y02745005D01*
Y02746995D01*
X03218989Y02748832D01*
X03217582Y02750239D01*
X03215745Y02751000D01*
X03213755D01*
X03211918Y02750239D01*
X03210993Y02749314D01*
X03182623D01*
X03180343Y02751593D01*
X03179268Y02752311D01*
X03178000Y02752563D01*
X03176043D01*
X03175753Y02752980D01*
X03176417Y02754250D01*
X03176495D01*
X03178332Y02755011D01*
X03179739Y02756418D01*
X03180500Y02758255D01*
Y02760245D01*
X03179739Y02762082D01*
X03178332Y02763489D01*
X03176495Y02764250D01*
D02*
G37*
G36*
X03109745Y02747500D02*
X03107755D01*
X03105918Y02746739D01*
X03104511Y02745332D01*
X03103750Y02743495D01*
Y02741505D01*
X03104511Y02739668D01*
X03105918Y02738261D01*
X03107755Y02737500D01*
X03109745D01*
X03111582Y02738261D01*
X03112989Y02739668D01*
X03113750Y02741505D01*
Y02743495D01*
X03112989Y02745332D01*
X03111582Y02746739D01*
X03109745Y02747500D01*
D02*
G37*
G36*
X03109745Y02736000D02*
X03107755D01*
X03105918Y02735239D01*
X03104511Y02733832D01*
X03103750Y02731995D01*
Y02730005D01*
X03104511Y02728168D01*
X03105918Y02726761D01*
X03107755Y02726000D01*
X03109745D01*
X03111582Y02726761D01*
X03112989Y02728168D01*
X03113750Y02730005D01*
Y02731995D01*
X03112989Y02733832D01*
X03111582Y02735239D01*
X03109745Y02736000D01*
D02*
G37*
G36*
X03108245Y02698000D02*
X03106255D01*
X03104418Y02697239D01*
X03103011Y02695832D01*
X03102250Y02693995D01*
Y02692005D01*
X03103011Y02690168D01*
X03104418Y02688761D01*
X03106255Y02688000D01*
X03108245D01*
X03110082Y02688761D01*
X03111489Y02690168D01*
X03112250Y02692005D01*
Y02693995D01*
X03111489Y02695832D01*
X03110082Y02697239D01*
X03108245Y02698000D01*
D02*
G37*
%LPD*%
G36*
X03162696Y02789958D02*
Y02774411D01*
X03148339Y02760054D01*
X03145421D01*
X03144895Y02761324D01*
X03145739Y02762168D01*
X03146500Y02764005D01*
Y02765995D01*
X03145739Y02767832D01*
X03144332Y02769239D01*
X03144304Y02769250D01*
Y02775589D01*
X03159227Y02790512D01*
X03159255Y02790500D01*
X03161245D01*
X03161640Y02790664D01*
X03162696Y02789958D01*
D02*
G37*
%LPC*%
G36*
X03023944Y02825300D02*
X03021955D01*
X03020118Y02824539D01*
X03018711Y02823132D01*
X03017950Y02821295D01*
Y02819305D01*
X03018711Y02817468D01*
X03020118Y02816061D01*
X03021955Y02815300D01*
X03023944D01*
X03025782Y02816061D01*
X03027189Y02817468D01*
X03027950Y02819305D01*
Y02821295D01*
X03027189Y02823132D01*
X03025782Y02824539D01*
X03023944Y02825300D01*
D02*
G37*
G36*
X02905645Y02848750D02*
X02903655D01*
X02901818Y02847989D01*
X02900411Y02846582D01*
X02899650Y02844745D01*
Y02842755D01*
X02900411Y02840918D01*
X02901818Y02839511D01*
X02901846Y02839500D01*
Y02828600D01*
X02902060Y02827527D01*
X02902668Y02826617D01*
X02911017Y02818268D01*
X02911927Y02817660D01*
X02913000Y02817446D01*
X02913514D01*
X02913833Y02816492D01*
X02913855Y02816176D01*
X02912511Y02814832D01*
X02911750Y02812994D01*
Y02811005D01*
X02912511Y02809168D01*
X02913179Y02808500D01*
X02912511Y02807832D01*
X02911750Y02805995D01*
Y02804005D01*
X02912132Y02803083D01*
X02911283Y02801814D01*
X02902007D01*
X02901082Y02802739D01*
X02899245Y02803500D01*
X02897255D01*
X02895418Y02802739D01*
X02894011Y02801332D01*
X02893250Y02799495D01*
Y02797505D01*
X02894011Y02795668D01*
X02895418Y02794261D01*
X02897255Y02793500D01*
X02899245D01*
X02901082Y02794261D01*
X02902007Y02795186D01*
X02919243D01*
X02920168Y02794261D01*
X02922005Y02793500D01*
X02923995D01*
X02925832Y02794261D01*
X02927176Y02795605D01*
X02927492Y02795583D01*
X02928446Y02795264D01*
Y02790911D01*
X02923017Y02785482D01*
X02922410Y02784573D01*
X02922196Y02783500D01*
Y02731517D01*
X02921011Y02730332D01*
X02920250Y02728495D01*
Y02726505D01*
X02921011Y02724668D01*
X02922418Y02723261D01*
X02924255Y02722500D01*
X02926245D01*
X02928082Y02723261D01*
X02929489Y02724668D01*
X02930250Y02726505D01*
Y02727496D01*
X02930255Y02727500D01*
X02932245D01*
X02934082Y02728261D01*
X02935489Y02729668D01*
X02936250Y02731505D01*
Y02733495D01*
X02935489Y02735332D01*
X02934082Y02736739D01*
X02934054Y02736750D01*
Y02745605D01*
X02935110Y02746310D01*
X02935255Y02746250D01*
X02937245D01*
X02939082Y02747011D01*
X02940489Y02748418D01*
X02940500Y02748446D01*
X02956500D01*
X02957573Y02748659D01*
X02958483Y02749267D01*
X02994232Y02785017D01*
X02994840Y02785927D01*
X02995054Y02787000D01*
Y02791249D01*
X02995082Y02791261D01*
X02996489Y02792668D01*
X02997250Y02794505D01*
Y02796495D01*
X02996489Y02798332D01*
X02995082Y02799739D01*
X02993245Y02800500D01*
X02991255D01*
X02989418Y02799739D01*
X02988011Y02798332D01*
X02987250Y02796495D01*
Y02794505D01*
X02988011Y02792668D01*
X02989418Y02791261D01*
X02989446Y02791249D01*
Y02788161D01*
X02975074Y02773789D01*
X02973804Y02774315D01*
Y02799000D01*
X02973590Y02800073D01*
X02972982Y02800983D01*
X02970738Y02803227D01*
X02970750Y02803255D01*
Y02805244D01*
X02969989Y02807082D01*
X02968582Y02808489D01*
X02966745Y02809250D01*
X02964755D01*
X02962918Y02808489D01*
X02961511Y02807082D01*
X02960750Y02805244D01*
Y02803255D01*
X02961511Y02801418D01*
X02962224Y02800705D01*
X02962820Y02799875D01*
X02962224Y02799045D01*
X02961511Y02798332D01*
X02960750Y02796494D01*
Y02794505D01*
X02960762Y02794477D01*
X02945017Y02778733D01*
X02944409Y02777823D01*
X02944196Y02776750D01*
Y02769250D01*
X02944168Y02769239D01*
X02943000Y02768071D01*
X02941832Y02769239D01*
X02939995Y02770000D01*
X02938005D01*
X02936168Y02769239D01*
X02935324Y02768395D01*
X02934054Y02768921D01*
Y02782339D01*
X02937982Y02786267D01*
X02938590Y02787177D01*
X02938804Y02788250D01*
Y02807250D01*
X02938590Y02808323D01*
X02937982Y02809232D01*
X02928636Y02818580D01*
X02928883Y02819825D01*
X02929332Y02820011D01*
X02930739Y02821418D01*
X02931500Y02823255D01*
Y02825244D01*
X02930739Y02827082D01*
X02929332Y02828489D01*
X02927495Y02829250D01*
X02925505D01*
X02923668Y02828489D01*
X02922261Y02827082D01*
X02921500Y02825244D01*
Y02823255D01*
X02921365Y02823054D01*
X02914731D01*
X02914312Y02823480D01*
X02914363Y02823836D01*
X02915060Y02824750D01*
X02915995D01*
X02917832Y02825511D01*
X02919239Y02826918D01*
X02920000Y02828755D01*
Y02830745D01*
X02919239Y02832582D01*
X02917832Y02833989D01*
X02915995Y02834750D01*
X02914005D01*
X02912168Y02833989D01*
X02910761Y02832582D01*
X02910000Y02830745D01*
Y02829011D01*
X02909273Y02828528D01*
X02908827Y02828389D01*
X02907454Y02829761D01*
Y02839500D01*
X02907482Y02839511D01*
X02908889Y02840918D01*
X02909650Y02842755D01*
Y02844745D01*
X02908889Y02846582D01*
X02907482Y02847989D01*
X02905645Y02848750D01*
D02*
G37*
G36*
X03011995Y02775000D02*
X03010005D01*
X03008168Y02774239D01*
X03006761Y02772832D01*
X03006000Y02770995D01*
Y02769005D01*
X03006761Y02767168D01*
X03008168Y02765761D01*
X03010005Y02765000D01*
X03011995D01*
X03013832Y02765761D01*
X03015239Y02767168D01*
X03016000Y02769005D01*
Y02770995D01*
X03015239Y02772832D01*
X03013832Y02774239D01*
X03011995Y02775000D01*
D02*
G37*
G36*
X02981995Y02764250D02*
X02980005D01*
X02978168Y02763489D01*
X02976761Y02762082D01*
X02976000Y02760244D01*
Y02758255D01*
X02976761Y02756418D01*
X02977659Y02755520D01*
X02977133Y02754250D01*
X02976006D01*
X02974168Y02753489D01*
X02972761Y02752082D01*
X02972000Y02750244D01*
Y02748255D01*
X02972761Y02746418D01*
X02974168Y02745011D01*
X02976006Y02744250D01*
X02977995D01*
X02979832Y02745011D01*
X02980757Y02745936D01*
X02982127D01*
X02984407Y02743657D01*
X02985482Y02742939D01*
X02986750Y02742686D01*
X03016493D01*
X03017418Y02741761D01*
X03019255Y02741000D01*
X03021245D01*
X03023082Y02741761D01*
X03024489Y02743168D01*
X03025250Y02745005D01*
Y02746995D01*
X03024489Y02748832D01*
X03023082Y02750239D01*
X03021245Y02751000D01*
X03019255D01*
X03017418Y02750239D01*
X03016493Y02749314D01*
X02988123D01*
X02985843Y02751593D01*
X02984768Y02752311D01*
X02983500Y02752563D01*
X02981543D01*
X02981254Y02752980D01*
X02981917Y02754250D01*
X02981995D01*
X02983832Y02755011D01*
X02985239Y02756418D01*
X02986000Y02758255D01*
Y02760244D01*
X02985239Y02762082D01*
X02983832Y02763489D01*
X02981995Y02764250D01*
D02*
G37*
G36*
X02915245Y02747500D02*
X02913256D01*
X02911418Y02746739D01*
X02910011Y02745332D01*
X02909250Y02743495D01*
Y02741505D01*
X02910011Y02739668D01*
X02911418Y02738261D01*
X02913256Y02737500D01*
X02915245D01*
X02917082Y02738261D01*
X02918489Y02739668D01*
X02919250Y02741505D01*
Y02743495D01*
X02918489Y02745332D01*
X02917082Y02746739D01*
X02915245Y02747500D01*
D02*
G37*
G36*
X02915245Y02736000D02*
X02913255D01*
X02911418Y02735239D01*
X02910011Y02733832D01*
X02909250Y02731995D01*
Y02730005D01*
X02910011Y02728168D01*
X02911418Y02726761D01*
X02913255Y02726000D01*
X02915245D01*
X02917082Y02726761D01*
X02918489Y02728168D01*
X02919250Y02730005D01*
Y02731995D01*
X02918489Y02733832D01*
X02917082Y02735239D01*
X02915245Y02736000D01*
D02*
G37*
G36*
X02913745Y02698000D02*
X02911755D01*
X02909918Y02697239D01*
X02908511Y02695832D01*
X02907750Y02693994D01*
Y02692005D01*
X02908511Y02690168D01*
X02909918Y02688761D01*
X02911755Y02688000D01*
X02913745D01*
X02915582Y02688761D01*
X02916989Y02690168D01*
X02917750Y02692005D01*
Y02693994D01*
X02916989Y02695832D01*
X02915582Y02697239D01*
X02913745Y02698000D01*
D02*
G37*
%LPD*%
G36*
X02968196Y02789958D02*
Y02774411D01*
X02953839Y02760054D01*
X02950921D01*
X02950395Y02761324D01*
X02951239Y02762168D01*
X02952000Y02764005D01*
Y02765995D01*
X02951239Y02767832D01*
X02949832Y02769239D01*
X02949804Y02769250D01*
Y02775589D01*
X02964727Y02790512D01*
X02964755Y02790500D01*
X02966745D01*
X02967140Y02790664D01*
X02968196Y02789958D01*
D02*
G37*
D10*
X03068750Y02955750D02*
X03076750D01*
X03117000Y02996000D02*
X03143250D01*
X03076750Y02955750D02*
X03117000Y02996000D01*
X03058748Y02955750D02*
X03090248Y02987250D01*
X03098750D01*
X02832500Y02886750D02*
X02859000Y02913250D01*
X02808350Y03019000D02*
X02862389D01*
X02869139Y03012250D02*
X03023250D01*
X02862389Y03019000D02*
X02869139Y03012250D01*
X02868000Y03004000D02*
X03026667D01*
X02852750Y02988750D02*
X02868000Y03004000D01*
X02772500Y02988750D02*
X02852750D01*
X03023250Y03012250D02*
X03066250Y03055250D01*
X03026667Y03004000D02*
X03027167Y03004500D01*
X02859000Y03006750D02*
X03025528D01*
X02861250Y03016250D02*
X02868000Y03009500D01*
X03024389D02*
X03065139Y03050250D01*
X02868000Y03009500D02*
X03024389D01*
X02828250Y03016250D02*
X02861250D01*
X03027167Y03004500D02*
X03042917Y03020250D01*
X03025528Y03006750D02*
X03041778Y03023000D01*
X02904650Y02828600D02*
X02913000Y02820250D01*
X02904650Y02828600D02*
Y02843750D01*
X02923000Y02820250D02*
X02936000Y02807250D01*
Y02788250D02*
Y02807250D01*
X02913000Y02820250D02*
X02923000D01*
X03107500D02*
X03117500D01*
X03130500Y02788250D02*
Y02807250D01*
X03117500Y02820250D02*
X03130500Y02807250D01*
X03099150Y02828600D02*
Y02843750D01*
Y02828600D02*
X03107500Y02820250D01*
X02832500Y02843000D02*
Y02886750D01*
X02926500Y02807250D02*
X02931250Y02802500D01*
X02925000Y02727750D02*
X02925250Y02727500D01*
X02931250Y02789750D02*
Y02802500D01*
X02925000Y02727750D02*
Y02783500D01*
X02931250Y02789750D01*
Y02732500D02*
Y02783500D01*
X02936000Y02788250D01*
X02965750Y02804250D02*
X02971000Y02799000D01*
X02956500Y02751250D02*
X02992250Y02787000D01*
X02936250Y02751250D02*
X02956500D01*
X02992250Y02787000D02*
Y02795500D01*
X02942750Y02757250D02*
X02955000D01*
X02971000Y02773250D01*
Y02799000D01*
X02947000Y02765000D02*
Y02776750D01*
X02965750Y02795500D01*
X03141500Y02776750D02*
X03160250Y02795500D01*
X03141500Y02765000D02*
Y02776750D01*
X03125750Y02783500D02*
X03130500Y02788250D01*
X03125750Y02732500D02*
Y02783500D01*
X03119500D02*
X03125750Y02789750D01*
X03119500Y02727750D02*
Y02783500D01*
X03125750Y02789750D02*
Y02802500D01*
X03119500Y02727750D02*
X03119750Y02727500D01*
X03121000Y02807250D02*
X03125750Y02802500D01*
X03165500Y02773250D02*
Y02799000D01*
X03149500Y02757250D02*
X03165500Y02773250D01*
X03137250Y02757250D02*
X03149500D01*
X03186750Y02787000D02*
Y02795500D01*
X03130750Y02751250D02*
X03151000D01*
X03186750Y02787000D01*
X03160250Y02804250D02*
X03165500Y02799000D01*
X03108250Y03009750D02*
X03124250D01*
X03140000Y03025500D02*
X03170500D01*
X03124250Y03009750D02*
X03140000Y03025500D01*
X03121500Y02990500D02*
X03138250D01*
X03111750Y02980750D02*
X03121500Y02990500D01*
X03123250Y02975250D02*
X03123250Y02975250D01*
X03105250Y02975250D02*
X03123250D01*
X03111750Y02969750D02*
X03141500D01*
X03118250Y02964250D02*
X03170600D01*
X03108000Y03041750D02*
X03118250D01*
X03101000Y03034750D02*
X03108000Y03041750D01*
X03101000Y03025500D02*
Y03034750D01*
X03065139Y03050250D02*
X03083250D01*
X03046250Y03015000D02*
X03123000D01*
X03148250Y03040250D01*
X03029000Y02997750D02*
X03046250Y03015000D01*
X03020000Y02997750D02*
X03029000D01*
X03042917Y03020250D02*
X03097250D01*
X03041778Y03023000D02*
X03074500D01*
X03066250Y03055250D02*
X03103250D01*
X03074500Y03023000D02*
X03086000Y03034500D01*
X03097250Y03020250D02*
X03108250D01*
X02763500Y02997750D02*
X02772500Y02988750D01*
X02821150Y03009150D02*
X02828250Y03016250D01*
X02821150Y02994500D02*
Y03009150D01*
D11*
X02986750Y02746000D02*
X03020250D01*
X02983500Y02749250D02*
X02986750Y02746000D01*
X02977000Y02749250D02*
X02983500D01*
X02898250Y02798500D02*
X02923000D01*
X03092750D02*
X03117500D01*
X03171500Y02749250D02*
X03178000D01*
X03181250Y02746000D01*
X03214750D01*
D102*
X02912450Y03126500D02*
X02929200Y03109750D01*
X03012000D01*
X02853750D02*
X02862750Y03100750D01*
X02787500Y03109750D02*
X02853750D01*
D108*
X03129350Y03220750D02*
D03*
X02959350D02*
D03*
X02619350D02*
D03*
X02789350D02*
D03*
X02670150Y02561750D02*
D03*
X02840150D02*
D03*
X03010150D02*
D03*
X03180150D02*
D03*
D109*
Y03220750D02*
D03*
X03010150D02*
D03*
X02670150D02*
D03*
X02840150D02*
D03*
X02619350Y02561750D02*
D03*
X02789350D02*
D03*
X02959350D02*
D03*
X03129350D02*
D03*
D110*
X02805500Y02901350D02*
D03*
D111*
Y02926750D02*
D03*
Y02952150D02*
D03*
D112*
X03158800Y03151750D02*
D03*
X03184200D02*
D03*
X03209600D02*
D03*
X03218500Y03064750D02*
D03*
Y03039350D02*
D03*
Y03013950D02*
D03*
D113*
X03133400Y03151750D02*
D03*
D114*
X03218500Y03090150D02*
D03*
D115*
X02887050Y03174850D02*
D03*
X02912450D02*
D03*
Y03098650D02*
D03*
D116*
X02887050D02*
D03*
D117*
X03199250Y03181500D02*
D03*
X03229250D02*
D03*
X02725000Y02965227D02*
D03*
Y02989350D02*
D03*
Y03013473D02*
D03*
Y03037596D02*
D03*
Y03061719D02*
D03*
Y03085842D02*
D03*
Y03109966D02*
D03*
Y03134088D02*
D03*
Y03158212D02*
D03*
Y03182335D02*
D03*
X03229500Y02955750D02*
D03*
X03153250Y02977500D02*
D03*
X02745500Y02736000D02*
D03*
X03111250Y02955750D02*
D03*
X02859000Y02913250D02*
D03*
X02937950Y02955750D02*
D03*
X02925250D02*
D03*
X02912250D02*
D03*
X03078250Y02843750D02*
D03*
X03109000Y02847500D02*
D03*
X03220500Y02805500D02*
D03*
Y02780500D02*
D03*
Y02763750D02*
D03*
Y02843000D02*
D03*
Y02830500D02*
D03*
X03026000Y02763750D02*
D03*
Y02780500D02*
D03*
Y02805500D02*
D03*
X02914500Y02847500D02*
D03*
X02883750Y02843750D02*
D03*
X03026000Y02830500D02*
D03*
Y02843000D02*
D03*
X02917750Y02839000D02*
D03*
X02926500Y02824250D02*
D03*
X03121000D02*
D03*
X03112250Y02839000D02*
D03*
X03175250Y02668000D02*
D03*
X03186750D02*
D03*
X03221250D02*
D03*
X03209750D02*
D03*
X03198250D02*
D03*
X02980750D02*
D03*
X02992250D02*
D03*
X03026750D02*
D03*
X03015250D02*
D03*
X03003750D02*
D03*
X03198250Y02609000D02*
D03*
X03209750D02*
D03*
X03221250D02*
D03*
X03186750D02*
D03*
X03175250D02*
D03*
X03175250Y02638500D02*
D03*
X03186750D02*
D03*
X03221250D02*
D03*
X03209750D02*
D03*
X03198250D02*
D03*
X03175250Y02623750D02*
D03*
X03221250D02*
D03*
X03026750D02*
D03*
X02980750D02*
D03*
X03003750Y02638500D02*
D03*
X03015250D02*
D03*
X03026750D02*
D03*
X02992250D02*
D03*
X02980750D02*
D03*
X02980750Y02609000D02*
D03*
X02992250D02*
D03*
X03026750D02*
D03*
X03015250D02*
D03*
X03003750D02*
D03*
X03049875Y03138375D02*
D03*
X02914250Y02742500D02*
D03*
X02914250Y02731000D02*
D03*
X02912750Y02693000D02*
D03*
Y02722000D02*
D03*
X02883750D02*
D03*
Y02693000D02*
D03*
X03078250Y02693000D02*
D03*
X03107250Y02722000D02*
D03*
Y02693000D02*
D03*
X03078250Y02722000D02*
D03*
X03108750Y02731000D02*
D03*
X03108750Y02742500D02*
D03*
X02889250Y02819000D02*
D03*
X02915000Y02829750D02*
D03*
X03109500D02*
D03*
X03083750Y02819000D02*
D03*
X02883750Y02770000D02*
D03*
Y02759000D02*
D03*
X02911250Y02770000D02*
D03*
X03105750D02*
D03*
X03078250Y02759000D02*
D03*
Y02770000D02*
D03*
X02916750Y02812000D02*
D03*
Y02805000D02*
D03*
X02832500Y02843000D02*
D03*
X02736500Y02836000D02*
D03*
Y02824500D02*
D03*
X02747500Y02860000D02*
D03*
Y02850000D02*
D03*
X02782250Y02878750D02*
D03*
Y02904500D02*
D03*
X02756000Y02873500D02*
D03*
Y02904500D02*
D03*
X02725000Y02819250D02*
D03*
Y02842500D02*
D03*
Y02873500D02*
D03*
Y02904500D02*
D03*
Y02935500D02*
D03*
X02756000D02*
D03*
X02787000Y02924250D02*
D03*
Y02935500D02*
D03*
X02824000D02*
D03*
Y02924250D02*
D03*
X02856000D02*
D03*
Y02935500D02*
D03*
X02822750Y02786750D02*
D03*
X02745500Y02725500D02*
D03*
X02759500D02*
D03*
X02773500D02*
D03*
X02802750Y02976000D02*
D03*
X02812750D02*
D03*
X02822750D02*
D03*
X02842750D02*
D03*
X02832750D02*
D03*
X03108750Y02758500D02*
D03*
X03092750Y02759000D02*
D03*
Y02770000D02*
D03*
X02936250Y02751250D02*
D03*
X02947000Y02765000D02*
D03*
X02942750Y02757250D02*
D03*
X02925250Y02727500D02*
D03*
X02931250Y02732500D02*
D03*
X02955000Y02765000D02*
D03*
X02939000D02*
D03*
X03020250Y02746000D02*
D03*
X02977000Y02749250D02*
D03*
X02981000Y02759250D02*
D03*
X03016250Y02706000D02*
D03*
Y02722000D02*
D03*
Y02738000D02*
D03*
Y02754000D02*
D03*
X03011000Y02770000D02*
D03*
X02979750Y02785250D02*
D03*
X02965750Y02804250D02*
D03*
Y02795500D02*
D03*
X02926500Y02807250D02*
D03*
X02923000Y02798500D02*
D03*
X02898250D02*
D03*
X02904650Y02843750D02*
D03*
X03099150D02*
D03*
X03125750Y02732500D02*
D03*
X03119750Y02727500D02*
D03*
X03121000Y02807250D02*
D03*
X03137250Y02757250D02*
D03*
X03141500Y02765000D02*
D03*
X02914250Y02758500D02*
D03*
X03111250Y02805000D02*
D03*
Y02812000D02*
D03*
X03117500Y02798500D02*
D03*
X03092750D02*
D03*
X02992250Y02795500D02*
D03*
X03014250D02*
D03*
X03022950Y02820300D02*
D03*
X03108250Y03009750D02*
D03*
X03170500Y03025500D02*
D03*
X02797750Y02747500D02*
D03*
X02949500Y02997750D02*
D03*
X03098750Y02987250D02*
D03*
X02891900Y02975000D02*
D03*
X03143250Y02996000D02*
D03*
X03138250Y02990500D02*
D03*
X03111750Y02980750D02*
D03*
X03068750Y02955750D02*
D03*
X03058748Y02955750D02*
D03*
X03024748D02*
D03*
X03178500Y02971750D02*
D03*
X03105250Y02975250D02*
D03*
X03141500Y02969750D02*
D03*
X03123250Y02975250D02*
D03*
X03111750Y02969750D02*
D03*
X03170600Y02964250D02*
D03*
X03118250D02*
D03*
X03101000Y03025500D02*
D03*
X03118250Y03041750D02*
D03*
X03148250Y03040250D02*
D03*
X03020000Y02997750D02*
D03*
X03086000Y03034500D02*
D03*
X03108250Y03020250D02*
D03*
X02763500Y02997750D02*
D03*
X02859000Y03006750D02*
D03*
X02821150Y02994500D02*
D03*
X02808350Y03019000D02*
D03*
X02779500Y03069750D02*
D03*
X02933500D02*
D03*
X02901500Y02997750D02*
D03*
X02917500D02*
D03*
Y03031750D02*
D03*
X02747500Y03069750D02*
D03*
Y03031750D02*
D03*
X02738500Y03044750D02*
D03*
X02779500Y02997750D02*
D03*
X02747500D02*
D03*
X02788500Y03044750D02*
D03*
X02850000Y03069750D02*
D03*
X02958500Y03044750D02*
D03*
X02949500Y03069750D02*
D03*
X03020000D02*
D03*
X02833850Y03048500D02*
D03*
X03003850D02*
D03*
X02862750Y03100750D02*
D03*
X02912450Y03126500D02*
D03*
X03012000Y03109750D02*
D03*
X02787500D02*
D03*
X02984750Y03090750D02*
D03*
X02814750D02*
D03*
X02856250Y02975000D02*
D03*
X02872500D02*
D03*
X03001550Y02826750D02*
D03*
X02990748Y02955750D02*
D03*
X03102750Y02955750D02*
D03*
X03196050Y02826750D02*
D03*
X03217450Y02820300D02*
D03*
X03119750Y02955750D02*
D03*
X03132450D02*
D03*
X03185250D02*
D03*
X03219250D02*
D03*
Y02971750D02*
D03*
X03192250Y02998500D02*
D03*
Y02988500D02*
D03*
X03153250D02*
D03*
Y02998500D02*
D03*
X03057250Y03158750D02*
D03*
X03048250Y03147750D02*
D03*
X03086750Y03148500D02*
D03*
X03154250Y03011500D02*
D03*
X03188250D02*
D03*
X03158250Y03040250D02*
D03*
X03083250Y03050250D02*
D03*
X03103250Y03055250D02*
D03*
X03042500Y02997750D02*
D03*
X03058500D02*
D03*
X03074500D02*
D03*
Y03032250D02*
D03*
X03034250Y03040500D02*
D03*
X03103250Y03065250D02*
D03*
X03047000Y03074750D02*
D03*
X03043250Y03065500D02*
D03*
X03082250Y03124250D02*
D03*
X03082250Y03115000D02*
D03*
X03113250Y03105250D02*
D03*
X03086750Y03132500D02*
D03*
X03168250Y03095250D02*
D03*
X03228000Y03137250D02*
D03*
X03196000Y03125250D02*
D03*
Y03091250D02*
D03*
X03130750Y02751250D02*
D03*
X03208750Y02795500D02*
D03*
X03174250Y02785250D02*
D03*
X03160250Y02795500D02*
D03*
Y02804250D02*
D03*
X03186750Y02795500D02*
D03*
X03214750Y02746000D02*
D03*
X03175500Y02759250D02*
D03*
X03133500Y02765000D02*
D03*
X03149500D02*
D03*
X03205500Y02770000D02*
D03*
X03171500Y02749250D02*
D03*
X03210750Y02754000D02*
D03*
Y02738000D02*
D03*
Y02722000D02*
D03*
Y02706000D02*
D03*
X02898250Y02759000D02*
D03*
Y02770000D02*
D03*
X02958000Y02735000D02*
D03*
X02963400Y02740400D02*
D03*
X02952600D02*
D03*
Y02729600D02*
D03*
X02963400D02*
D03*
X02935750Y02614250D02*
D03*
X02925750D02*
D03*
X02930750Y02608000D02*
D03*
Y02620500D02*
D03*
X03152500Y02735000D02*
D03*
X03157900Y02740400D02*
D03*
X03147100D02*
D03*
Y02729600D02*
D03*
X03157900D02*
D03*
X03130250Y02614250D02*
D03*
X03120250D02*
D03*
X03125250Y02608000D02*
D03*
Y02620500D02*
D03*
D118*
X02579750Y02481750D02*
D03*
X02629750D02*
D03*
X02679750D02*
D03*
X02579750Y02531750D02*
D03*
X02629750D02*
D03*
X02679750D02*
D03*
X02579750Y02581750D02*
D03*
X02679750D02*
D03*
X02579750Y02631750D02*
D03*
X02629750D02*
D03*
X02679750D02*
D03*
X02579750Y02681750D02*
D03*
X02629750D02*
D03*
X02679750D02*
D03*
X02579750Y02731750D02*
D03*
X02629750D02*
D03*
X02679750D02*
D03*
X02579750Y02781750D02*
D03*
X02629750D02*
D03*
X02679750D02*
D03*
X02579750Y02831750D02*
D03*
X02629750D02*
D03*
X02679750D02*
D03*
X02579750Y02881750D02*
D03*
X02629750D02*
D03*
X02679750D02*
D03*
X02579750Y02931750D02*
D03*
X02629750D02*
D03*
X02679750D02*
D03*
X02579750Y02981750D02*
D03*
X02629750D02*
D03*
X02679750D02*
D03*
X02579750Y03031750D02*
D03*
X02629750D02*
D03*
X02679750D02*
D03*
X02579750Y03081750D02*
D03*
X02629750D02*
D03*
X02679750D02*
D03*
X02579750Y03131750D02*
D03*
X02629750D02*
D03*
X02679750D02*
D03*
Y03181750D02*
D03*
X02629750D02*
D03*
X02579750D02*
D03*
Y03231750D02*
D03*
X03229750Y03281750D02*
D03*
X02579750D02*
D03*
X02629750D02*
D03*
X02679750D02*
D03*
X02729750D02*
D03*
X02779750D02*
D03*
X02829750D02*
D03*
X02879750D02*
D03*
X02929750D02*
D03*
X02979750D02*
D03*
X03029750D02*
D03*
X03079750D02*
D03*
X03129750D02*
D03*
X03179750D02*
D03*
D125*
X02930750Y02614250D02*
D03*
X03125250Y02614250D02*
D03*
D126*
X02898250Y02764500D02*
D03*
X03092750D02*
D03*
D127*
X02957875Y02735000D02*
D03*
X03152375Y02735000D02*
D03*
M02*
