G04*
G04 #@! TF.GenerationSoftware,Altium Limited,Altium Designer,21.8.1 (53)*
G04*
G04 Layer_Physical_Order=3*
G04 Layer_Color=1930808*
%FSAX44Y44*%
%MOMM*%
G71*
G04*
G04 #@! TF.SameCoordinates,6FBE8801-07E3-48D7-8021-9236AF54F44E*
G04*
G04*
G04 #@! TF.FilePolarity,Negative*
G04*
G01*
G75*
%ADD97C,0.7000*%
%ADD103C,1.0000*%
%ADD105C,0.3000*%
%ADD119C,0.1000*%
%ADD120C,0.8000*%
%ADD121C,2.0000*%
%ADD122C,1.2000*%
%ADD123C,1.5000*%
%ADD124C,0.8000*%
G36*
X03239250Y02897750D02*
X03119250D01*
X03110500Y02889000D01*
X03078250D01*
X03074750Y02885500D01*
X03074750Y02457250D01*
X03044750D01*
X03044750Y02894250D01*
X03041250Y02897750D01*
X02924750D01*
X02916000Y02889000D01*
X02889250D01*
X02880250Y02880000D01*
Y02602000D01*
X02904750Y02577500D01*
Y02457250D01*
X02708750D01*
Y02715750D01*
X02850250D01*
Y02883250D01*
X02877000Y02910000D01*
X02909750D01*
X02912250Y02912500D01*
Y02919000D01*
X02921000Y02927750D01*
X03070000D01*
X03078750Y02919000D01*
Y02912500D01*
X03081250Y02910000D01*
X03104250D01*
X03106750Y02912500D01*
Y02919000D01*
X03115500Y02927750D01*
X03239250D01*
Y02897750D01*
D02*
G37*
D97*
X03199250Y03181500D02*
D03*
X03229250D02*
D03*
X02725000Y02965227D02*
D03*
Y02989350D02*
D03*
Y03013473D02*
D03*
Y03037596D02*
D03*
Y03061719D02*
D03*
Y03085842D02*
D03*
Y03109966D02*
D03*
Y03134088D02*
D03*
Y03158212D02*
D03*
Y03182335D02*
D03*
X03229500Y02955750D02*
D03*
X03153250Y02977500D02*
D03*
X03111250Y02955750D02*
D03*
X02859000Y02913250D02*
D03*
X02925250Y02955750D02*
D03*
X02912250D02*
D03*
X03078250Y02843750D02*
D03*
X03109000Y02847500D02*
D03*
X03220500Y02805500D02*
D03*
Y02780500D02*
D03*
Y02763750D02*
D03*
Y02843000D02*
D03*
Y02830500D02*
D03*
X03026000Y02763750D02*
D03*
Y02780500D02*
D03*
Y02805500D02*
D03*
X02914500Y02847500D02*
D03*
X02883750Y02843750D02*
D03*
X03026000Y02830500D02*
D03*
Y02843000D02*
D03*
X02917750Y02839000D02*
D03*
X03112250D02*
D03*
X03175250Y02668000D02*
D03*
X03186750D02*
D03*
X03221250D02*
D03*
X03209750D02*
D03*
X03198250D02*
D03*
X02980750D02*
D03*
X02992250D02*
D03*
X03026750D02*
D03*
X03015250D02*
D03*
X03003750D02*
D03*
X03198250Y02609000D02*
D03*
X03209750D02*
D03*
X03221250D02*
D03*
X03186750D02*
D03*
X03175250D02*
D03*
X03175250Y02638500D02*
D03*
X03186750D02*
D03*
X03221250D02*
D03*
X03209750D02*
D03*
X03198250D02*
D03*
X03175250Y02623750D02*
D03*
X03221250D02*
D03*
X03026750D02*
D03*
X02980750D02*
D03*
X03003750Y02638500D02*
D03*
X03015250D02*
D03*
X03026750D02*
D03*
X02992250D02*
D03*
X02980750D02*
D03*
X02980750Y02609000D02*
D03*
X02992250D02*
D03*
X03026750D02*
D03*
X03015250D02*
D03*
X03003750D02*
D03*
X03049875Y03138375D02*
D03*
X02912750Y02722000D02*
D03*
X02883750D02*
D03*
X03107250Y02722000D02*
D03*
X03078250D02*
D03*
X02889250Y02819000D02*
D03*
X03083750D02*
D03*
X02883750Y02770000D02*
D03*
Y02759000D02*
D03*
X02911250Y02770000D02*
D03*
X03105750D02*
D03*
X03078250Y02759000D02*
D03*
Y02770000D02*
D03*
X02832500Y02843000D02*
D03*
X02736500Y02836000D02*
D03*
Y02824500D02*
D03*
X02747500Y02860000D02*
D03*
Y02850000D02*
D03*
X02782250Y02878750D02*
D03*
Y02904500D02*
D03*
X02756000Y02873500D02*
D03*
Y02904500D02*
D03*
X02725000Y02819250D02*
D03*
Y02842500D02*
D03*
Y02873500D02*
D03*
Y02904500D02*
D03*
Y02935500D02*
D03*
X02756000D02*
D03*
X02787000Y02924250D02*
D03*
Y02935500D02*
D03*
X02824000D02*
D03*
Y02924250D02*
D03*
X02856000D02*
D03*
Y02935500D02*
D03*
X02822750Y02786750D02*
D03*
X03108750Y02758500D02*
D03*
X03092750Y02759000D02*
D03*
Y02770000D02*
D03*
X02936250Y02751250D02*
D03*
X02947000Y02765000D02*
D03*
X02942750Y02757250D02*
D03*
X02925250Y02727500D02*
D03*
X02931250Y02732500D02*
D03*
X02955000Y02765000D02*
D03*
X03020250Y02746000D02*
D03*
X02977000Y02749250D02*
D03*
X03016250Y02706000D02*
D03*
Y02722000D02*
D03*
Y02738000D02*
D03*
Y02754000D02*
D03*
X02979750Y02785250D02*
D03*
X02965750Y02804250D02*
D03*
Y02795500D02*
D03*
X02926500Y02807250D02*
D03*
X02923000Y02798500D02*
D03*
X02898250D02*
D03*
X02904650Y02843750D02*
D03*
X03099150D02*
D03*
X03125750Y02732500D02*
D03*
X03119750Y02727500D02*
D03*
X03121000Y02807250D02*
D03*
X03137250Y02757250D02*
D03*
X03141500Y02765000D02*
D03*
X02914250Y02758500D02*
D03*
X03117500Y02798500D02*
D03*
X03092750D02*
D03*
X02992250Y02795500D02*
D03*
X03014250D02*
D03*
X03108250Y03009750D02*
D03*
X03170500Y03025500D02*
D03*
X02797750Y02747500D02*
D03*
X03098750Y02987250D02*
D03*
X03143250Y02996000D02*
D03*
X03138250Y02990500D02*
D03*
X03111750Y02980750D02*
D03*
X03068750Y02955750D02*
D03*
X03058748Y02955750D02*
D03*
X03178500Y02971750D02*
D03*
X03105250Y02975250D02*
D03*
X03141500Y02969750D02*
D03*
X03123250Y02975250D02*
D03*
X03111750Y02969750D02*
D03*
X03170600Y02964250D02*
D03*
X03118250D02*
D03*
X03101000Y03025500D02*
D03*
X03118250Y03041750D02*
D03*
X03148250Y03040250D02*
D03*
X03020000Y02997750D02*
D03*
X03086000Y03034500D02*
D03*
X03108250Y03020250D02*
D03*
X02763500Y02997750D02*
D03*
X02859000Y03006750D02*
D03*
X02821150Y02994500D02*
D03*
X02808350Y03019000D02*
D03*
X02917500Y02997750D02*
D03*
X02738500Y03044750D02*
D03*
X02788500D02*
D03*
X02850000Y03069750D02*
D03*
X02958500Y03044750D02*
D03*
X03020000Y03069750D02*
D03*
X02833850Y03048500D02*
D03*
X03003850D02*
D03*
X02862750Y03100750D02*
D03*
X02912450Y03126500D02*
D03*
X03012000Y03109750D02*
D03*
X02787500D02*
D03*
X02984750Y03090750D02*
D03*
X02814750D02*
D03*
X02872500Y02975000D02*
D03*
X03001550Y02826750D02*
D03*
X02990748Y02955750D02*
D03*
X03196050Y02826750D02*
D03*
X03119750Y02955750D02*
D03*
X03185250D02*
D03*
X03192250Y02998500D02*
D03*
Y02988500D02*
D03*
X03057250Y03158750D02*
D03*
X03086750Y03148500D02*
D03*
X03188250Y03011500D02*
D03*
X03158250Y03040250D02*
D03*
X03083250Y03050250D02*
D03*
X03103250Y03055250D02*
D03*
X03074500Y02997750D02*
D03*
Y03032250D02*
D03*
X03034250Y03040500D02*
D03*
X03103250Y03065250D02*
D03*
X03047000Y03074750D02*
D03*
X03043250Y03065500D02*
D03*
X03082250Y03115000D02*
D03*
X03113250Y03105250D02*
D03*
X03168250Y03095250D02*
D03*
X03196000Y03125250D02*
D03*
X03130750Y02751250D02*
D03*
X03208750Y02795500D02*
D03*
X03174250Y02785250D02*
D03*
X03160250Y02795500D02*
D03*
Y02804250D02*
D03*
X03186750Y02795500D02*
D03*
X03214750Y02746000D02*
D03*
X03149500Y02765000D02*
D03*
X03171500Y02749250D02*
D03*
X03210750Y02754000D02*
D03*
Y02738000D02*
D03*
Y02722000D02*
D03*
Y02706000D02*
D03*
X02898250Y02759000D02*
D03*
Y02770000D02*
D03*
X02958000Y02735000D02*
D03*
X02963400Y02740400D02*
D03*
X02952600D02*
D03*
Y02729600D02*
D03*
X02963400D02*
D03*
X02935750Y02614250D02*
D03*
X02925750D02*
D03*
X02930750Y02608000D02*
D03*
Y02620500D02*
D03*
X03152500Y02735000D02*
D03*
X03157900Y02740400D02*
D03*
X03147100D02*
D03*
Y02729600D02*
D03*
X03157900D02*
D03*
X03130250Y02614250D02*
D03*
X03120250D02*
D03*
X03125250Y02608000D02*
D03*
Y02620500D02*
D03*
D103*
X02785000Y02714250D02*
Y02758500D01*
X02713250D02*
X02785000D01*
X02713250Y03192500D02*
X03238500D01*
X02713250Y02758500D02*
X02713250Y03192500D01*
D105*
X02903250Y02706250D02*
Y02750250D01*
X02876000Y02706250D02*
X02903250D01*
X02876000Y02685250D02*
Y02706250D01*
Y02685250D02*
X02903250D01*
X03070500Y02685250D02*
X03097750D01*
X03070500D02*
Y02706250D01*
X03097750D01*
Y02750250D01*
X02763500Y02991250D02*
Y03015000D01*
X02739500D02*
X02763500D01*
Y02991250D02*
X02788500D01*
X02739500Y03015000D02*
Y03077500D01*
X02788500Y02991250D02*
Y03077500D01*
X02739500D02*
X02788500D01*
X02909500Y02991250D02*
X02958500D01*
X02909500D02*
Y03077500D01*
X02958500D01*
Y02991250D02*
Y03077500D01*
X03097750Y02750250D02*
X03119750D01*
Y02685250D02*
Y02750250D01*
X03097750Y02685250D02*
X03119750D01*
X02903250Y02685250D02*
X02925250D01*
Y02750250D01*
X02903250D02*
X02925250D01*
D119*
X03110500Y02889000D02*
X03119250Y02897750D01*
X02880250Y02880000D02*
X02889250Y02889000D01*
X02916000D01*
X03041250Y02897750D02*
X03044750Y02894250D01*
X02912250Y02919000D02*
X02921000Y02927750D01*
X02912250Y02912500D02*
Y02919000D01*
X02909750Y02910000D02*
X02912250Y02912500D01*
X02877000Y02910000D02*
X02909750D01*
X02916000Y02889000D02*
X02924750Y02897750D01*
X03041250D01*
X03078250Y02889000D02*
X03110500D01*
X03074750Y02885500D02*
X03078250Y02889000D01*
X03081250Y02910000D02*
X03104250D01*
X03070000Y02927750D02*
X03078750Y02919000D01*
Y02912500D02*
Y02919000D01*
Y02912500D02*
X03081250Y02910000D01*
X03104250D02*
X03106750Y02912500D01*
Y02919000D01*
X03115500Y02927750D01*
X03119250Y02897750D02*
X03239250D01*
X02921000Y02927750D02*
X03070000D01*
X03115500D02*
X03239250D01*
Y02897750D02*
Y02927750D01*
X02862500Y02895500D02*
X02877000Y02910000D01*
X02850250Y02586500D02*
X02874750Y02562000D01*
X02880250Y02602000D02*
X02904750Y02577500D01*
X02880250Y02602000D02*
Y02880000D01*
X02850250Y02883250D02*
X02862500Y02895500D01*
X02850250Y02586500D02*
Y02883250D01*
X03044750Y02894250D02*
X03044750Y02457250D01*
X03074750Y02885500D02*
X03074750Y02457250D01*
X02874750D02*
X02904750D01*
X03044750D02*
X03074750D01*
X02874750D02*
Y02562000D01*
X02904750Y02457250D02*
Y02577500D01*
X02850500Y02680750D02*
Y02715750D01*
X02751000Y02680750D02*
X02850500D01*
X02743750Y02673500D02*
X02751000Y02680750D01*
X02708750Y02715750D02*
X02850500D01*
X02743750Y02457250D02*
Y02673500D01*
X02708750Y02457250D02*
Y02715750D01*
Y02457250D02*
X02743750D01*
D120*
X02560750Y02456750D02*
X03238750D01*
Y03325750D01*
X02560750D02*
X03238750D01*
X02560750Y02456750D02*
Y03325750D01*
D121*
X03129350Y03220750D02*
D03*
X02959350D02*
D03*
X03010150D02*
D03*
X02619350D02*
D03*
X02789350D02*
D03*
X02840150D02*
D03*
X02670150Y02561750D02*
D03*
X02840150D02*
D03*
X02789350D02*
D03*
X02959350D02*
D03*
X03010150D02*
D03*
X03129350D02*
D03*
X03180150D02*
D03*
D122*
X02805500Y02901350D02*
D03*
Y02926750D02*
D03*
X02887050Y03174850D02*
D03*
X02912450D02*
D03*
Y03098650D02*
D03*
X02887050D02*
D03*
D123*
X03158800Y03151750D02*
D03*
X03133400D02*
D03*
X03184200D02*
D03*
X03218500Y03064750D02*
D03*
Y03090150D02*
D03*
Y03013950D02*
D03*
D124*
X02629750Y02481750D02*
D03*
X02579750Y02531750D02*
D03*
X02679750D02*
D03*
X02579750Y02631750D02*
D03*
X02679750D02*
D03*
X02629750Y02681750D02*
D03*
X02579750Y02731750D02*
D03*
X02679750D02*
D03*
X02629750Y02781750D02*
D03*
X02579750Y02831750D02*
D03*
X02679750D02*
D03*
X02629750Y02881750D02*
D03*
X02579750Y02931750D02*
D03*
X02679750D02*
D03*
X02629750Y02981750D02*
D03*
X02579750Y03031750D02*
D03*
X02679750D02*
D03*
X02629750Y03081750D02*
D03*
X02579750Y03131750D02*
D03*
X02679750D02*
D03*
X02629750Y03181750D02*
D03*
X02579750Y03231750D02*
D03*
X03229750Y03281750D02*
D03*
X02629750D02*
D03*
X02729750D02*
D03*
X02829750D02*
D03*
X02929750D02*
D03*
X03029750D02*
D03*
X03129750D02*
D03*
M02*
