G04*
G04 #@! TF.GenerationSoftware,Altium Limited,Altium Designer,21.8.1 (53)*
G04*
G04 Layer_Physical_Order=1*
G04 Layer_Color=255*
%FSAX44Y44*%
%MOMM*%
G71*
G04*
G04 #@! TF.SameCoordinates,6FBE8801-07E3-48D7-8021-9236AF54F44E*
G04*
G04*
G04 #@! TF.FilePolarity,Positive*
G04*
G01*
G75*
%ADD10C,0.1500*%
%ADD11C,0.2500*%
%ADD12C,0.4000*%
G04:AMPARAMS|DCode=25|XSize=0.45mm|YSize=1.4mm|CornerRadius=0.0675mm|HoleSize=0mm|Usage=FLASHONLY|Rotation=180.000|XOffset=0mm|YOffset=0mm|HoleType=Round|Shape=RoundedRectangle|*
%AMROUNDEDRECTD25*
21,1,0.4500,1.2650,0,0,180.0*
21,1,0.3150,1.4000,0,0,180.0*
1,1,0.1350,-0.1575,0.6325*
1,1,0.1350,0.1575,0.6325*
1,1,0.1350,0.1575,-0.6325*
1,1,0.1350,-0.1575,-0.6325*
%
%ADD25ROUNDEDRECTD25*%
G04:AMPARAMS|DCode=26|XSize=1.98mm|YSize=1.88mm|CornerRadius=0.047mm|HoleSize=0mm|Usage=FLASHONLY|Rotation=180.000|XOffset=0mm|YOffset=0mm|HoleType=Round|Shape=RoundedRectangle|*
%AMROUNDEDRECTD26*
21,1,1.9800,1.7860,0,0,180.0*
21,1,1.8860,1.8800,0,0,180.0*
1,1,0.0940,-0.9430,0.8930*
1,1,0.0940,0.9430,0.8930*
1,1,0.0940,0.9430,-0.8930*
1,1,0.0940,-0.9430,-0.8930*
%
%ADD26ROUNDEDRECTD26*%
G04:AMPARAMS|DCode=27|XSize=0.95mm|YSize=0.8mm|CornerRadius=0.16mm|HoleSize=0mm|Usage=FLASHONLY|Rotation=90.000|XOffset=0mm|YOffset=0mm|HoleType=Round|Shape=RoundedRectangle|*
%AMROUNDEDRECTD27*
21,1,0.9500,0.4800,0,0,90.0*
21,1,0.6300,0.8000,0,0,90.0*
1,1,0.3200,0.2400,0.3150*
1,1,0.3200,0.2400,-0.3150*
1,1,0.3200,-0.2400,-0.3150*
1,1,0.3200,-0.2400,0.3150*
%
%ADD27ROUNDEDRECTD27*%
G04:AMPARAMS|DCode=28|XSize=0.95mm|YSize=0.8mm|CornerRadius=0.16mm|HoleSize=0mm|Usage=FLASHONLY|Rotation=0.000|XOffset=0mm|YOffset=0mm|HoleType=Round|Shape=RoundedRectangle|*
%AMROUNDEDRECTD28*
21,1,0.9500,0.4800,0,0,0.0*
21,1,0.6300,0.8000,0,0,0.0*
1,1,0.3200,0.3150,-0.2400*
1,1,0.3200,-0.3150,-0.2400*
1,1,0.3200,-0.3150,0.2400*
1,1,0.3200,0.3150,0.2400*
%
%ADD28ROUNDEDRECTD28*%
G04:AMPARAMS|DCode=29|XSize=0.59mm|YSize=0.45mm|CornerRadius=0.0225mm|HoleSize=0mm|Usage=FLASHONLY|Rotation=180.000|XOffset=0mm|YOffset=0mm|HoleType=Round|Shape=RoundedRectangle|*
%AMROUNDEDRECTD29*
21,1,0.5900,0.4050,0,0,180.0*
21,1,0.5450,0.4500,0,0,180.0*
1,1,0.0450,-0.2725,0.2025*
1,1,0.0450,0.2725,0.2025*
1,1,0.0450,0.2725,-0.2025*
1,1,0.0450,-0.2725,-0.2025*
%
%ADD29ROUNDEDRECTD29*%
G04:AMPARAMS|DCode=30|XSize=1.8mm|YSize=1.15mm|CornerRadius=0.115mm|HoleSize=0mm|Usage=FLASHONLY|Rotation=180.000|XOffset=0mm|YOffset=0mm|HoleType=Round|Shape=RoundedRectangle|*
%AMROUNDEDRECTD30*
21,1,1.8000,0.9200,0,0,180.0*
21,1,1.5700,1.1500,0,0,180.0*
1,1,0.2300,-0.7850,0.4600*
1,1,0.2300,0.7850,0.4600*
1,1,0.2300,0.7850,-0.4600*
1,1,0.2300,-0.7850,-0.4600*
%
%ADD30ROUNDEDRECTD30*%
G04:AMPARAMS|DCode=31|XSize=0.7mm|YSize=1mm|CornerRadius=0.105mm|HoleSize=0mm|Usage=FLASHONLY|Rotation=270.000|XOffset=0mm|YOffset=0mm|HoleType=Round|Shape=RoundedRectangle|*
%AMROUNDEDRECTD31*
21,1,0.7000,0.7900,0,0,270.0*
21,1,0.4900,1.0000,0,0,270.0*
1,1,0.2100,-0.3950,-0.2450*
1,1,0.2100,-0.3950,0.2450*
1,1,0.2100,0.3950,0.2450*
1,1,0.2100,0.3950,-0.2450*
%
%ADD31ROUNDEDRECTD31*%
G04:AMPARAMS|DCode=32|XSize=1.8mm|YSize=1.15mm|CornerRadius=0.115mm|HoleSize=0mm|Usage=FLASHONLY|Rotation=270.000|XOffset=0mm|YOffset=0mm|HoleType=Round|Shape=RoundedRectangle|*
%AMROUNDEDRECTD32*
21,1,1.8000,0.9200,0,0,270.0*
21,1,1.5700,1.1500,0,0,270.0*
1,1,0.2300,-0.4600,-0.7850*
1,1,0.2300,-0.4600,0.7850*
1,1,0.2300,0.4600,0.7850*
1,1,0.2300,0.4600,-0.7850*
%
%ADD32ROUNDEDRECTD32*%
G04:AMPARAMS|DCode=33|XSize=1.4mm|YSize=0.95mm|CornerRadius=0.19mm|HoleSize=0mm|Usage=FLASHONLY|Rotation=180.000|XOffset=0mm|YOffset=0mm|HoleType=Round|Shape=RoundedRectangle|*
%AMROUNDEDRECTD33*
21,1,1.4000,0.5700,0,0,180.0*
21,1,1.0200,0.9500,0,0,180.0*
1,1,0.3800,-0.5100,0.2850*
1,1,0.3800,0.5100,0.2850*
1,1,0.3800,0.5100,-0.2850*
1,1,0.3800,-0.5100,-0.2850*
%
%ADD33ROUNDEDRECTD33*%
G04:AMPARAMS|DCode=34|XSize=1.4mm|YSize=0.95mm|CornerRadius=0.19mm|HoleSize=0mm|Usage=FLASHONLY|Rotation=270.000|XOffset=0mm|YOffset=0mm|HoleType=Round|Shape=RoundedRectangle|*
%AMROUNDEDRECTD34*
21,1,1.4000,0.5700,0,0,270.0*
21,1,1.0200,0.9500,0,0,270.0*
1,1,0.3800,-0.2850,-0.5100*
1,1,0.3800,-0.2850,0.5100*
1,1,0.3800,0.2850,0.5100*
1,1,0.3800,0.2850,-0.5100*
%
%ADD34ROUNDEDRECTD34*%
G04:AMPARAMS|DCode=35|XSize=0.3mm|YSize=1.2mm|CornerRadius=0.0525mm|HoleSize=0mm|Usage=FLASHONLY|Rotation=180.000|XOffset=0mm|YOffset=0mm|HoleType=Round|Shape=RoundedRectangle|*
%AMROUNDEDRECTD35*
21,1,0.3000,1.0950,0,0,180.0*
21,1,0.1950,1.2000,0,0,180.0*
1,1,0.1050,-0.0975,0.5475*
1,1,0.1050,0.0975,0.5475*
1,1,0.1050,0.0975,-0.5475*
1,1,0.1050,-0.0975,-0.5475*
%
%ADD35ROUNDEDRECTD35*%
G04:AMPARAMS|DCode=36|XSize=0.3mm|YSize=1.2mm|CornerRadius=0.0525mm|HoleSize=0mm|Usage=FLASHONLY|Rotation=90.000|XOffset=0mm|YOffset=0mm|HoleType=Round|Shape=RoundedRectangle|*
%AMROUNDEDRECTD36*
21,1,0.3000,1.0950,0,0,90.0*
21,1,0.1950,1.2000,0,0,90.0*
1,1,0.1050,0.5475,0.0975*
1,1,0.1050,0.5475,-0.0975*
1,1,0.1050,-0.5475,-0.0975*
1,1,0.1050,-0.5475,0.0975*
%
%ADD36ROUNDEDRECTD36*%
G04:AMPARAMS|DCode=37|XSize=1.4mm|YSize=1.2mm|CornerRadius=0.06mm|HoleSize=0mm|Usage=FLASHONLY|Rotation=90.000|XOffset=0mm|YOffset=0mm|HoleType=Round|Shape=RoundedRectangle|*
%AMROUNDEDRECTD37*
21,1,1.4000,1.0800,0,0,90.0*
21,1,1.2800,1.2000,0,0,90.0*
1,1,0.1200,0.5400,0.6400*
1,1,0.1200,0.5400,-0.6400*
1,1,0.1200,-0.5400,-0.6400*
1,1,0.1200,-0.5400,0.6400*
%
%ADD37ROUNDEDRECTD37*%
G04:AMPARAMS|DCode=38|XSize=2mm|YSize=2mm|CornerRadius=0.3mm|HoleSize=0mm|Usage=FLASHONLY|Rotation=90.000|XOffset=0mm|YOffset=0mm|HoleType=Round|Shape=RoundedRectangle|*
%AMROUNDEDRECTD38*
21,1,2.0000,1.4000,0,0,90.0*
21,1,1.4000,2.0000,0,0,90.0*
1,1,0.6000,0.7000,0.7000*
1,1,0.6000,0.7000,-0.7000*
1,1,0.6000,-0.7000,-0.7000*
1,1,0.6000,-0.7000,0.7000*
%
%ADD38ROUNDEDRECTD38*%
G04:AMPARAMS|DCode=39|XSize=1mm|YSize=1.9mm|CornerRadius=0.05mm|HoleSize=0mm|Usage=FLASHONLY|Rotation=270.000|XOffset=0mm|YOffset=0mm|HoleType=Round|Shape=RoundedRectangle|*
%AMROUNDEDRECTD39*
21,1,1.0000,1.8000,0,0,270.0*
21,1,0.9000,1.9000,0,0,270.0*
1,1,0.1000,-0.9000,-0.4500*
1,1,0.1000,-0.9000,0.4500*
1,1,0.1000,0.9000,0.4500*
1,1,0.1000,0.9000,-0.4500*
%
%ADD39ROUNDEDRECTD39*%
G04:AMPARAMS|DCode=40|XSize=0.6mm|YSize=1.55mm|CornerRadius=0.09mm|HoleSize=0mm|Usage=FLASHONLY|Rotation=0.000|XOffset=0mm|YOffset=0mm|HoleType=Round|Shape=RoundedRectangle|*
%AMROUNDEDRECTD40*
21,1,0.6000,1.3700,0,0,0.0*
21,1,0.4200,1.5500,0,0,0.0*
1,1,0.1800,0.2100,-0.6850*
1,1,0.1800,-0.2100,-0.6850*
1,1,0.1800,-0.2100,0.6850*
1,1,0.1800,0.2100,0.6850*
%
%ADD40ROUNDEDRECTD40*%
G04:AMPARAMS|DCode=41|XSize=0.8mm|YSize=0.9mm|CornerRadius=0.12mm|HoleSize=0mm|Usage=FLASHONLY|Rotation=0.000|XOffset=0mm|YOffset=0mm|HoleType=Round|Shape=RoundedRectangle|*
%AMROUNDEDRECTD41*
21,1,0.8000,0.6600,0,0,0.0*
21,1,0.5600,0.9000,0,0,0.0*
1,1,0.2400,0.2800,-0.3300*
1,1,0.2400,-0.2800,-0.3300*
1,1,0.2400,-0.2800,0.3300*
1,1,0.2400,0.2800,0.3300*
%
%ADD41ROUNDEDRECTD41*%
G04:AMPARAMS|DCode=42|XSize=1.85mm|YSize=3.4mm|CornerRadius=0.0463mm|HoleSize=0mm|Usage=FLASHONLY|Rotation=90.000|XOffset=0mm|YOffset=0mm|HoleType=Round|Shape=RoundedRectangle|*
%AMROUNDEDRECTD42*
21,1,1.8500,3.3075,0,0,90.0*
21,1,1.7575,3.4000,0,0,90.0*
1,1,0.0925,1.6538,0.8788*
1,1,0.0925,1.6538,-0.8788*
1,1,0.0925,-1.6538,-0.8788*
1,1,0.0925,-1.6538,0.8788*
%
%ADD42ROUNDEDRECTD42*%
G04:AMPARAMS|DCode=43|XSize=0.8mm|YSize=3.4mm|CornerRadius=0.02mm|HoleSize=0mm|Usage=FLASHONLY|Rotation=90.000|XOffset=0mm|YOffset=0mm|HoleType=Round|Shape=RoundedRectangle|*
%AMROUNDEDRECTD43*
21,1,0.8000,3.3600,0,0,90.0*
21,1,0.7600,3.4000,0,0,90.0*
1,1,0.0400,1.6800,0.3800*
1,1,0.0400,1.6800,-0.3800*
1,1,0.0400,-1.6800,-0.3800*
1,1,0.0400,-1.6800,0.3800*
%
%ADD43ROUNDEDRECTD43*%
G04:AMPARAMS|DCode=44|XSize=0.8mm|YSize=1.2mm|CornerRadius=0.04mm|HoleSize=0mm|Usage=FLASHONLY|Rotation=180.000|XOffset=0mm|YOffset=0mm|HoleType=Round|Shape=RoundedRectangle|*
%AMROUNDEDRECTD44*
21,1,0.8000,1.1200,0,0,180.0*
21,1,0.7200,1.2000,0,0,180.0*
1,1,0.0800,-0.3600,0.5600*
1,1,0.0800,0.3600,0.5600*
1,1,0.0800,0.3600,-0.5600*
1,1,0.0800,-0.3600,-0.5600*
%
%ADD44ROUNDEDRECTD44*%
G04:AMPARAMS|DCode=45|XSize=2mm|YSize=2mm|CornerRadius=0.3mm|HoleSize=0mm|Usage=FLASHONLY|Rotation=180.000|XOffset=0mm|YOffset=0mm|HoleType=Round|Shape=RoundedRectangle|*
%AMROUNDEDRECTD45*
21,1,2.0000,1.4000,0,0,180.0*
21,1,1.4000,2.0000,0,0,180.0*
1,1,0.6000,-0.7000,0.7000*
1,1,0.6000,0.7000,0.7000*
1,1,0.6000,0.7000,-0.7000*
1,1,0.6000,-0.7000,-0.7000*
%
%ADD45ROUNDEDRECTD45*%
G04:AMPARAMS|DCode=46|XSize=0.85mm|YSize=0.85mm|CornerRadius=0.0425mm|HoleSize=0mm|Usage=FLASHONLY|Rotation=270.000|XOffset=0mm|YOffset=0mm|HoleType=Round|Shape=RoundedRectangle|*
%AMROUNDEDRECTD46*
21,1,0.8500,0.7650,0,0,270.0*
21,1,0.7650,0.8500,0,0,270.0*
1,1,0.0850,-0.3825,-0.3825*
1,1,0.0850,-0.3825,0.3825*
1,1,0.0850,0.3825,0.3825*
1,1,0.0850,0.3825,-0.3825*
%
%ADD46ROUNDEDRECTD46*%
G04:AMPARAMS|DCode=47|XSize=3.3mm|YSize=1.5mm|CornerRadius=0.1125mm|HoleSize=0mm|Usage=FLASHONLY|Rotation=0.000|XOffset=0mm|YOffset=0mm|HoleType=Round|Shape=RoundedRectangle|*
%AMROUNDEDRECTD47*
21,1,3.3000,1.2750,0,0,0.0*
21,1,3.0750,1.5000,0,0,0.0*
1,1,0.2250,1.5375,-0.6375*
1,1,0.2250,-1.5375,-0.6375*
1,1,0.2250,-1.5375,0.6375*
1,1,0.2250,1.5375,0.6375*
%
%ADD47ROUNDEDRECTD47*%
G04:AMPARAMS|DCode=48|XSize=1.2mm|YSize=1.5mm|CornerRadius=0.09mm|HoleSize=0mm|Usage=FLASHONLY|Rotation=0.000|XOffset=0mm|YOffset=0mm|HoleType=Round|Shape=RoundedRectangle|*
%AMROUNDEDRECTD48*
21,1,1.2000,1.3200,0,0,0.0*
21,1,1.0200,1.5000,0,0,0.0*
1,1,0.1800,0.5100,-0.6600*
1,1,0.1800,-0.5100,-0.6600*
1,1,0.1800,-0.5100,0.6600*
1,1,0.1800,0.5100,0.6600*
%
%ADD48ROUNDEDRECTD48*%
G04:AMPARAMS|DCode=49|XSize=0.61mm|YSize=1.52mm|CornerRadius=0.0915mm|HoleSize=0mm|Usage=FLASHONLY|Rotation=0.000|XOffset=0mm|YOffset=0mm|HoleType=Round|Shape=RoundedRectangle|*
%AMROUNDEDRECTD49*
21,1,0.6100,1.3370,0,0,0.0*
21,1,0.4270,1.5200,0,0,0.0*
1,1,0.1830,0.2135,-0.6685*
1,1,0.1830,-0.2135,-0.6685*
1,1,0.1830,-0.2135,0.6685*
1,1,0.1830,0.2135,0.6685*
%
%ADD49ROUNDEDRECTD49*%
G04:AMPARAMS|DCode=50|XSize=0.6mm|YSize=1.65mm|CornerRadius=0.09mm|HoleSize=0mm|Usage=FLASHONLY|Rotation=180.000|XOffset=0mm|YOffset=0mm|HoleType=Round|Shape=RoundedRectangle|*
%AMROUNDEDRECTD50*
21,1,0.6000,1.4700,0,0,180.0*
21,1,0.4200,1.6500,0,0,180.0*
1,1,0.1800,-0.2100,0.7350*
1,1,0.1800,0.2100,0.7350*
1,1,0.1800,0.2100,-0.7350*
1,1,0.1800,-0.2100,-0.7350*
%
%ADD50ROUNDEDRECTD50*%
G04:AMPARAMS|DCode=51|XSize=0.25mm|YSize=0.6mm|CornerRadius=0.0375mm|HoleSize=0mm|Usage=FLASHONLY|Rotation=180.000|XOffset=0mm|YOffset=0mm|HoleType=Round|Shape=RoundedRectangle|*
%AMROUNDEDRECTD51*
21,1,0.2500,0.5250,0,0,180.0*
21,1,0.1750,0.6000,0,0,180.0*
1,1,0.0750,-0.0875,0.2625*
1,1,0.0750,0.0875,0.2625*
1,1,0.0750,0.0875,-0.2625*
1,1,0.0750,-0.0875,-0.2625*
%
%ADD51ROUNDEDRECTD51*%
G04:AMPARAMS|DCode=52|XSize=0.25mm|YSize=0.6mm|CornerRadius=0.0375mm|HoleSize=0mm|Usage=FLASHONLY|Rotation=270.000|XOffset=0mm|YOffset=0mm|HoleType=Round|Shape=RoundedRectangle|*
%AMROUNDEDRECTD52*
21,1,0.2500,0.5250,0,0,270.0*
21,1,0.1750,0.6000,0,0,270.0*
1,1,0.0750,-0.2625,-0.0875*
1,1,0.0750,-0.2625,0.0875*
1,1,0.0750,0.2625,0.0875*
1,1,0.0750,0.2625,-0.0875*
%
%ADD52ROUNDEDRECTD52*%
G04:AMPARAMS|DCode=54|XSize=1.2mm|YSize=1.2mm|CornerRadius=0.06mm|HoleSize=0mm|Usage=FLASHONLY|Rotation=90.000|XOffset=0mm|YOffset=0mm|HoleType=Round|Shape=RoundedRectangle|*
%AMROUNDEDRECTD54*
21,1,1.2000,1.0800,0,0,90.0*
21,1,1.0800,1.2000,0,0,90.0*
1,1,0.1200,0.5400,0.5400*
1,1,0.1200,0.5400,-0.5400*
1,1,0.1200,-0.5400,-0.5400*
1,1,0.1200,-0.5400,0.5400*
%
%ADD54ROUNDEDRECTD54*%
G04:AMPARAMS|DCode=55|XSize=0.31mm|YSize=0.6mm|CornerRadius=0.0465mm|HoleSize=0mm|Usage=FLASHONLY|Rotation=270.000|XOffset=0mm|YOffset=0mm|HoleType=Round|Shape=RoundedRectangle|*
%AMROUNDEDRECTD55*
21,1,0.3100,0.5070,0,0,270.0*
21,1,0.2170,0.6000,0,0,270.0*
1,1,0.0930,-0.2535,-0.1085*
1,1,0.0930,-0.2535,0.1085*
1,1,0.0930,0.2535,0.1085*
1,1,0.0930,0.2535,-0.1085*
%
%ADD55ROUNDEDRECTD55*%
G04:AMPARAMS|DCode=98|XSize=2.6mm|YSize=2.6mm|CornerRadius=0.065mm|HoleSize=0mm|Usage=FLASHONLY|Rotation=180.000|XOffset=0mm|YOffset=0mm|HoleType=Round|Shape=RoundedRectangle|*
%AMROUNDEDRECTD98*
21,1,2.6000,2.4700,0,0,180.0*
21,1,2.4700,2.6000,0,0,180.0*
1,1,0.1300,-1.2350,1.2350*
1,1,0.1300,1.2350,1.2350*
1,1,0.1300,1.2350,-1.2350*
1,1,0.1300,-1.2350,-1.2350*
%
%ADD98ROUNDEDRECTD98*%
G04:AMPARAMS|DCode=99|XSize=1.75mm|YSize=1.5mm|CornerRadius=0.075mm|HoleSize=0mm|Usage=FLASHONLY|Rotation=270.000|XOffset=0mm|YOffset=0mm|HoleType=Round|Shape=RoundedRectangle|*
%AMROUNDEDRECTD99*
21,1,1.7500,1.3500,0,0,270.0*
21,1,1.6000,1.5000,0,0,270.0*
1,1,0.1500,-0.6750,-0.8000*
1,1,0.1500,-0.6750,0.8000*
1,1,0.1500,0.6750,0.8000*
1,1,0.1500,0.6750,-0.8000*
%
%ADD99ROUNDEDRECTD99*%
%ADD100C,0.6000*%
%ADD101C,0.4500*%
%ADD102C,0.5000*%
%ADD103C,1.0000*%
%ADD104C,0.6500*%
%ADD105C,0.3000*%
%ADD106C,0.8000*%
%ADD107R,0.9500X0.7000*%
%ADD108C,2.2000*%
G04:AMPARAMS|DCode=109|XSize=2.2mm|YSize=2.2mm|CornerRadius=0.11mm|HoleSize=0mm|Usage=FLASHONLY|Rotation=180.000|XOffset=0mm|YOffset=0mm|HoleType=Round|Shape=RoundedRectangle|*
%AMROUNDEDRECTD109*
21,1,2.2000,1.9800,0,0,180.0*
21,1,1.9800,2.2000,0,0,180.0*
1,1,0.2200,-0.9900,0.9900*
1,1,0.2200,0.9900,0.9900*
1,1,0.2200,0.9900,-0.9900*
1,1,0.2200,-0.9900,-0.9900*
%
%ADD109ROUNDEDRECTD109*%
G04:AMPARAMS|DCode=110|XSize=1.25mm|YSize=1.25mm|CornerRadius=0.0625mm|HoleSize=0mm|Usage=FLASHONLY|Rotation=270.000|XOffset=0mm|YOffset=0mm|HoleType=Round|Shape=RoundedRectangle|*
%AMROUNDEDRECTD110*
21,1,1.2500,1.1250,0,0,270.0*
21,1,1.1250,1.2500,0,0,270.0*
1,1,0.1250,-0.5625,-0.5625*
1,1,0.1250,-0.5625,0.5625*
1,1,0.1250,0.5625,0.5625*
1,1,0.1250,0.5625,-0.5625*
%
%ADD110ROUNDEDRECTD110*%
%ADD111C,1.2500*%
%ADD112C,1.6000*%
G04:AMPARAMS|DCode=113|XSize=1.6mm|YSize=1.6mm|CornerRadius=0.24mm|HoleSize=0mm|Usage=FLASHONLY|Rotation=180.000|XOffset=0mm|YOffset=0mm|HoleType=Round|Shape=RoundedRectangle|*
%AMROUNDEDRECTD113*
21,1,1.6000,1.1200,0,0,180.0*
21,1,1.1200,1.6000,0,0,180.0*
1,1,0.4800,-0.5600,0.5600*
1,1,0.4800,0.5600,0.5600*
1,1,0.4800,0.5600,-0.5600*
1,1,0.4800,-0.5600,-0.5600*
%
%ADD113ROUNDEDRECTD113*%
G04:AMPARAMS|DCode=114|XSize=1.6mm|YSize=1.6mm|CornerRadius=0.24mm|HoleSize=0mm|Usage=FLASHONLY|Rotation=90.000|XOffset=0mm|YOffset=0mm|HoleType=Round|Shape=RoundedRectangle|*
%AMROUNDEDRECTD114*
21,1,1.6000,1.1200,0,0,90.0*
21,1,1.1200,1.6000,0,0,90.0*
1,1,0.4800,0.5600,0.5600*
1,1,0.4800,0.5600,-0.5600*
1,1,0.4800,-0.5600,-0.5600*
1,1,0.4800,-0.5600,0.5600*
%
%ADD114ROUNDEDRECTD114*%
%ADD115C,1.3000*%
G04:AMPARAMS|DCode=116|XSize=1.3mm|YSize=1.3mm|CornerRadius=0.065mm|HoleSize=0mm|Usage=FLASHONLY|Rotation=0.000|XOffset=0mm|YOffset=0mm|HoleType=Round|Shape=RoundedRectangle|*
%AMROUNDEDRECTD116*
21,1,1.3000,1.1700,0,0,0.0*
21,1,1.1700,1.3000,0,0,0.0*
1,1,0.1300,0.5850,-0.5850*
1,1,0.1300,-0.5850,-0.5850*
1,1,0.1300,-0.5850,0.5850*
1,1,0.1300,0.5850,0.5850*
%
%ADD116ROUNDEDRECTD116*%
%ADD117C,0.6000*%
%ADD118C,0.7000*%
G36*
X03235946Y03284662D02*
X03234676Y03284277D01*
X03233715Y03285715D01*
X03231896Y03286931D01*
X03229750Y03287358D01*
X03227604Y03286931D01*
X03225785Y03285715D01*
X03224569Y03283896D01*
X03224142Y03281750D01*
X03224569Y03279604D01*
X03225785Y03277785D01*
X03227604Y03276569D01*
X03229750Y03276142D01*
X03231896Y03276569D01*
X03233715Y03277785D01*
X03234676Y03279223D01*
X03235946Y03278838D01*
Y03197500D01*
X03072250D01*
X03069750Y03200000D01*
Y03240500D01*
X03067266Y03242984D01*
X02710484D01*
X02707924Y03240424D01*
Y02459554D01*
X02563554D01*
Y03322946D01*
X03235946D01*
Y03284662D01*
D02*
G37*
G36*
X03046000Y03192250D02*
Y03160250D01*
X03043500Y03157750D01*
X02988750D01*
X02986250Y03160250D01*
Y03192250D01*
X02988750Y03194750D01*
X03043500D01*
X03046000Y03192250D01*
D02*
G37*
G36*
X02983250D02*
Y03160250D01*
X02980750Y03157750D01*
X02926000D01*
X02923500Y03160250D01*
Y03192250D01*
X02926000Y03194750D01*
X02980750D01*
X02983250Y03192250D01*
D02*
G37*
G36*
X02876000D02*
Y03160250D01*
X02873500Y03157750D01*
X02818750D01*
X02816250Y03160250D01*
Y03192250D01*
X02818750Y03194750D01*
X02873500D01*
X02876000Y03192250D01*
D02*
G37*
G36*
X02813250D02*
Y03160250D01*
X02810750Y03157750D01*
X02756000D01*
X02753500Y03160250D01*
Y03192250D01*
X02756000Y03194750D01*
X02810750D01*
X02813250Y03192250D01*
D02*
G37*
G36*
X03046000Y03133250D02*
Y03112250D01*
X03043500Y03109750D01*
X02988750D01*
X02986250Y03112250D01*
Y03133250D01*
X02988750Y03135750D01*
X03043500D01*
X03046000Y03133250D01*
D02*
G37*
G36*
X02983250Y03133250D02*
Y03112250D01*
X02980750Y03109750D01*
X02926000D01*
X02923500Y03112250D01*
Y03133250D01*
X02926000Y03135750D01*
X02980750D01*
X02983250Y03133250D01*
D02*
G37*
G36*
X02876000Y03133250D02*
Y03112250D01*
X02873500Y03109750D01*
X02818750D01*
X02816250Y03112250D01*
Y03133250D01*
X02818750Y03135750D01*
X02873500D01*
X02876000Y03133250D01*
D02*
G37*
G36*
X02813250Y03133250D02*
Y03112250D01*
X02810750Y03109750D01*
X02756000D01*
X02753500Y03112250D01*
Y03133250D01*
X02756000Y03135750D01*
X02810750D01*
X02813250Y03133250D01*
D02*
G37*
G36*
X03197500Y03002250D02*
Y02984750D01*
X03195250Y02982500D01*
X03177000D01*
X03175000Y02984500D01*
Y03002500D01*
X03177000Y03004500D01*
X03195250D01*
X03197500Y03002250D01*
D02*
G37*
G36*
X03170500Y03002500D02*
Y02984500D01*
X03168500Y02982500D01*
X03150250D01*
X03148000Y02984750D01*
Y03002250D01*
X03150250Y03004500D01*
X03168500D01*
X03170500Y03002500D01*
D02*
G37*
G36*
X02848750Y02979000D02*
Y02960750D01*
X02846750Y02958750D01*
X02820250D01*
X02818000Y02956500D01*
Y02945250D01*
X02815750Y02943000D01*
X02799000D01*
X02796750Y02945250D01*
Y02979000D01*
X02799000Y02981250D01*
X02846500D01*
X02848750Y02979000D01*
D02*
G37*
G36*
X02853250Y02909250D02*
Y02889000D01*
X02848500Y02884250D01*
Y02853500D01*
X02846000Y02851000D01*
X02815750D01*
X02813250Y02853500D01*
Y02870500D01*
X02810750Y02873000D01*
X02797000D01*
X02794500Y02875500D01*
Y02909250D01*
X02797000Y02911750D01*
X02850750D01*
X02853250Y02909250D01*
D02*
G37*
G36*
X02848750Y02952250D02*
Y02941500D01*
X02850750Y02939500D01*
X02859000D01*
X02861000Y02937500D01*
Y02922250D01*
X02859000Y02920250D01*
X02821500D01*
X02817250Y02916000D01*
X02792750D01*
X02790250Y02913500D01*
Y02875500D01*
X02787750Y02873000D01*
X02770750D01*
X02768250Y02870500D01*
Y02818000D01*
X02765750Y02815500D01*
X02721000D01*
X02718500Y02818000D01*
Y02936250D01*
X02721750Y02939500D01*
X02824750D01*
X02826750Y02941500D01*
Y02952250D01*
X02828750Y02954250D01*
X02846750D01*
X02848750Y02952250D01*
D02*
G37*
G36*
X02809750Y02865750D02*
Y02837250D01*
X02807250Y02834750D01*
X02800500D01*
X02798000Y02832250D01*
Y02811250D01*
X02796500Y02809750D01*
X02773750D01*
X02772250Y02811250D01*
Y02816500D01*
X02773750Y02818000D01*
Y02839000D01*
X02776750Y02842000D01*
Y02865750D01*
X02779250Y02868250D01*
X02807250D01*
X02809750Y02865750D01*
D02*
G37*
G36*
X02813500Y02806250D02*
Y02786250D01*
X02811000Y02783750D01*
X02782250D01*
X02779750Y02781250D01*
Y02760000D01*
X02777250Y02757500D01*
X02739500D01*
X02737000Y02760000D01*
Y02802500D01*
X02739500Y02805000D01*
X02770500D01*
X02773250Y02807750D01*
X02812000D01*
X02813500Y02806250D01*
D02*
G37*
G36*
X03108750Y02773500D02*
Y02755500D01*
X03106750Y02753500D01*
X03077250D01*
X03075250Y02755500D01*
Y02773500D01*
X03077250Y02775500D01*
X03106750D01*
X03108750Y02773500D01*
D02*
G37*
G36*
X02914250D02*
Y02755500D01*
X02912250Y02753500D01*
X02882750D01*
X02880750Y02755500D01*
Y02773500D01*
X02882750Y02775500D01*
X02912250D01*
X02914250Y02773500D01*
D02*
G37*
G36*
X02779750Y02745500D02*
Y02721750D01*
X02777250Y02719250D01*
X02741750D01*
X02739250Y02721750D01*
Y02745500D01*
X02741750Y02748000D01*
X02777250D01*
X02779750Y02745500D01*
D02*
G37*
G36*
X03233500Y02673250D02*
Y02598000D01*
X03231000Y02595500D01*
X03168250D01*
X03165750Y02598000D01*
Y02673250D01*
X03168250Y02675750D01*
X03231000D01*
X03233500Y02673250D01*
D02*
G37*
G36*
X03039000D02*
Y02598000D01*
X03036500Y02595500D01*
X02973750D01*
X02971250Y02598000D01*
Y02673250D01*
X02973750Y02675750D01*
X03036500D01*
X03039000Y02673250D01*
D02*
G37*
G36*
X03133250Y02632000D02*
Y02591500D01*
X03132250Y02590500D01*
X03118250D01*
X03117250Y02591500D01*
Y02632000D01*
X03118250Y02633000D01*
X03132250D01*
X03133250Y02632000D01*
D02*
G37*
G36*
X03114750Y02591500D02*
X03113750Y02590500D01*
X03108250D01*
X03107250Y02591500D01*
Y02641500D01*
X03114750D01*
Y02591500D01*
D02*
G37*
G36*
X02938750Y02632000D02*
Y02591500D01*
X02937750Y02590500D01*
X02923750D01*
X02922750Y02591500D01*
Y02632000D01*
X02923750Y02633000D01*
X02937750D01*
X02938750Y02632000D01*
D02*
G37*
G36*
X02920250Y02591500D02*
X02919250Y02590500D01*
X02913750D01*
X02912750Y02591500D01*
Y02641500D01*
X02920250D01*
Y02591500D01*
D02*
G37*
G36*
X03143250Y02647750D02*
Y02632000D01*
X03144750Y02630500D01*
X03160000D01*
X03161500Y02629000D01*
Y02582000D01*
X03160000Y02580500D01*
X03137250D01*
X03135750Y02582000D01*
Y02634000D01*
X03133000Y02636750D01*
Y02648750D01*
X03142250D01*
X03143250Y02647750D01*
D02*
G37*
G36*
X02948750Y02647750D02*
Y02632000D01*
X02950250Y02630500D01*
X02965500D01*
X02967000Y02629000D01*
Y02582000D01*
X02965500Y02580500D01*
X02942750D01*
X02941250Y02582000D01*
Y02634000D01*
X02938500Y02636750D01*
Y02648750D01*
X02947750D01*
X02948750Y02647750D01*
D02*
G37*
%LPC*%
G36*
X03129750Y03287358D02*
X03127604Y03286931D01*
X03125785Y03285715D01*
X03124569Y03283896D01*
X03124142Y03281750D01*
X03124569Y03279604D01*
X03125785Y03277785D01*
X03127604Y03276569D01*
X03129750Y03276142D01*
X03131896Y03276569D01*
X03133715Y03277785D01*
X03134931Y03279604D01*
X03135358Y03281750D01*
X03134931Y03283896D01*
X03133715Y03285715D01*
X03131896Y03286931D01*
X03129750Y03287358D01*
D02*
G37*
G36*
X03029750D02*
X03027604Y03286931D01*
X03025785Y03285715D01*
X03024569Y03283896D01*
X03024142Y03281750D01*
X03024569Y03279604D01*
X03025785Y03277785D01*
X03027604Y03276569D01*
X03029750Y03276142D01*
X03031896Y03276569D01*
X03033715Y03277785D01*
X03034931Y03279604D01*
X03035358Y03281750D01*
X03034931Y03283896D01*
X03033715Y03285715D01*
X03031896Y03286931D01*
X03029750Y03287358D01*
D02*
G37*
G36*
X02929750D02*
X02927604Y03286931D01*
X02925785Y03285715D01*
X02924569Y03283896D01*
X02924142Y03281750D01*
X02924569Y03279604D01*
X02925785Y03277785D01*
X02927604Y03276569D01*
X02929750Y03276142D01*
X02931896Y03276569D01*
X02933715Y03277785D01*
X02934931Y03279604D01*
X02935358Y03281750D01*
X02934931Y03283896D01*
X02933715Y03285715D01*
X02931896Y03286931D01*
X02929750Y03287358D01*
D02*
G37*
G36*
X02829750D02*
X02827604Y03286931D01*
X02825785Y03285715D01*
X02824569Y03283896D01*
X02824142Y03281750D01*
X02824569Y03279604D01*
X02825785Y03277785D01*
X02827604Y03276569D01*
X02829750Y03276142D01*
X02831896Y03276569D01*
X02833715Y03277785D01*
X02834931Y03279604D01*
X02835358Y03281750D01*
X02834931Y03283896D01*
X02833715Y03285715D01*
X02831896Y03286931D01*
X02829750Y03287358D01*
D02*
G37*
G36*
X02729750D02*
X02727604Y03286931D01*
X02725785Y03285715D01*
X02724569Y03283896D01*
X02724142Y03281750D01*
X02724569Y03279604D01*
X02725785Y03277785D01*
X02727604Y03276569D01*
X02729750Y03276142D01*
X02731896Y03276569D01*
X02733715Y03277785D01*
X02734931Y03279604D01*
X02735358Y03281750D01*
X02734931Y03283896D01*
X02733715Y03285715D01*
X02731896Y03286931D01*
X02729750Y03287358D01*
D02*
G37*
G36*
X02629750D02*
X02627604Y03286931D01*
X02625785Y03285715D01*
X02624569Y03283896D01*
X02624142Y03281750D01*
X02624569Y03279604D01*
X02625785Y03277785D01*
X02627604Y03276569D01*
X02629750Y03276142D01*
X02631896Y03276569D01*
X02633715Y03277785D01*
X02634931Y03279604D01*
X02635358Y03281750D01*
X02634931Y03283896D01*
X02633715Y03285715D01*
X02631896Y03286931D01*
X02629750Y03287358D01*
D02*
G37*
G36*
X02579750Y03237358D02*
X02577604Y03236931D01*
X02575785Y03235715D01*
X02574569Y03233896D01*
X02574142Y03231750D01*
X02574569Y03229604D01*
X02575785Y03227785D01*
X02577604Y03226569D01*
X02579750Y03226142D01*
X02581896Y03226569D01*
X02583715Y03227785D01*
X02584931Y03229604D01*
X02585358Y03231750D01*
X02584931Y03233896D01*
X02583715Y03235715D01*
X02581896Y03236931D01*
X02579750Y03237358D01*
D02*
G37*
G36*
X03130926Y03236750D02*
X03127774D01*
X03124683Y03236135D01*
X03121771Y03234929D01*
X03119151Y03233178D01*
X03116922Y03230949D01*
X03115171Y03228329D01*
X03113965Y03225417D01*
X03113350Y03222326D01*
Y03219174D01*
X03113965Y03216083D01*
X03115171Y03213171D01*
X03116922Y03210551D01*
X03119151Y03208322D01*
X03121771Y03206571D01*
X03124683Y03205365D01*
X03127774Y03204750D01*
X03130926D01*
X03134017Y03205365D01*
X03136929Y03206571D01*
X03139549Y03208322D01*
X03141778Y03210551D01*
X03143529Y03213171D01*
X03144735Y03216083D01*
X03145350Y03219174D01*
Y03222326D01*
X03144735Y03225417D01*
X03143529Y03228329D01*
X03141778Y03230949D01*
X03139549Y03233178D01*
X03136929Y03234929D01*
X03134017Y03236135D01*
X03130926Y03236750D01*
D02*
G37*
G36*
X02620926D02*
X02617774D01*
X02614683Y03236135D01*
X02611771Y03234929D01*
X02609151Y03233178D01*
X02606922Y03230949D01*
X02605171Y03228329D01*
X02603965Y03225417D01*
X02603350Y03222326D01*
Y03219174D01*
X02603965Y03216083D01*
X02605171Y03213171D01*
X02606922Y03210551D01*
X02609151Y03208322D01*
X02611771Y03206571D01*
X02614683Y03205365D01*
X02617774Y03204750D01*
X02620926D01*
X02624017Y03205365D01*
X02626929Y03206571D01*
X02629549Y03208322D01*
X02631778Y03210551D01*
X02633529Y03213171D01*
X02634735Y03216083D01*
X02635350Y03219174D01*
Y03222326D01*
X02634735Y03225417D01*
X02633529Y03228329D01*
X02631778Y03230949D01*
X02629549Y03233178D01*
X02626929Y03234929D01*
X02624017Y03236135D01*
X02620926Y03236750D01*
D02*
G37*
G36*
X02629750Y03187358D02*
X02627604Y03186931D01*
X02625785Y03185715D01*
X02624569Y03183896D01*
X02624142Y03181750D01*
X02624569Y03179604D01*
X02625785Y03177785D01*
X02627604Y03176569D01*
X02629750Y03176142D01*
X02631896Y03176569D01*
X02633715Y03177785D01*
X02634931Y03179604D01*
X02635358Y03181750D01*
X02634931Y03183896D01*
X02633715Y03185715D01*
X02631896Y03186931D01*
X02629750Y03187358D01*
D02*
G37*
G36*
X02679750Y03137358D02*
X02677604Y03136931D01*
X02675785Y03135715D01*
X02674569Y03133896D01*
X02674142Y03131750D01*
X02674569Y03129604D01*
X02675785Y03127785D01*
X02677604Y03126569D01*
X02679750Y03126142D01*
X02681896Y03126569D01*
X02683715Y03127785D01*
X02684931Y03129604D01*
X02685358Y03131750D01*
X02684931Y03133896D01*
X02683715Y03135715D01*
X02681896Y03136931D01*
X02679750Y03137358D01*
D02*
G37*
G36*
X02579750D02*
X02577604Y03136931D01*
X02575785Y03135715D01*
X02574569Y03133896D01*
X02574142Y03131750D01*
X02574569Y03129604D01*
X02575785Y03127785D01*
X02577604Y03126569D01*
X02579750Y03126142D01*
X02581896Y03126569D01*
X02583715Y03127785D01*
X02584931Y03129604D01*
X02585358Y03131750D01*
X02584931Y03133896D01*
X02583715Y03135715D01*
X02581896Y03136931D01*
X02579750Y03137358D01*
D02*
G37*
G36*
X02629750Y03087358D02*
X02627604Y03086931D01*
X02625785Y03085715D01*
X02624569Y03083896D01*
X02624142Y03081750D01*
X02624569Y03079604D01*
X02625785Y03077785D01*
X02627604Y03076569D01*
X02629750Y03076142D01*
X02631896Y03076569D01*
X02633715Y03077785D01*
X02634931Y03079604D01*
X02635358Y03081750D01*
X02634931Y03083896D01*
X02633715Y03085715D01*
X02631896Y03086931D01*
X02629750Y03087358D01*
D02*
G37*
G36*
X02679750Y03037358D02*
X02677604Y03036931D01*
X02675785Y03035715D01*
X02674569Y03033896D01*
X02674142Y03031750D01*
X02674569Y03029604D01*
X02675785Y03027785D01*
X02677604Y03026569D01*
X02679750Y03026142D01*
X02681896Y03026569D01*
X02683715Y03027785D01*
X02684931Y03029604D01*
X02685358Y03031750D01*
X02684931Y03033896D01*
X02683715Y03035715D01*
X02681896Y03036931D01*
X02679750Y03037358D01*
D02*
G37*
G36*
X02579750D02*
X02577604Y03036931D01*
X02575785Y03035715D01*
X02574569Y03033896D01*
X02574142Y03031750D01*
X02574569Y03029604D01*
X02575785Y03027785D01*
X02577604Y03026569D01*
X02579750Y03026142D01*
X02581896Y03026569D01*
X02583715Y03027785D01*
X02584931Y03029604D01*
X02585358Y03031750D01*
X02584931Y03033896D01*
X02583715Y03035715D01*
X02581896Y03036931D01*
X02579750Y03037358D01*
D02*
G37*
G36*
X02629750Y02987358D02*
X02627604Y02986931D01*
X02625785Y02985715D01*
X02624569Y02983896D01*
X02624142Y02981750D01*
X02624569Y02979604D01*
X02625785Y02977785D01*
X02627604Y02976569D01*
X02629750Y02976142D01*
X02631896Y02976569D01*
X02633715Y02977785D01*
X02634931Y02979604D01*
X02635358Y02981750D01*
X02634931Y02983896D01*
X02633715Y02985715D01*
X02631896Y02986931D01*
X02629750Y02987358D01*
D02*
G37*
G36*
X02679750Y02937358D02*
X02677604Y02936931D01*
X02675785Y02935715D01*
X02674569Y02933896D01*
X02674142Y02931750D01*
X02674569Y02929604D01*
X02675785Y02927785D01*
X02677604Y02926569D01*
X02679750Y02926142D01*
X02681896Y02926569D01*
X02683715Y02927785D01*
X02684931Y02929604D01*
X02685358Y02931750D01*
X02684931Y02933896D01*
X02683715Y02935715D01*
X02681896Y02936931D01*
X02679750Y02937358D01*
D02*
G37*
G36*
X02579750D02*
X02577604Y02936931D01*
X02575785Y02935715D01*
X02574569Y02933896D01*
X02574142Y02931750D01*
X02574569Y02929604D01*
X02575785Y02927785D01*
X02577604Y02926569D01*
X02579750Y02926142D01*
X02581896Y02926569D01*
X02583715Y02927785D01*
X02584931Y02929604D01*
X02585358Y02931750D01*
X02584931Y02933896D01*
X02583715Y02935715D01*
X02581896Y02936931D01*
X02579750Y02937358D01*
D02*
G37*
G36*
X02629750Y02887358D02*
X02627604Y02886931D01*
X02625785Y02885715D01*
X02624569Y02883896D01*
X02624142Y02881750D01*
X02624569Y02879604D01*
X02625785Y02877785D01*
X02627604Y02876569D01*
X02629750Y02876142D01*
X02631896Y02876569D01*
X02633715Y02877785D01*
X02634931Y02879604D01*
X02635358Y02881750D01*
X02634931Y02883896D01*
X02633715Y02885715D01*
X02631896Y02886931D01*
X02629750Y02887358D01*
D02*
G37*
G36*
X02679750Y02837358D02*
X02677604Y02836931D01*
X02675785Y02835715D01*
X02674569Y02833896D01*
X02674142Y02831750D01*
X02674569Y02829604D01*
X02675785Y02827785D01*
X02677604Y02826569D01*
X02679750Y02826142D01*
X02681896Y02826569D01*
X02683715Y02827785D01*
X02684931Y02829604D01*
X02685358Y02831750D01*
X02684931Y02833896D01*
X02683715Y02835715D01*
X02681896Y02836931D01*
X02679750Y02837358D01*
D02*
G37*
G36*
X02579750D02*
X02577604Y02836931D01*
X02575785Y02835715D01*
X02574569Y02833896D01*
X02574142Y02831750D01*
X02574569Y02829604D01*
X02575785Y02827785D01*
X02577604Y02826569D01*
X02579750Y02826142D01*
X02581896Y02826569D01*
X02583715Y02827785D01*
X02584931Y02829604D01*
X02585358Y02831750D01*
X02584931Y02833896D01*
X02583715Y02835715D01*
X02581896Y02836931D01*
X02579750Y02837358D01*
D02*
G37*
G36*
X02629750Y02787358D02*
X02627604Y02786931D01*
X02625785Y02785715D01*
X02624569Y02783896D01*
X02624142Y02781750D01*
X02624569Y02779604D01*
X02625785Y02777785D01*
X02627604Y02776569D01*
X02629750Y02776142D01*
X02631896Y02776569D01*
X02633715Y02777785D01*
X02634931Y02779604D01*
X02635358Y02781750D01*
X02634931Y02783896D01*
X02633715Y02785715D01*
X02631896Y02786931D01*
X02629750Y02787358D01*
D02*
G37*
G36*
X02679750Y02737358D02*
X02677604Y02736931D01*
X02675785Y02735715D01*
X02674569Y02733896D01*
X02674142Y02731750D01*
X02674569Y02729604D01*
X02675785Y02727785D01*
X02677604Y02726569D01*
X02679750Y02726142D01*
X02681896Y02726569D01*
X02683715Y02727785D01*
X02684931Y02729604D01*
X02685358Y02731750D01*
X02684931Y02733896D01*
X02683715Y02735715D01*
X02681896Y02736931D01*
X02679750Y02737358D01*
D02*
G37*
G36*
X02579750D02*
X02577604Y02736931D01*
X02575785Y02735715D01*
X02574569Y02733896D01*
X02574142Y02731750D01*
X02574569Y02729604D01*
X02575785Y02727785D01*
X02577604Y02726569D01*
X02579750Y02726142D01*
X02581896Y02726569D01*
X02583715Y02727785D01*
X02584931Y02729604D01*
X02585358Y02731750D01*
X02584931Y02733896D01*
X02583715Y02735715D01*
X02581896Y02736931D01*
X02579750Y02737358D01*
D02*
G37*
G36*
X02629750Y02687358D02*
X02627604Y02686931D01*
X02625785Y02685715D01*
X02624569Y02683896D01*
X02624142Y02681750D01*
X02624569Y02679604D01*
X02625785Y02677785D01*
X02627604Y02676569D01*
X02629750Y02676142D01*
X02631896Y02676569D01*
X02633715Y02677785D01*
X02634931Y02679604D01*
X02635358Y02681750D01*
X02634931Y02683896D01*
X02633715Y02685715D01*
X02631896Y02686931D01*
X02629750Y02687358D01*
D02*
G37*
G36*
X02679750Y02637358D02*
X02677604Y02636931D01*
X02675785Y02635715D01*
X02674569Y02633896D01*
X02674142Y02631750D01*
X02674569Y02629604D01*
X02675785Y02627785D01*
X02677604Y02626569D01*
X02679750Y02626142D01*
X02681896Y02626569D01*
X02683715Y02627785D01*
X02684931Y02629604D01*
X02685358Y02631750D01*
X02684931Y02633896D01*
X02683715Y02635715D01*
X02681896Y02636931D01*
X02679750Y02637358D01*
D02*
G37*
G36*
X02579750D02*
X02577604Y02636931D01*
X02575785Y02635715D01*
X02574569Y02633896D01*
X02574142Y02631750D01*
X02574569Y02629604D01*
X02575785Y02627785D01*
X02577604Y02626569D01*
X02579750Y02626142D01*
X02581896Y02626569D01*
X02583715Y02627785D01*
X02584931Y02629604D01*
X02585358Y02631750D01*
X02584931Y02633896D01*
X02583715Y02635715D01*
X02581896Y02636931D01*
X02579750Y02637358D01*
D02*
G37*
G36*
X02671726Y02577750D02*
X02668574D01*
X02665483Y02577135D01*
X02662571Y02575929D01*
X02659951Y02574178D01*
X02657722Y02571949D01*
X02655971Y02569329D01*
X02654765Y02566417D01*
X02654150Y02563326D01*
Y02560174D01*
X02654765Y02557083D01*
X02655971Y02554171D01*
X02657722Y02551551D01*
X02659951Y02549322D01*
X02662571Y02547571D01*
X02665483Y02546365D01*
X02668574Y02545750D01*
X02671726D01*
X02674817Y02546365D01*
X02677729Y02547571D01*
X02680349Y02549322D01*
X02682578Y02551551D01*
X02684329Y02554171D01*
X02685535Y02557083D01*
X02686150Y02560174D01*
Y02563326D01*
X02685535Y02566417D01*
X02684329Y02569329D01*
X02682578Y02571949D01*
X02680349Y02574178D01*
X02677729Y02575929D01*
X02674817Y02577135D01*
X02671726Y02577750D01*
D02*
G37*
G36*
X02679750Y02537358D02*
X02677604Y02536931D01*
X02675785Y02535715D01*
X02674569Y02533896D01*
X02674142Y02531750D01*
X02674569Y02529604D01*
X02675785Y02527785D01*
X02677604Y02526569D01*
X02679750Y02526142D01*
X02681896Y02526569D01*
X02683715Y02527785D01*
X02684931Y02529604D01*
X02685358Y02531750D01*
X02684931Y02533896D01*
X02683715Y02535715D01*
X02681896Y02536931D01*
X02679750Y02537358D01*
D02*
G37*
G36*
X02579750D02*
X02577604Y02536931D01*
X02575785Y02535715D01*
X02574569Y02533896D01*
X02574142Y02531750D01*
X02574569Y02529604D01*
X02575785Y02527785D01*
X02577604Y02526569D01*
X02579750Y02526142D01*
X02581896Y02526569D01*
X02583715Y02527785D01*
X02584931Y02529604D01*
X02585358Y02531750D01*
X02584931Y02533896D01*
X02583715Y02535715D01*
X02581896Y02536931D01*
X02579750Y02537358D01*
D02*
G37*
G36*
X02629750Y02487358D02*
X02627604Y02486931D01*
X02625785Y02485715D01*
X02624569Y02483896D01*
X02624142Y02481750D01*
X02624569Y02479604D01*
X02625785Y02477785D01*
X02627604Y02476569D01*
X02629750Y02476142D01*
X02631896Y02476569D01*
X02633715Y02477785D01*
X02634931Y02479604D01*
X02635358Y02481750D01*
X02634931Y02483896D01*
X02633715Y02485715D01*
X02631896Y02486931D01*
X02629750Y02487358D01*
D02*
G37*
%LPD*%
D10*
X03128250Y02982950D02*
Y03030250D01*
Y02982950D02*
X03157900Y02953300D01*
X03086400Y02919500D02*
Y02934600D01*
X03077750Y02943250D02*
X03086400Y02934600D01*
X03077750Y02943250D02*
Y02955750D01*
X02859000Y02913250D02*
X02882500Y02936750D01*
X03086400Y02839400D02*
Y02856000D01*
X03084750Y02837750D02*
X03086400Y02839400D01*
X03084750Y02829750D02*
Y02837750D01*
X02890250Y02829750D02*
Y02837750D01*
X02891900Y02839400D01*
Y02856000D01*
X02929250Y02827000D02*
X02936050D01*
X02938000Y02828950D01*
Y02839000D01*
X02926500Y02824250D02*
X02929250Y02827000D01*
X03121000Y02824250D02*
X03123750Y02827000D01*
X03132500Y02828950D02*
Y02839000D01*
X03130550Y02827000D02*
X03132500Y02828950D01*
X03123750Y02827000D02*
X03130550D01*
X02888500Y02734000D02*
Y02742500D01*
Y02734000D02*
X02890375Y02732125D01*
X02909125D01*
X02909125D01*
X03103625D02*
X03103625D01*
X03084875D02*
X03103625D01*
X03083000Y02734000D02*
X03084875Y02732125D01*
X03083000Y02734000D02*
Y02742500D01*
X02882500Y02936750D02*
Y02976500D01*
X02832500Y02782250D02*
Y02843000D01*
X02822750Y02772500D02*
X02832500Y02782250D01*
X03092500Y03007250D02*
Y03029361D01*
X03095250Y03032111D01*
X03118389Y03055250D01*
X03076250Y02991000D02*
X03092500Y03007250D01*
X03077389Y02988250D02*
X03095250Y03006111D01*
Y03028222D01*
X03117278Y03050250D01*
X02940750Y02985500D02*
X03079500D01*
X03101000Y03007000D01*
Y03025500D01*
X02935000Y02737500D02*
X02939000D01*
X02932750Y02739750D02*
X02935000Y02737500D01*
X02925250Y02727500D02*
X02939000D01*
X02947000Y02765000D02*
X02950500Y02761500D01*
Y02754000D02*
Y02761500D01*
X02932750Y02739750D02*
Y02747750D01*
X02939000Y02746000D02*
X02942750Y02749750D01*
X02939000Y02742500D02*
Y02746000D01*
X02942750Y02749750D02*
Y02757250D01*
X02932750Y02747750D02*
X02936250Y02751250D01*
X02931250Y02732500D02*
X02939000D01*
X02955000Y02804250D02*
X02965750D01*
Y02795500D02*
X02973500D01*
X02976250Y02798250D01*
Y02804250D01*
X02929500D02*
X02939000D01*
X02926500Y02807250D02*
X02929500Y02804250D01*
X02904600Y02843800D02*
Y02856000D01*
X03121000Y02807250D02*
X03124000Y02804250D01*
X03099100Y02843800D02*
Y02856000D01*
X03133500Y02732500D02*
X03133500Y02732500D01*
X03125750Y02732500D02*
X03133500D01*
X03170750Y02798250D02*
Y02804250D01*
X03168000Y02795500D02*
X03170750Y02798250D01*
X03160250Y02795500D02*
X03168000D01*
X03149500Y02804250D02*
X03160250D01*
X03127250Y02747750D02*
X03130750Y02751250D01*
X03137250Y02749750D02*
Y02757250D01*
X03133500Y02742500D02*
Y02746000D01*
X03137250Y02749750D01*
X03127250Y02739750D02*
Y02747750D01*
X03145000Y02754000D02*
Y02761500D01*
X03141500Y02765000D02*
X03145000Y02761500D01*
X02992250Y02795500D02*
Y02804250D01*
X02976100Y02820400D02*
Y02839000D01*
Y02820400D02*
X02976250Y02820250D01*
X02988800Y02829450D02*
Y02839000D01*
Y02829450D02*
X02992250Y02826000D01*
Y02820250D02*
Y02826000D01*
X02963400Y02821400D02*
Y02839000D01*
X02962250Y02820250D02*
X02963400Y02821400D01*
X02955000Y02820250D02*
X02962250D01*
X02950700Y02828950D02*
Y02839000D01*
X02948750Y02827000D02*
X02950700Y02828950D01*
X02945750Y02827000D02*
X02948750D01*
X02939000Y02820250D02*
X02945750Y02827000D01*
X03080250Y02981750D02*
X03108250Y03009750D01*
X02887750Y02981750D02*
X03080250D01*
X02985000Y02988250D02*
X03073500D01*
X03077389D01*
X02995000Y02991000D02*
X03076250D01*
X02906750Y02978500D02*
X03097500D01*
X02903000Y02974750D02*
X02906750Y02978500D01*
X02903000Y02952750D02*
Y02974750D01*
X02900250Y02950000D02*
X02903000Y02952750D01*
X02891900Y02950000D02*
X02900250D01*
X02882500Y02976500D02*
X02887750Y02981750D01*
X03170500Y03025500D02*
X03184250D01*
X03188500Y03029750D01*
Y03063000D01*
X03186250Y03065250D02*
X03188500Y03063000D01*
X03178250Y03065250D02*
X03186250D01*
X02806750Y02763500D02*
X02822750D01*
Y02772500D01*
Y02740500D02*
Y02747500D01*
X02827450Y02728250D02*
Y02735800D01*
X02822750Y02740500D02*
X02827450Y02735800D01*
X03171750Y03146000D02*
Y03162250D01*
X03153250Y03115250D02*
Y03127500D01*
X03171750Y03146000D01*
X03166250Y03167750D02*
X03171750Y03162250D01*
X03138250Y03131200D02*
X03158800Y03151750D01*
X03138250Y03115250D02*
Y03131200D01*
X03111000Y03167750D02*
X03166250D01*
X02933500Y02992750D02*
Y03006750D01*
X02933500Y03022750D02*
X02949500D01*
X03098750Y02987250D02*
X03113250Y03001750D01*
Y03030250D01*
X02891900Y02919500D02*
Y02950000D01*
X02983500Y02968750D02*
X03095000D01*
X03099500Y02964250D02*
X03118250D01*
X03095000Y02968750D02*
X03099500Y02964250D01*
X03097500Y02972000D02*
X03099750Y02969750D01*
X03111750D01*
X03099750Y02980750D02*
X03111750D01*
X03097500Y02978500D02*
X03099750Y02980750D01*
X03068750Y02955750D02*
X03077750D01*
X03049748Y02955750D02*
X03058748D01*
X02963400Y02961350D02*
X02974050Y02972000D01*
X02950700Y02961350D02*
X02964600Y02975250D01*
X02950700Y02936500D02*
Y02961350D01*
X02963400Y02936500D02*
Y02961350D01*
X02974050Y02972000D02*
X03097500D01*
X02976100Y02936500D02*
Y02961350D01*
X02983500Y02968750D01*
X02964600Y02975250D02*
X03105250D01*
X03047250Y02965000D02*
X03049748Y02962502D01*
X02984000Y02961250D02*
X02987750Y02965000D01*
X03047250D01*
X03049748Y02955750D02*
Y02962502D01*
X02984000Y02952000D02*
Y02961250D01*
X03133250Y02987000D02*
Y03030250D01*
X03148500Y02971750D02*
X03178500D01*
X03133250Y02987000D02*
X03148500Y02971750D01*
X03178500D02*
X03194250D01*
X03178500Y02952000D02*
Y02971750D01*
X03178500Y02971750D01*
X03157900Y02936500D02*
Y02953300D01*
X03145200Y02936500D02*
Y02953300D01*
X03123250Y02975250D02*
X03145200Y02953300D01*
X03123250Y02975250D02*
X03123250Y02975250D01*
X03123250Y02975250D02*
Y03030250D01*
X03170600Y02936500D02*
Y02964250D01*
X02988800Y02936500D02*
Y02947200D01*
X02984000Y02952000D02*
X02988800Y02947200D01*
X03143250Y02996000D02*
Y03030250D01*
X03138250Y02990500D02*
Y03030250D01*
X03118250Y02964250D02*
Y03030250D01*
X02933500Y02992750D02*
X02940750Y02985500D01*
X03118250Y03041750D02*
X03122000Y03045500D01*
X03150250D01*
X03148250Y03030250D02*
Y03040250D01*
X03150250Y03045500D02*
X03153250Y03042500D01*
Y03030250D02*
Y03042500D01*
X02978400Y02994850D02*
X02985000Y02988250D01*
X02991100Y02994900D02*
X02995000Y02991000D01*
X03020000Y02997750D02*
Y03006750D01*
X03109750Y03050500D02*
Y03068000D01*
X03093250Y03070250D02*
X03107500D01*
X03109750Y03068000D01*
X03086000Y03034500D02*
X03093250Y03041750D01*
Y03045250D01*
X03102000Y03042750D02*
X03109750Y03050500D01*
X03117278Y03050250D02*
X03178250D01*
X03118389Y03055250D02*
X03178250D01*
X03082000Y03022750D02*
X03088250Y03029000D01*
X03074500Y03022750D02*
X03082000D01*
X03088250Y03029000D02*
X03091000Y03031750D01*
X03094000Y03034750D01*
X03102000Y03042750D01*
X03108250Y03020250D02*
Y03030250D01*
X02763500Y02997750D02*
Y03006750D01*
X02850000D02*
X02859000D01*
X02821100Y02994500D02*
Y03006750D01*
X02808400D02*
Y03024100D01*
X02978400Y02994850D02*
Y03006750D01*
X02991100Y02994900D02*
Y03006750D01*
X02949500Y03022750D02*
X02961250D01*
X02965700Y03018300D01*
Y03006750D02*
Y03018300D01*
X02933500Y03034500D02*
Y03044750D01*
Y03034500D02*
X02937500Y03030500D01*
X02972000D01*
X02978400Y03024100D01*
Y03006750D02*
Y03024100D01*
X03003800Y03006750D02*
Y03018550D01*
X03008000Y03022750D01*
X03020000D01*
Y03035000D02*
Y03044750D01*
X03016500Y03031500D02*
X03020000Y03035000D01*
X02995000Y03031500D02*
X03016500D01*
X02991000Y03027500D02*
X02995000Y03031500D01*
X02991000Y03006850D02*
Y03027500D01*
Y03006850D02*
X02991100Y03006750D01*
X02821000Y03006850D02*
X02821100Y03006750D01*
X02821000Y03006850D02*
Y03027500D01*
X02825000Y03031500D01*
X02846500D01*
X02850000Y03035000D01*
Y03044750D01*
X02838000Y03022750D02*
X02850000D01*
X02833800Y03018550D02*
X02838000Y03022750D01*
X02833800Y03006750D02*
Y03018550D01*
X02802000Y03030500D02*
X02808400Y03024100D01*
X02767500Y03030500D02*
X02802000D01*
X02763500Y03034500D02*
X02767500Y03030500D01*
X02763500Y03034500D02*
Y03044750D01*
X02795700Y03006750D02*
Y03018300D01*
X02791250Y03022750D02*
X02795700Y03018300D01*
X02779500Y03022750D02*
X02791250D01*
X02763500D02*
X02779500D01*
X02891750Y02919650D02*
X02891900Y02919500D01*
X03077650Y02955650D02*
X03077750Y02955750D01*
X03133500Y02820250D02*
X03140250Y02827000D01*
X03143250D01*
X03145200Y02828950D01*
Y02839000D01*
X03149500Y02820250D02*
X03156750D01*
X03157900Y02821400D01*
Y02839000D01*
X03186750Y02820250D02*
Y02826000D01*
X03183300Y02829450D02*
X03186750Y02826000D01*
X03183300Y02829450D02*
Y02839000D01*
X03170600Y02820400D02*
X03170750Y02820250D01*
X03170600Y02820400D02*
Y02839000D01*
X03178500Y02952000D02*
X03183300Y02947200D01*
Y02936500D02*
Y02947200D01*
X03073250Y03147750D02*
X03082250Y03156750D01*
X03116748D01*
X03121748Y03151750D01*
X03133400D01*
X03083250Y03050250D02*
X03093250D01*
Y03055250D02*
X03103250D01*
X03058500Y03022750D02*
X03074500D01*
X03059250Y03056500D02*
X03068000Y03065250D01*
X03073250Y03074750D02*
X03073750Y03075250D01*
X03068000Y03065250D02*
Y03069750D01*
X03057250Y03096750D02*
Y03115000D01*
X03060250Y03085750D02*
X03080000D01*
X03057250Y03088750D02*
X03060250Y03085750D01*
X03057250Y03088750D02*
Y03096750D01*
X03080000Y03085750D02*
X03085500Y03080250D01*
X03093250D01*
X03073750Y03075250D02*
X03093250D01*
X03111750Y03132500D02*
X03124750D01*
X03128250Y03129000D01*
Y03115250D02*
Y03129000D01*
X03133250Y03151600D02*
X03133400Y03151750D01*
X03133250Y03115250D02*
Y03151600D01*
X03199000Y03132000D02*
X03202750Y03128250D01*
X03212000D01*
X03168500Y03132000D02*
X03199000D01*
X03163250Y03126750D02*
X03168500Y03132000D01*
X03163250Y03115250D02*
Y03126750D01*
X03195000Y03068750D02*
X03199000Y03064750D01*
X03218500D01*
X03195000Y03068750D02*
Y03083750D01*
X03188500Y03090250D02*
X03195000Y03083750D01*
X03178250Y03090250D02*
X03188500D01*
X03218500Y03064750D02*
X03231500Y03077750D01*
Y03102000D01*
X03228000Y03105500D02*
Y03112250D01*
Y03105500D02*
X03231500Y03102000D01*
X03220250Y03105250D02*
Y03120290D01*
X03212290Y03128250D02*
X03220250Y03120290D01*
X03218500Y03090150D02*
Y03103500D01*
X03220250Y03105250D01*
X03212000Y03128250D02*
X03212290D01*
X03119750Y02727500D02*
X03133500D01*
X03127250Y02739750D02*
X03129500Y02737500D01*
X03133500D01*
X03124000Y02804250D02*
X03133500D01*
X03186750Y02795500D02*
Y02804250D01*
D11*
X03099100Y02919500D02*
Y02935350D01*
X03111250Y02947500D01*
Y02955750D01*
X02912250Y02947500D02*
Y02955750D01*
X02904600Y02939850D02*
X02912250Y02947500D01*
X02904600Y02919500D02*
Y02939850D01*
X02965500Y02737500D02*
Y02754000D01*
X03155000Y02737500D02*
Y02754000D01*
X03150000Y02716000D02*
Y02732500D01*
X02923000Y02773750D02*
X02939000D01*
X02946000Y02716000D02*
X02950500D01*
X02958000Y02735000D02*
X02960500Y02737500D01*
X02955500Y02703750D02*
Y02716000D01*
Y02732500D02*
X02958000Y02735000D01*
X02955500Y02716000D02*
Y02732500D01*
X02960500Y02737500D02*
Y02754000D01*
X03026750Y02687750D02*
Y02739500D01*
X03020250Y02746000D02*
X03026750Y02739500D01*
X02965500Y02716000D02*
X02970000D01*
X02977000Y02732500D02*
X02986000D01*
X02991500Y02738000D01*
X02977000Y02727500D02*
X02986000D01*
X02991500Y02722000D01*
X02977000Y02742500D02*
Y02749250D01*
Y02737500D02*
X02981750D01*
X02983500Y02739250D01*
Y02746000D01*
X02991500Y02754000D01*
X02955500Y02754000D02*
Y02757750D01*
X02957500Y02759750D01*
X02961500D01*
X02971000Y02769250D01*
X02923000Y02789750D02*
X02955000D01*
X02923000D02*
Y02798500D01*
X02901500Y02786500D02*
Y02795250D01*
X02898250Y02798500D02*
X02901500Y02795250D01*
X03092750Y02798500D02*
X03096000Y02795250D01*
Y02786500D02*
Y02795250D01*
X03117500Y02789750D02*
Y02798500D01*
X02802050Y02735800D02*
X02806750Y02740500D01*
X02802050Y02728250D02*
Y02735800D01*
X02806750Y02740500D02*
Y02747500D01*
X02856250Y02950000D02*
X02872500D01*
X03163250Y03021000D02*
Y03030250D01*
X03158250D02*
Y03040250D01*
X03074500Y03057250D02*
X03082500D01*
X03085500Y03060250D01*
X03093250D01*
Y03065250D02*
X03103250D01*
X03101750Y03118250D02*
X03104750Y03115250D01*
X03093250Y03100250D02*
Y03106500D01*
X03093250Y03106500D01*
X03104750Y03115250D02*
X03108250D01*
X03073250Y03167750D02*
X03095000D01*
X03095750Y03148500D02*
X03111750D01*
X03113250Y03105250D02*
Y03115250D01*
X03168250Y03095250D02*
X03178250D01*
Y03100250D02*
X03196000D01*
X03214750Y02746000D02*
X03221250Y02739500D01*
Y02687750D02*
Y02739500D01*
X03160000Y02716000D02*
X03164500D01*
X03140500D02*
X03145000D01*
X03150000Y02732500D02*
X03152500Y02735000D01*
X03150000Y02703750D02*
Y02716000D01*
X03156000Y02759750D02*
X03165500Y02769250D01*
X03152000Y02759750D02*
X03156000D01*
X03150000Y02757750D02*
X03152000Y02759750D01*
X03150000Y02754000D02*
Y02757750D01*
X03157900Y02740400D02*
X03160000Y02742500D01*
Y02754000D01*
X03152500Y02735000D02*
X03155000Y02737500D01*
X03117500Y02773750D02*
X03133500D01*
Y02789750D02*
X03149500D01*
X03117500D02*
X03133500D01*
X03178000Y02746000D02*
X03186000Y02754000D01*
X03178000Y02739250D02*
Y02746000D01*
X03171500Y02742500D02*
Y02749250D01*
X03171500Y02749250D01*
X03176250Y02737500D02*
X03178000Y02739250D01*
X03171500Y02737500D02*
X03176250D01*
X03180500Y02727500D02*
X03186000Y02722000D01*
X03171500Y02727500D02*
X03180500D01*
X03180500Y02732500D02*
X03186000Y02738000D01*
X03171500Y02732500D02*
X03180500D01*
D12*
X02901500Y03022750D02*
X02917500D01*
X02949500Y03060750D02*
X02965700D01*
X02933500D02*
X02949500D01*
X02965700D02*
X02965700Y03060750D01*
X02957500Y03082750D02*
X02967500D01*
X02978400Y03071850D01*
Y03060750D02*
Y03071850D01*
X03002000Y03082750D02*
X03012000D01*
X02991100Y03071850D02*
X03002000Y03082750D01*
X02991100Y03060750D02*
Y03071850D01*
X02832000Y03082750D02*
X02842000D01*
X02821100Y03071850D02*
X02832000Y03082750D01*
X02821100Y03060750D02*
Y03071850D01*
X02808400Y03060750D02*
Y03071850D01*
X02797500Y03082750D02*
X02808400Y03071850D01*
X02787500Y03082750D02*
X02797500D01*
D25*
X03102500Y02786500D02*
D03*
X03096000D02*
D03*
X03089500D02*
D03*
X03083000D02*
D03*
Y02742500D02*
D03*
X03089500D02*
D03*
X03096000D02*
D03*
X03102500D02*
D03*
X02908000Y02786500D02*
D03*
X02901500D02*
D03*
X02895000D02*
D03*
X02888500D02*
D03*
Y02742500D02*
D03*
X02895000D02*
D03*
X02901500D02*
D03*
X02908000D02*
D03*
D26*
X03092750Y02764500D02*
D03*
X02898250D02*
D03*
D27*
X03134750Y02687000D02*
D03*
X03118750D02*
D03*
X03134750Y02703000D02*
D03*
X03118750D02*
D03*
X02819500Y02843000D02*
D03*
X02803500D02*
D03*
Y02859000D02*
D03*
X02819500D02*
D03*
X03073250Y03167750D02*
D03*
X03057250D02*
D03*
X03095000D02*
D03*
X03111000D02*
D03*
X03210250Y02971750D02*
D03*
X03194250D02*
D03*
X03163250Y03011500D02*
D03*
X03179250D02*
D03*
X03043250Y03040500D02*
D03*
X03059250D02*
D03*
X03033748Y02955750D02*
D03*
X03049748D02*
D03*
X03093750Y02955750D02*
D03*
X03077750D02*
D03*
X03073250Y03115000D02*
D03*
X03057250D02*
D03*
X03043250Y03056500D02*
D03*
X03059250D02*
D03*
X03073250Y03131000D02*
D03*
X03057250D02*
D03*
Y03147750D02*
D03*
X03073250D02*
D03*
X02999748Y02955750D02*
D03*
X03015748D02*
D03*
X03180750Y02770000D02*
D03*
X03196750D02*
D03*
X03084750Y02829750D02*
D03*
X03100750D02*
D03*
X02986250Y02770000D02*
D03*
X03002250D02*
D03*
X02890250Y02829750D02*
D03*
X02906250D02*
D03*
X03210250Y02955750D02*
D03*
X03194250D02*
D03*
X03007500Y02706000D02*
D03*
X02991500D02*
D03*
X03007500Y02738000D02*
D03*
X02991500D02*
D03*
X03007500Y02754000D02*
D03*
X02991500D02*
D03*
X03007500Y02722000D02*
D03*
X02991500D02*
D03*
X02924250Y02703000D02*
D03*
X02940250D02*
D03*
X02924250Y02687000D02*
D03*
X02940250D02*
D03*
X03202000Y02754000D02*
D03*
X03186000D02*
D03*
X03202000Y02738000D02*
D03*
X03186000D02*
D03*
X03202000Y02722000D02*
D03*
X03186000D02*
D03*
X03202000Y02706000D02*
D03*
X03186000D02*
D03*
D28*
X02898250Y02660250D02*
D03*
Y02676250D02*
D03*
X02949500Y03006750D02*
D03*
Y03022750D02*
D03*
X02933500D02*
D03*
Y03006750D02*
D03*
X02822750Y02795750D02*
D03*
Y02811750D02*
D03*
X02872500Y02950000D02*
D03*
Y02966000D02*
D03*
X02891900D02*
D03*
Y02950000D02*
D03*
X02856250D02*
D03*
Y02966000D02*
D03*
X03042500Y03006750D02*
D03*
Y03022750D02*
D03*
X03058500Y03006750D02*
D03*
Y03022750D02*
D03*
X03074500Y03057250D02*
D03*
Y03041250D02*
D03*
Y03006750D02*
D03*
Y03022750D02*
D03*
X03228000Y03128250D02*
D03*
Y03112250D02*
D03*
X03196000Y03100250D02*
D03*
Y03116250D02*
D03*
X03212000Y03112250D02*
D03*
Y03128250D02*
D03*
X03111750Y03148500D02*
D03*
Y03132500D02*
D03*
X03095750D02*
D03*
Y03148500D02*
D03*
X02747500Y03044750D02*
D03*
Y03060750D02*
D03*
Y03006750D02*
D03*
Y03022750D02*
D03*
X02917500Y03006750D02*
D03*
Y03022750D02*
D03*
X02901500Y03006750D02*
D03*
Y03022750D02*
D03*
X03020000Y03006750D02*
D03*
Y03022750D02*
D03*
Y03060750D02*
D03*
Y03044750D02*
D03*
X02933500D02*
D03*
Y03060750D02*
D03*
X02850000D02*
D03*
Y03044750D02*
D03*
Y03006750D02*
D03*
Y03022750D02*
D03*
X02763500Y03044750D02*
D03*
Y03060750D02*
D03*
Y03006750D02*
D03*
Y03022750D02*
D03*
X02779500D02*
D03*
Y03006750D02*
D03*
X02949500Y03044750D02*
D03*
Y03060750D02*
D03*
X02779500Y03044750D02*
D03*
Y03060750D02*
D03*
X02822750Y02763500D02*
D03*
Y02747500D02*
D03*
X02806750D02*
D03*
Y02763500D02*
D03*
X03149500Y02773750D02*
D03*
Y02789750D02*
D03*
X03133500D02*
D03*
Y02773750D02*
D03*
X03117500Y02789750D02*
D03*
Y02773750D02*
D03*
X03165500Y02785250D02*
D03*
Y02769250D02*
D03*
X03208750Y02820250D02*
D03*
Y02804250D02*
D03*
X03186750Y02820250D02*
D03*
Y02804250D02*
D03*
X03170750Y02820250D02*
D03*
Y02804250D02*
D03*
X03149500Y02820250D02*
D03*
Y02804250D02*
D03*
X03133500Y02820250D02*
D03*
Y02804250D02*
D03*
X03014250Y02820250D02*
D03*
Y02804250D02*
D03*
X02992250Y02820250D02*
D03*
Y02804250D02*
D03*
X02955000Y02820250D02*
D03*
Y02804250D02*
D03*
X02939000Y02820250D02*
D03*
Y02804250D02*
D03*
X02976250Y02820250D02*
D03*
Y02804250D02*
D03*
X02971000Y02785250D02*
D03*
Y02769250D02*
D03*
X02939000Y02789750D02*
D03*
Y02773750D02*
D03*
X02955000D02*
D03*
Y02789750D02*
D03*
X02923000D02*
D03*
Y02773750D02*
D03*
X03092750Y02660250D02*
D03*
Y02676250D02*
D03*
X02923000Y02758500D02*
D03*
Y02742500D02*
D03*
X02955500Y02687750D02*
D03*
Y02703750D02*
D03*
X03117500Y02758500D02*
D03*
Y02742500D02*
D03*
X03150000Y02687750D02*
D03*
Y02703750D02*
D03*
D29*
X02787400Y02827250D02*
D03*
X02808600D02*
D03*
D30*
X02840000Y02930500D02*
D03*
Y02901500D02*
D03*
X02905500Y03076250D02*
D03*
Y03047250D02*
D03*
X02880250Y03076250D02*
D03*
Y03047250D02*
D03*
X02898250Y02722000D02*
D03*
Y02693000D02*
D03*
X03092750Y02693000D02*
D03*
Y02722000D02*
D03*
D31*
X02780250Y02794250D02*
D03*
Y02813250D02*
D03*
X02806250D02*
D03*
Y02803750D02*
D03*
Y02794250D02*
D03*
X02780250Y02803750D02*
D03*
D32*
X02758000Y02855000D02*
D03*
X02787000D02*
D03*
D33*
X02837750Y02965500D02*
D03*
Y02947500D02*
D03*
X02957500Y03100750D02*
D03*
Y03082750D02*
D03*
X03012000Y03100750D02*
D03*
Y03082750D02*
D03*
X02842000Y03100750D02*
D03*
Y03082750D02*
D03*
X02787500Y03100750D02*
D03*
Y03082750D02*
D03*
D34*
X03163750Y02993500D02*
D03*
X03181750D02*
D03*
X02889250Y02808000D02*
D03*
X02907250D02*
D03*
X03101750D02*
D03*
X03083750D02*
D03*
D35*
X03108250Y03115250D02*
D03*
X03163250D02*
D03*
X03163250Y03030250D02*
D03*
X03108250D02*
D03*
X03158250Y03115250D02*
D03*
X03153250D02*
D03*
X03148250D02*
D03*
X03143250D02*
D03*
X03138250D02*
D03*
X03133250D02*
D03*
X03128250D02*
D03*
X03123250D02*
D03*
X03118250D02*
D03*
X03113250D02*
D03*
Y03030250D02*
D03*
X03118250D02*
D03*
X03123250D02*
D03*
X03128250D02*
D03*
X03133250D02*
D03*
X03138250D02*
D03*
X03143250D02*
D03*
X03148250D02*
D03*
X03153250D02*
D03*
X03158250D02*
D03*
D36*
X03178250Y03100250D02*
D03*
Y03045250D02*
D03*
X03093250Y03045250D02*
D03*
Y03100250D02*
D03*
X03178250Y03050250D02*
D03*
Y03055250D02*
D03*
Y03060250D02*
D03*
Y03065250D02*
D03*
Y03070250D02*
D03*
Y03075250D02*
D03*
Y03080250D02*
D03*
Y03085250D02*
D03*
Y03090250D02*
D03*
Y03095250D02*
D03*
X03093250Y03050250D02*
D03*
Y03055250D02*
D03*
Y03060250D02*
D03*
Y03065250D02*
D03*
Y03070250D02*
D03*
Y03075250D02*
D03*
Y03080250D02*
D03*
Y03085250D02*
D03*
Y03090250D02*
D03*
Y03095250D02*
D03*
D37*
X03057250Y03074750D02*
D03*
X03073250Y03096750D02*
D03*
Y03074750D02*
D03*
X03057250Y03096750D02*
D03*
D38*
X02755000Y02790250D02*
D03*
Y02830250D02*
D03*
D39*
X02766500Y02767750D02*
D03*
Y02737750D02*
D03*
Y02612750D02*
D03*
Y02642750D02*
D03*
X02898250D02*
D03*
Y02612750D02*
D03*
X03092750Y02642750D02*
D03*
Y02612750D02*
D03*
D40*
X02965700Y03060750D02*
D03*
X02978400D02*
D03*
X02991100D02*
D03*
X03003800D02*
D03*
Y03006750D02*
D03*
X02991100D02*
D03*
X02978400D02*
D03*
X02965700D02*
D03*
X02795700Y03060750D02*
D03*
X02808400D02*
D03*
X02821100D02*
D03*
X02833800D02*
D03*
Y03006750D02*
D03*
X02821100D02*
D03*
X02808400D02*
D03*
X02795700D02*
D03*
D41*
X02994250Y03101750D02*
D03*
X02984750Y03081750D02*
D03*
X02975250Y03101750D02*
D03*
X02824250D02*
D03*
X02814750Y03081750D02*
D03*
X02805250Y03101750D02*
D03*
D42*
X02840250Y03126500D02*
D03*
Y03167000D02*
D03*
X02959250Y03126500D02*
D03*
Y03167000D02*
D03*
X03010250Y03126500D02*
D03*
Y03167000D02*
D03*
X02789250Y03126500D02*
D03*
Y03167000D02*
D03*
D43*
X02840250Y03146750D02*
D03*
X02959250D02*
D03*
X03010250D02*
D03*
X02789250D02*
D03*
D44*
X02802050Y02668250D02*
D03*
X02827450D02*
D03*
X02802050Y02728250D02*
D03*
X02827450D02*
D03*
D45*
X02834750Y02642750D02*
D03*
X02794750D02*
D03*
D46*
X03153500Y02673250D02*
D03*
Y02640250D02*
D03*
X02959000Y02673250D02*
D03*
Y02640250D02*
D03*
D47*
X03198250Y02623750D02*
D03*
X03003750D02*
D03*
D48*
X03175250Y02687750D02*
D03*
X03198250D02*
D03*
X03221250D02*
D03*
X02980750D02*
D03*
X03003750D02*
D03*
X03026750D02*
D03*
D49*
X02891900Y02919500D02*
D03*
X02904600D02*
D03*
Y02856000D02*
D03*
X02891900D02*
D03*
X03086400Y02919500D02*
D03*
X03099100D02*
D03*
Y02856000D02*
D03*
X03086400D02*
D03*
D50*
X02950700Y02839000D02*
D03*
Y02936500D02*
D03*
X02988800Y02839000D02*
D03*
Y02936500D02*
D03*
X02925300Y02839000D02*
D03*
Y02936500D02*
D03*
X02938000Y02839000D02*
D03*
Y02936500D02*
D03*
X02963400Y02839000D02*
D03*
Y02936500D02*
D03*
X02976100Y02839000D02*
D03*
Y02936500D02*
D03*
X03001500Y02839000D02*
D03*
Y02936500D02*
D03*
X03014200Y02839000D02*
D03*
Y02936500D02*
D03*
X03145200Y02839000D02*
D03*
Y02936500D02*
D03*
X03183300Y02839000D02*
D03*
Y02936500D02*
D03*
X03119800Y02839000D02*
D03*
Y02936500D02*
D03*
X03132500Y02839000D02*
D03*
Y02936500D02*
D03*
X03157900Y02839000D02*
D03*
Y02936500D02*
D03*
X03170600Y02839000D02*
D03*
Y02936500D02*
D03*
X03196000Y02839000D02*
D03*
Y02936500D02*
D03*
X03208700Y02839000D02*
D03*
Y02936500D02*
D03*
D51*
X02965500Y02754000D02*
D03*
X02960500D02*
D03*
X02955500D02*
D03*
X02950500D02*
D03*
X02965500Y02716000D02*
D03*
X02960500D02*
D03*
X02955500D02*
D03*
X02950500D02*
D03*
X03160000Y02754000D02*
D03*
X03155000D02*
D03*
X03150000D02*
D03*
X03145000D02*
D03*
X03160000Y02716000D02*
D03*
X03155000D02*
D03*
X03150000D02*
D03*
X03145000D02*
D03*
D52*
X02939000Y02727500D02*
D03*
Y02732500D02*
D03*
Y02737500D02*
D03*
Y02742500D02*
D03*
X02977000D02*
D03*
Y02737500D02*
D03*
Y02732500D02*
D03*
Y02727500D02*
D03*
X03133500Y02727500D02*
D03*
Y02732500D02*
D03*
Y02737500D02*
D03*
Y02742500D02*
D03*
X03171500D02*
D03*
Y02737500D02*
D03*
Y02732500D02*
D03*
Y02727500D02*
D03*
D54*
X02940250Y02670750D02*
D03*
Y02642750D02*
D03*
X02921000D02*
D03*
Y02670750D02*
D03*
X03134750Y02670750D02*
D03*
Y02642750D02*
D03*
X03115500D02*
D03*
Y02670750D02*
D03*
D55*
X02944750Y02624000D02*
D03*
Y02617500D02*
D03*
Y02611000D02*
D03*
Y02604500D02*
D03*
X02916750D02*
D03*
Y02611000D02*
D03*
Y02617500D02*
D03*
Y02624000D02*
D03*
X03139250Y02624000D02*
D03*
Y02617500D02*
D03*
Y02611000D02*
D03*
Y02604500D02*
D03*
X03111250D02*
D03*
Y02611000D02*
D03*
Y02617500D02*
D03*
Y02624000D02*
D03*
D98*
X02958000Y02735000D02*
D03*
X03152500Y02735000D02*
D03*
D99*
X02930750Y02614250D02*
D03*
X03125250Y02614250D02*
D03*
D100*
X03199250Y03181500D02*
X03229250D01*
X02725000Y02965227D02*
Y02989350D01*
Y02935500D02*
Y02965227D01*
Y02989350D02*
Y03013473D01*
Y03037596D01*
Y03061719D01*
Y03085842D01*
Y03109966D01*
Y03134088D01*
Y03158212D01*
Y03182335D01*
X03220500Y02763750D02*
Y02780500D01*
Y02805500D01*
Y02830500D02*
Y02843000D01*
X03026000Y02780500D02*
Y02805500D01*
Y02763750D02*
Y02780500D01*
Y02830500D02*
Y02843000D01*
X02914250Y02742500D02*
X02923000D01*
X02898250Y02693000D02*
X02912750D01*
X02898250Y02722000D02*
X02912750D01*
X02883750D02*
X02898250D01*
X02883750Y02693000D02*
X02898250D01*
X03078250Y02693000D02*
X03092750D01*
Y02722000D02*
X03107250D01*
X03092750Y02693000D02*
X03107250D01*
X03108750Y02742500D02*
X03117500D01*
X03078250Y02722000D02*
X03092750D01*
X02910250Y02805000D02*
X02916750D01*
X02910250Y02812000D02*
X02916750D01*
Y02805000D02*
Y02812000D01*
X03111250Y02805000D02*
Y02812000D01*
X03104750D02*
X03111250D01*
X03104750Y02805000D02*
X03111250D01*
D101*
X03119800Y02936500D02*
Y02956387D01*
X02925300Y02936500D02*
Y02956387D01*
X02938000Y02936500D02*
Y02956366D01*
X03132500Y02936500D02*
Y02956366D01*
X02917750Y02839000D02*
X02925300D01*
X03112250D02*
X03119800D01*
X03194700Y02948500D02*
Y02955500D01*
Y02948500D02*
X03196000Y02947200D01*
Y02936500D02*
Y02947200D01*
X03000200Y02948500D02*
Y02955500D01*
Y02948500D02*
X03001500Y02947200D01*
Y02936500D02*
Y02947200D01*
X03049875Y03138375D02*
X03057250Y03131000D01*
X02908000Y02742500D02*
X02914250D01*
X02908000Y02733250D02*
Y02742500D01*
X02910250Y02731000D02*
X02914250D01*
X02908000Y02733250D02*
X02909125Y02732125D01*
X02910250Y02731000D01*
X03103625Y02732125D02*
X03104750Y02731000D01*
X03102500Y02733250D02*
X03103625Y02732125D01*
X03104750Y02731000D02*
X03108750D01*
X03102500Y02733250D02*
Y02742500D01*
X02888500Y02768750D02*
Y02786500D01*
X03083000Y02768750D02*
X03092750Y02759000D01*
X03083000Y02768750D02*
Y02786500D01*
X02822750Y02786750D02*
Y02795750D01*
X02888500Y02807250D02*
X02889250Y02808000D01*
X02888500Y02786500D02*
Y02807250D01*
X02908000Y02786500D02*
Y02807250D01*
X02907250Y02808000D02*
X02908000Y02807250D01*
X03102500Y02742500D02*
X03108750D01*
X03083000Y02786500D02*
Y02807250D01*
X03083750Y02808000D01*
X03101750D02*
X03102500Y02807250D01*
Y02786500D02*
Y02807250D01*
X03014200Y02820300D02*
Y02839000D01*
X02797750Y02747500D02*
X02806750D01*
X02949500Y02997750D02*
Y03006750D01*
X02891900Y02966000D02*
Y02975000D01*
X03024748Y02955750D02*
X03033748D01*
X03015748D02*
X03024748D01*
X03014200Y02936500D02*
Y02947200D01*
X03015500Y02948500D01*
Y02955500D01*
X02779500Y03060750D02*
Y03069750D01*
X02933500Y03060750D02*
Y03069750D01*
X02901500Y02997750D02*
Y03006750D01*
X02917500Y02997750D02*
Y03006750D01*
Y03022750D02*
Y03031750D01*
X02779500Y03060750D02*
X02795700D01*
X02763500D02*
X02779500D01*
X02747500D02*
X02763500D01*
X02795700D02*
X02795700Y03060750D01*
X02747500Y03060750D02*
Y03069750D01*
Y03022750D02*
Y03031750D01*
X02738500Y03044750D02*
X02747500D01*
X02779500Y02997750D02*
Y03006750D01*
X02747500Y02997750D02*
Y03006750D01*
X02779500Y03044750D02*
X02788500D01*
X02850000Y03060750D02*
Y03069750D01*
X02949500Y03044750D02*
X02958500D01*
X02949500Y03060750D02*
Y03069750D01*
X03020000Y03060750D02*
Y03069750D01*
X02833800Y03048550D02*
Y03060750D01*
X03003800Y03048550D02*
Y03060750D01*
X02856250Y02966000D02*
Y02975000D01*
X02872500Y02966000D02*
Y02975000D01*
X03001500Y02826800D02*
Y02839000D01*
X03210000Y02955500D02*
X03210250Y02955750D01*
X03210000Y02948500D02*
Y02955500D01*
X03208700Y02947200D02*
X03210000Y02948500D01*
X03208700Y02936500D02*
Y02947200D01*
X02990748Y02955750D02*
X02999748D01*
X03093750Y02955750D02*
X03102750D01*
X03196000Y02826800D02*
Y02839000D01*
X03208700Y02820300D02*
X03208750Y02820250D01*
X03208700Y02820300D02*
Y02839000D01*
X03185250Y02955750D02*
X03194250D01*
X03210250D02*
X03219250D01*
X03210250Y02971750D02*
X03219250D01*
X03057250Y03158750D02*
Y03167750D01*
X03048250Y03147750D02*
X03057250D01*
X03086750Y03148500D02*
X03095750D01*
X03163250Y03011500D02*
Y03021000D01*
X03154250Y03011500D02*
X03163250D01*
X03179250D02*
X03188250D01*
X03042500Y02997750D02*
Y03006750D01*
X03058500Y02997750D02*
Y03006750D01*
X03074500Y02997750D02*
Y03006750D01*
Y03032250D02*
Y03041250D01*
X03034250Y03040500D02*
X03043250D01*
X03047000Y03074750D02*
X03057250D01*
X03043250Y03056500D02*
Y03065500D01*
X03073250Y03096750D02*
Y03115000D01*
X03095750Y03124250D02*
X03101750Y03118250D01*
X03095750Y03124250D02*
Y03132500D01*
X03093250Y03106500D02*
Y03113250D01*
X03082250Y03124250D02*
X03093250Y03113250D01*
X03073250Y03130250D02*
X03075000Y03128500D01*
X03078000D01*
X03073250Y03130250D02*
Y03131000D01*
X03078000Y03128500D02*
X03082250Y03124250D01*
X03073250Y03115000D02*
X03082250D01*
X03086750Y03132500D02*
X03095750D01*
X03196750Y03116250D02*
X03200750Y03112250D01*
X03196000Y03116250D02*
X03196750D01*
X03200750Y03112250D02*
X03212000D01*
X03228000Y03128250D02*
Y03137250D01*
X03196000Y03116250D02*
Y03125250D01*
Y03091250D02*
Y03100250D01*
D102*
X03208700Y02820300D02*
X03217450D01*
X02914250Y02742500D02*
X02914250Y02742500D01*
X03108750Y02742500D02*
X03108750Y02742500D01*
X02889250Y02808000D02*
Y02819000D01*
X02906250Y02829750D02*
X02915000D01*
X03100750D02*
X03109500D01*
X03083750Y02808000D02*
Y02819000D01*
X02955000Y02765000D02*
Y02773750D01*
X02939000Y02765000D02*
Y02773750D01*
X02959000Y02673250D02*
X03003750D01*
X03003750Y02673250D01*
X02955500Y02687750D02*
X02980750D01*
X03115500Y02670750D02*
X03118750Y02674000D01*
X03115500Y02670750D02*
X03115500Y02670750D01*
X03129500Y02656750D01*
X03115500Y02670750D02*
X03115500Y02670750D01*
X02921000Y02670750D02*
X02935000Y02656750D01*
X03118750Y02687000D02*
Y02703000D01*
Y02674000D02*
Y02687000D01*
X03134750D02*
Y02703000D01*
Y02670750D02*
Y02687000D01*
X03092750Y02676250D02*
Y02693000D01*
X03092750Y02660250D02*
X03103250Y02670750D01*
X03115500D01*
X03129500Y02656750D02*
X03145250D01*
X03153500Y02648500D01*
Y02640250D02*
Y02648500D01*
X02921000Y02670750D02*
X02924250Y02674000D01*
X02921000Y02670750D02*
X02921000D01*
X02908750D02*
X02921000D01*
X02898250Y02660250D02*
X02908750Y02670750D01*
X02898250Y02676250D02*
X02898250Y02676250D01*
X02898250Y02676250D02*
Y02693000D01*
X02924250Y02687000D02*
Y02703000D01*
Y02674000D02*
Y02687000D01*
X02959000Y02640250D02*
Y02648500D01*
X02950750Y02656750D02*
X02959000Y02648500D01*
X02935000Y02656750D02*
X02950750D01*
X02940250Y02687000D02*
Y02703000D01*
Y02670750D02*
Y02687000D01*
X02940250Y02670750D02*
X02940250Y02670750D01*
X02986250Y02759250D02*
X02991500Y02754000D01*
X02981000Y02759250D02*
X02986250D01*
X03007500Y02706000D02*
X03016250D01*
X03007500Y02722000D02*
X03016250D01*
X03007500Y02738000D02*
X03016250D01*
X03007500Y02754000D02*
X03016250D01*
X03002250Y02770000D02*
X03011000D01*
X02979500Y02770000D02*
X02986250D01*
X02978750Y02769250D02*
X02979500Y02770000D01*
X02971000Y02769250D02*
X02978750D01*
X02971000Y02785250D02*
X02979750D01*
X03014250Y02795500D02*
Y02804250D01*
X03014200Y02820300D02*
X03022950D01*
X02887050Y03134000D02*
Y03174400D01*
X02879550Y03126500D02*
X02887050Y03134000D01*
X02840250Y03126500D02*
X02879550D01*
X02936750Y03100750D02*
X02957500D01*
X02787500D02*
Y03124750D01*
X02923000Y03087000D02*
X02936750Y03100750D01*
X02905500Y03047250D02*
X02918000D01*
X02923000Y03052250D01*
Y03087000D01*
X02862750Y03052250D02*
Y03100750D01*
Y03052250D02*
X02867750Y03047250D01*
X02880250D01*
X02912450Y03126500D02*
Y03174400D01*
X02957500Y03100750D02*
Y03124750D01*
X03012000Y03109750D02*
Y03124750D01*
Y03100750D02*
Y03109750D01*
X02842000Y03100750D02*
Y03124750D01*
X02787500D02*
X02789250Y03126500D01*
X02824250Y03101750D02*
X02841000D01*
X02842000Y03100750D01*
X02788500Y03101750D02*
X02805250D01*
X02958500D02*
X02975250D01*
X03011000D02*
X03012000Y03100750D01*
X02994250Y03101750D02*
X03011000D01*
X02957500Y03124750D02*
X02959250Y03126500D01*
X02984750Y03081750D02*
Y03090750D01*
X02814750Y03081750D02*
Y03090750D01*
X02789250Y03167000D02*
X02789350Y03167100D01*
X02840150D02*
X02840250Y03167000D01*
X02905500Y03091700D02*
X02912450Y03098650D01*
X02905500Y03076250D02*
Y03091700D01*
X02880250Y03091850D02*
X02887050Y03098650D01*
X02880250Y03076250D02*
Y03091850D01*
X03059250Y03039500D02*
Y03040500D01*
X03042500Y03022750D02*
X03059250Y03039500D01*
X03074500Y03055750D02*
Y03057250D01*
X03059250Y03040500D02*
X03074500Y03055750D01*
X03208750Y02795500D02*
Y02804250D01*
X03165500Y02785250D02*
X03174250D01*
X03115500Y02670750D02*
X03115500Y02670750D01*
X03198250Y02673250D02*
X03198250Y02673250D01*
X03153500Y02673250D02*
X03198250D01*
X03175250Y02687750D02*
X03175250Y02687750D01*
X03150000Y02687750D02*
X03175250D01*
X03134750Y02670750D02*
X03134750Y02670750D01*
X03175500Y02759250D02*
X03180750D01*
X03186000Y02754000D01*
X03133500Y02765000D02*
Y02773750D01*
X03149500Y02765000D02*
Y02773750D01*
X03165500Y02769250D02*
X03173250D01*
X03174000Y02770000D01*
X03180750D01*
X03196750D02*
X03205500D01*
X03202000Y02754000D02*
X03210750D01*
X03202000Y02738000D02*
X03210750D01*
X03202000Y02722000D02*
X03210750D01*
X03202000Y02706000D02*
X03210750D01*
D103*
X02898250Y02642750D02*
X02921000D01*
X02958750Y02585500D02*
X02986400D01*
X03010150Y02561750D01*
X02928500D02*
X02959350D01*
X02898250Y02592000D02*
X02928500Y02561750D01*
X02898250Y02592000D02*
Y02612750D01*
X03156500Y02568250D02*
Y02591250D01*
Y02568250D02*
X03163000Y02561750D01*
X03180150D01*
X03106250D02*
X03129350D01*
X03092750Y02575250D02*
Y02612750D01*
Y02575250D02*
X03106250Y02561750D01*
X03003750Y02673250D02*
Y02687750D01*
Y02623750D02*
Y02673250D01*
X02794750Y02642750D02*
X02794750Y02642750D01*
X02766500Y02642750D02*
X02794750D01*
X02766500Y02584600D02*
Y02612750D01*
Y02584600D02*
X02789350Y02561750D01*
X02840150D02*
X02840250Y02561850D01*
Y02582250D01*
X02834750Y02587750D02*
X02840250Y02582250D01*
X02834750Y02587750D02*
Y02642750D01*
X03115500Y02642750D02*
X03115500Y02642750D01*
X03092750Y02642750D02*
X03115500D01*
X03198250Y02623750D02*
Y02673250D01*
Y02687750D01*
D104*
X03108750Y02758500D02*
X03117500D01*
X03093250D02*
X03108750D01*
X03092750Y02759000D02*
X03093250Y02758500D01*
X02898750D02*
X02923000D01*
X02898250Y02759000D02*
X02898750Y02758500D01*
D105*
X03134750Y02703000D02*
Y02712250D01*
X02944000Y02716000D02*
X02946000D01*
X02940250Y02703000D02*
Y02712250D01*
X02944000Y02716000D01*
X02974000D02*
X02984000Y02706000D01*
X02991500D01*
X02970000Y02716000D02*
X02974000D01*
X02815000Y02811750D02*
X02822750D01*
X02813500Y02813250D02*
X02815000Y02811750D01*
X02806250Y02813250D02*
X02813500D01*
X02808600Y02827250D02*
X02816000D01*
X02819500Y02830750D01*
Y02843000D01*
X02808600Y02822100D02*
Y02827250D01*
X02806250Y02819750D02*
X02808600Y02822100D01*
X02806250Y02813250D02*
Y02819750D01*
X03164500Y02716000D02*
X03168500D01*
X03134750Y02712250D02*
X03138500Y02716000D01*
X03140500D01*
X03178500Y02706000D02*
X03186000D01*
X03168500Y02716000D02*
X03178500Y02706000D01*
D106*
X02827450Y02663050D02*
Y02668250D01*
Y02663050D02*
X02834750Y02655750D01*
Y02642750D02*
Y02655750D01*
X02802050Y02663050D02*
Y02668250D01*
X02794750Y02655750D02*
X02802050Y02663050D01*
X02794750Y02642750D02*
Y02655750D01*
X03010150Y03167100D02*
Y03220750D01*
X02959350Y03167100D02*
Y03220750D01*
X02789350Y03167100D02*
Y03220750D01*
X02840150Y03167100D02*
Y03220750D01*
D107*
X02912000Y02808500D02*
D03*
X03106500D02*
D03*
D108*
X03129350Y03220750D02*
D03*
X02959350D02*
D03*
X02619350D02*
D03*
X02789350D02*
D03*
X02670150Y02561750D02*
D03*
X02840150D02*
D03*
X03010150D02*
D03*
X03180150D02*
D03*
D109*
Y03220750D02*
D03*
X03010150D02*
D03*
X02670150D02*
D03*
X02840150D02*
D03*
X02619350Y02561750D02*
D03*
X02789350D02*
D03*
X02959350D02*
D03*
X03129350D02*
D03*
D110*
X02805500Y02901350D02*
D03*
D111*
Y02926750D02*
D03*
Y02952150D02*
D03*
D112*
X03158800Y03151750D02*
D03*
X03184200D02*
D03*
X03209600D02*
D03*
X03218500Y03064750D02*
D03*
Y03039350D02*
D03*
Y03013950D02*
D03*
D113*
X03133400Y03151750D02*
D03*
D114*
X03218500Y03090150D02*
D03*
D115*
X02887050Y03174850D02*
D03*
X02912450D02*
D03*
Y03098650D02*
D03*
D116*
X02887050D02*
D03*
D117*
X03199250Y03181500D02*
D03*
X03229250D02*
D03*
X02725000Y02965227D02*
D03*
Y02989350D02*
D03*
Y03013473D02*
D03*
Y03037596D02*
D03*
Y03061719D02*
D03*
Y03085842D02*
D03*
Y03109966D02*
D03*
Y03134088D02*
D03*
Y03158212D02*
D03*
Y03182335D02*
D03*
X03229500Y02955750D02*
D03*
X03153250Y02977500D02*
D03*
X02745500Y02736000D02*
D03*
X03111250Y02955750D02*
D03*
X02859000Y02913250D02*
D03*
X02937950Y02955750D02*
D03*
X02925250D02*
D03*
X02912250D02*
D03*
X03078250Y02843750D02*
D03*
X03109000Y02847500D02*
D03*
X03220500Y02805500D02*
D03*
Y02780500D02*
D03*
Y02763750D02*
D03*
Y02843000D02*
D03*
Y02830500D02*
D03*
X03026000Y02763750D02*
D03*
Y02780500D02*
D03*
Y02805500D02*
D03*
X02914500Y02847500D02*
D03*
X02883750Y02843750D02*
D03*
X03026000Y02830500D02*
D03*
Y02843000D02*
D03*
X02917750Y02839000D02*
D03*
X02926500Y02824250D02*
D03*
X03121000D02*
D03*
X03112250Y02839000D02*
D03*
X03175250Y02668000D02*
D03*
X03186750D02*
D03*
X03221250D02*
D03*
X03209750D02*
D03*
X03198250D02*
D03*
X02980750D02*
D03*
X02992250D02*
D03*
X03026750D02*
D03*
X03015250D02*
D03*
X03003750D02*
D03*
X03198250Y02609000D02*
D03*
X03209750D02*
D03*
X03221250D02*
D03*
X03186750D02*
D03*
X03175250D02*
D03*
X03175250Y02638500D02*
D03*
X03186750D02*
D03*
X03221250D02*
D03*
X03209750D02*
D03*
X03198250D02*
D03*
X03175250Y02623750D02*
D03*
X03221250D02*
D03*
X03026750D02*
D03*
X02980750D02*
D03*
X03003750Y02638500D02*
D03*
X03015250D02*
D03*
X03026750D02*
D03*
X02992250D02*
D03*
X02980750D02*
D03*
X02980750Y02609000D02*
D03*
X02992250D02*
D03*
X03026750D02*
D03*
X03015250D02*
D03*
X03003750D02*
D03*
X03049875Y03138375D02*
D03*
X02914250Y02742500D02*
D03*
X02914250Y02731000D02*
D03*
X02912750Y02693000D02*
D03*
Y02722000D02*
D03*
X02883750D02*
D03*
Y02693000D02*
D03*
X03078250Y02693000D02*
D03*
X03107250Y02722000D02*
D03*
Y02693000D02*
D03*
X03078250Y02722000D02*
D03*
X03108750Y02731000D02*
D03*
X03108750Y02742500D02*
D03*
X02889250Y02819000D02*
D03*
X02915000Y02829750D02*
D03*
X03109500D02*
D03*
X03083750Y02819000D02*
D03*
X02883750Y02770000D02*
D03*
Y02759000D02*
D03*
X02911250Y02770000D02*
D03*
X03105750D02*
D03*
X03078250Y02759000D02*
D03*
Y02770000D02*
D03*
X02916750Y02812000D02*
D03*
Y02805000D02*
D03*
X02832500Y02843000D02*
D03*
X02736500Y02836000D02*
D03*
Y02824500D02*
D03*
X02747500Y02860000D02*
D03*
Y02850000D02*
D03*
X02782250Y02878750D02*
D03*
Y02904500D02*
D03*
X02756000Y02873500D02*
D03*
Y02904500D02*
D03*
X02725000Y02819250D02*
D03*
Y02842500D02*
D03*
Y02873500D02*
D03*
Y02904500D02*
D03*
Y02935500D02*
D03*
X02756000D02*
D03*
X02787000Y02924250D02*
D03*
Y02935500D02*
D03*
X02824000D02*
D03*
Y02924250D02*
D03*
X02856000D02*
D03*
Y02935500D02*
D03*
X02822750Y02786750D02*
D03*
X02745500Y02725500D02*
D03*
X02759500D02*
D03*
X02773500D02*
D03*
X02802750Y02976000D02*
D03*
X02812750D02*
D03*
X02822750D02*
D03*
X02842750D02*
D03*
X02832750D02*
D03*
X03108750Y02758500D02*
D03*
X03092750Y02759000D02*
D03*
Y02770000D02*
D03*
X02936250Y02751250D02*
D03*
X02947000Y02765000D02*
D03*
X02942750Y02757250D02*
D03*
X02925250Y02727500D02*
D03*
X02931250Y02732500D02*
D03*
X02955000Y02765000D02*
D03*
X02939000D02*
D03*
X03020250Y02746000D02*
D03*
X02977000Y02749250D02*
D03*
X02981000Y02759250D02*
D03*
X03016250Y02706000D02*
D03*
Y02722000D02*
D03*
Y02738000D02*
D03*
Y02754000D02*
D03*
X03011000Y02770000D02*
D03*
X02979750Y02785250D02*
D03*
X02965750Y02804250D02*
D03*
Y02795500D02*
D03*
X02926500Y02807250D02*
D03*
X02923000Y02798500D02*
D03*
X02898250D02*
D03*
X02904650Y02843750D02*
D03*
X03099150D02*
D03*
X03125750Y02732500D02*
D03*
X03119750Y02727500D02*
D03*
X03121000Y02807250D02*
D03*
X03137250Y02757250D02*
D03*
X03141500Y02765000D02*
D03*
X02914250Y02758500D02*
D03*
X03111250Y02805000D02*
D03*
Y02812000D02*
D03*
X03117500Y02798500D02*
D03*
X03092750D02*
D03*
X02992250Y02795500D02*
D03*
X03014250D02*
D03*
X03022950Y02820300D02*
D03*
X03108250Y03009750D02*
D03*
X03170500Y03025500D02*
D03*
X02797750Y02747500D02*
D03*
X02949500Y02997750D02*
D03*
X03098750Y02987250D02*
D03*
X02891900Y02975000D02*
D03*
X03143250Y02996000D02*
D03*
X03138250Y02990500D02*
D03*
X03111750Y02980750D02*
D03*
X03068750Y02955750D02*
D03*
X03058748Y02955750D02*
D03*
X03024748D02*
D03*
X03178500Y02971750D02*
D03*
X03105250Y02975250D02*
D03*
X03141500Y02969750D02*
D03*
X03123250Y02975250D02*
D03*
X03111750Y02969750D02*
D03*
X03170600Y02964250D02*
D03*
X03118250D02*
D03*
X03101000Y03025500D02*
D03*
X03118250Y03041750D02*
D03*
X03148250Y03040250D02*
D03*
X03020000Y02997750D02*
D03*
X03086000Y03034500D02*
D03*
X03108250Y03020250D02*
D03*
X02763500Y02997750D02*
D03*
X02859000Y03006750D02*
D03*
X02821150Y02994500D02*
D03*
X02808350Y03019000D02*
D03*
X02779500Y03069750D02*
D03*
X02933500D02*
D03*
X02901500Y02997750D02*
D03*
X02917500D02*
D03*
Y03031750D02*
D03*
X02747500Y03069750D02*
D03*
Y03031750D02*
D03*
X02738500Y03044750D02*
D03*
X02779500Y02997750D02*
D03*
X02747500D02*
D03*
X02788500Y03044750D02*
D03*
X02850000Y03069750D02*
D03*
X02958500Y03044750D02*
D03*
X02949500Y03069750D02*
D03*
X03020000D02*
D03*
X02833850Y03048500D02*
D03*
X03003850D02*
D03*
X02862750Y03100750D02*
D03*
X02912450Y03126500D02*
D03*
X03012000Y03109750D02*
D03*
X02787500D02*
D03*
X02984750Y03090750D02*
D03*
X02814750D02*
D03*
X02856250Y02975000D02*
D03*
X02872500D02*
D03*
X03001550Y02826750D02*
D03*
X02990748Y02955750D02*
D03*
X03102750Y02955750D02*
D03*
X03196050Y02826750D02*
D03*
X03217450Y02820300D02*
D03*
X03119750Y02955750D02*
D03*
X03132450D02*
D03*
X03185250D02*
D03*
X03219250D02*
D03*
Y02971750D02*
D03*
X03192250Y02998500D02*
D03*
Y02988500D02*
D03*
X03153250D02*
D03*
Y02998500D02*
D03*
X03057250Y03158750D02*
D03*
X03048250Y03147750D02*
D03*
X03086750Y03148500D02*
D03*
X03154250Y03011500D02*
D03*
X03188250D02*
D03*
X03158250Y03040250D02*
D03*
X03083250Y03050250D02*
D03*
X03103250Y03055250D02*
D03*
X03042500Y02997750D02*
D03*
X03058500D02*
D03*
X03074500D02*
D03*
Y03032250D02*
D03*
X03034250Y03040500D02*
D03*
X03103250Y03065250D02*
D03*
X03047000Y03074750D02*
D03*
X03043250Y03065500D02*
D03*
X03082250Y03124250D02*
D03*
X03082250Y03115000D02*
D03*
X03113250Y03105250D02*
D03*
X03086750Y03132500D02*
D03*
X03168250Y03095250D02*
D03*
X03228000Y03137250D02*
D03*
X03196000Y03125250D02*
D03*
Y03091250D02*
D03*
X03130750Y02751250D02*
D03*
X03208750Y02795500D02*
D03*
X03174250Y02785250D02*
D03*
X03160250Y02795500D02*
D03*
Y02804250D02*
D03*
X03186750Y02795500D02*
D03*
X03214750Y02746000D02*
D03*
X03175500Y02759250D02*
D03*
X03133500Y02765000D02*
D03*
X03149500D02*
D03*
X03205500Y02770000D02*
D03*
X03171500Y02749250D02*
D03*
X03210750Y02754000D02*
D03*
Y02738000D02*
D03*
Y02722000D02*
D03*
Y02706000D02*
D03*
X02898250Y02759000D02*
D03*
Y02770000D02*
D03*
X02958000Y02735000D02*
D03*
X02963400Y02740400D02*
D03*
X02952600D02*
D03*
Y02729600D02*
D03*
X02963400D02*
D03*
X02935750Y02614250D02*
D03*
X02925750D02*
D03*
X02930750Y02608000D02*
D03*
Y02620500D02*
D03*
X03152500Y02735000D02*
D03*
X03157900Y02740400D02*
D03*
X03147100D02*
D03*
Y02729600D02*
D03*
X03157900D02*
D03*
X03130250Y02614250D02*
D03*
X03120250D02*
D03*
X03125250Y02608000D02*
D03*
Y02620500D02*
D03*
D118*
X02579750Y02481750D02*
D03*
X02629750D02*
D03*
X02679750D02*
D03*
X02579750Y02531750D02*
D03*
X02629750D02*
D03*
X02679750D02*
D03*
X02579750Y02581750D02*
D03*
X02679750D02*
D03*
X02579750Y02631750D02*
D03*
X02629750D02*
D03*
X02679750D02*
D03*
X02579750Y02681750D02*
D03*
X02629750D02*
D03*
X02679750D02*
D03*
X02579750Y02731750D02*
D03*
X02629750D02*
D03*
X02679750D02*
D03*
X02579750Y02781750D02*
D03*
X02629750D02*
D03*
X02679750D02*
D03*
X02579750Y02831750D02*
D03*
X02629750D02*
D03*
X02679750D02*
D03*
X02579750Y02881750D02*
D03*
X02629750D02*
D03*
X02679750D02*
D03*
X02579750Y02931750D02*
D03*
X02629750D02*
D03*
X02679750D02*
D03*
X02579750Y02981750D02*
D03*
X02629750D02*
D03*
X02679750D02*
D03*
X02579750Y03031750D02*
D03*
X02629750D02*
D03*
X02679750D02*
D03*
X02579750Y03081750D02*
D03*
X02629750D02*
D03*
X02679750D02*
D03*
X02579750Y03131750D02*
D03*
X02629750D02*
D03*
X02679750D02*
D03*
Y03181750D02*
D03*
X02629750D02*
D03*
X02579750D02*
D03*
Y03231750D02*
D03*
X03229750Y03281750D02*
D03*
X02579750D02*
D03*
X02629750D02*
D03*
X02679750D02*
D03*
X02729750D02*
D03*
X02779750D02*
D03*
X02829750D02*
D03*
X02879750D02*
D03*
X02929750D02*
D03*
X02979750D02*
D03*
X03029750D02*
D03*
X03079750D02*
D03*
X03129750D02*
D03*
X03179750D02*
D03*
M02*
