G04*
G04 #@! TF.GenerationSoftware,Altium Limited,Altium Designer,21.8.1 (53)*
G04*
G04 Layer_Color=16711935*
%FSAX44Y44*%
%MOMM*%
G71*
G04*
G04 #@! TF.SameCoordinates,6FBE8801-07E3-48D7-8021-9236AF54F44E*
G04*
G04*
G04 #@! TF.FilePolarity,Negative*
G04*
G01*
G75*
%ADD88C,2.3000*%
G04:AMPARAMS|DCode=89|XSize=2.3mm|YSize=2.3mm|CornerRadius=0.16mm|HoleSize=0mm|Usage=FLASHONLY|Rotation=180.000|XOffset=0mm|YOffset=0mm|HoleType=Round|Shape=RoundedRectangle|*
%AMROUNDEDRECTD89*
21,1,2.3000,1.9800,0,0,180.0*
21,1,1.9800,2.3000,0,0,180.0*
1,1,0.3200,-0.9900,0.9900*
1,1,0.3200,0.9900,0.9900*
1,1,0.3200,0.9900,-0.9900*
1,1,0.3200,-0.9900,-0.9900*
%
%ADD89ROUNDEDRECTD89*%
G04:AMPARAMS|DCode=90|XSize=1.35mm|YSize=1.35mm|CornerRadius=0.1125mm|HoleSize=0mm|Usage=FLASHONLY|Rotation=270.000|XOffset=0mm|YOffset=0mm|HoleType=Round|Shape=RoundedRectangle|*
%AMROUNDEDRECTD90*
21,1,1.3500,1.1250,0,0,270.0*
21,1,1.1250,1.3500,0,0,270.0*
1,1,0.2250,-0.5625,-0.5625*
1,1,0.2250,-0.5625,0.5625*
1,1,0.2250,0.5625,0.5625*
1,1,0.2250,0.5625,-0.5625*
%
%ADD90ROUNDEDRECTD90*%
%ADD91C,1.3500*%
%ADD92C,1.7000*%
G04:AMPARAMS|DCode=93|XSize=1.7mm|YSize=1.7mm|CornerRadius=0.29mm|HoleSize=0mm|Usage=FLASHONLY|Rotation=180.000|XOffset=0mm|YOffset=0mm|HoleType=Round|Shape=RoundedRectangle|*
%AMROUNDEDRECTD93*
21,1,1.7000,1.1200,0,0,180.0*
21,1,1.1200,1.7000,0,0,180.0*
1,1,0.5800,-0.5600,0.5600*
1,1,0.5800,0.5600,0.5600*
1,1,0.5800,0.5600,-0.5600*
1,1,0.5800,-0.5600,-0.5600*
%
%ADD93ROUNDEDRECTD93*%
G04:AMPARAMS|DCode=94|XSize=1.7mm|YSize=1.7mm|CornerRadius=0.29mm|HoleSize=0mm|Usage=FLASHONLY|Rotation=90.000|XOffset=0mm|YOffset=0mm|HoleType=Round|Shape=RoundedRectangle|*
%AMROUNDEDRECTD94*
21,1,1.7000,1.1200,0,0,90.0*
21,1,1.1200,1.7000,0,0,90.0*
1,1,0.5800,0.5600,0.5600*
1,1,0.5800,0.5600,-0.5600*
1,1,0.5800,-0.5600,-0.5600*
1,1,0.5800,-0.5600,0.5600*
%
%ADD94ROUNDEDRECTD94*%
%ADD95C,1.4000*%
G04:AMPARAMS|DCode=96|XSize=1.4mm|YSize=1.4mm|CornerRadius=0.115mm|HoleSize=0mm|Usage=FLASHONLY|Rotation=0.000|XOffset=0mm|YOffset=0mm|HoleType=Round|Shape=RoundedRectangle|*
%AMROUNDEDRECTD96*
21,1,1.4000,1.1700,0,0,0.0*
21,1,1.1700,1.4000,0,0,0.0*
1,1,0.2300,0.5850,-0.5850*
1,1,0.2300,-0.5850,-0.5850*
1,1,0.2300,-0.5850,0.5850*
1,1,0.2300,0.5850,0.5850*
%
%ADD96ROUNDEDRECTD96*%
%ADD97C,0.7000*%
%ADD128R,1.7000X1.9500*%
%ADD129R,0.7000X1.8000*%
%ADD130R,1.7750X1.8000*%
D88*
X03129350Y03220750D02*
D03*
X02959350D02*
D03*
X02619350D02*
D03*
X02789350D02*
D03*
X02670150Y02561750D02*
D03*
X02840150D02*
D03*
X03010150D02*
D03*
X03180150D02*
D03*
D89*
Y03220750D02*
D03*
X03010150D02*
D03*
X02670150D02*
D03*
X02840150D02*
D03*
X02619350Y02561750D02*
D03*
X02789350D02*
D03*
X02959350D02*
D03*
X03129350D02*
D03*
D90*
X02805500Y02901350D02*
D03*
D91*
Y02926750D02*
D03*
Y02952150D02*
D03*
D92*
X03158800Y03151750D02*
D03*
X03184200D02*
D03*
X03209600D02*
D03*
X03218500Y03064750D02*
D03*
Y03039350D02*
D03*
Y03013950D02*
D03*
D93*
X03133400Y03151750D02*
D03*
D94*
X03218500Y03090150D02*
D03*
D95*
X02887050Y03174850D02*
D03*
X02912450D02*
D03*
Y03098650D02*
D03*
D96*
X02887050D02*
D03*
D97*
X02958000Y02735000D02*
D03*
X02963400Y02740400D02*
D03*
X02952600D02*
D03*
Y02729600D02*
D03*
X02963400D02*
D03*
X03152500Y02735000D02*
D03*
X03157900Y02740400D02*
D03*
X03147100D02*
D03*
Y02729600D02*
D03*
X03157900D02*
D03*
D128*
X02930750Y02614250D02*
D03*
X03125250Y02614250D02*
D03*
D129*
X02898250Y02764500D02*
D03*
X03092750D02*
D03*
D130*
X02957875Y02735000D02*
D03*
X03152375Y02735000D02*
D03*
M02*
