G04*
G04 #@! TF.GenerationSoftware,Altium Limited,Altium Designer,21.8.1 (53)*
G04*
G04 Layer_Color=65535*
%FSAX44Y44*%
%MOMM*%
G71*
G04*
G04 #@! TF.SameCoordinates,6FBE8801-07E3-48D7-8021-9236AF54F44E*
G04*
G04*
G04 #@! TF.FilePolarity,Positive*
G04*
G01*
G75*
%ADD10C,0.1500*%
%ADD11C,0.2500*%
%ADD12C,0.4000*%
%ADD13C,0.1800*%
%ADD14C,0.1750*%
%ADD15C,0.2000*%
%ADD16C,0.1200*%
%ADD17C,0.1250*%
%ADD18R,0.5250X1.3500*%
%ADD19R,1.3750X0.2500*%
%ADD20R,0.2500X1.3750*%
%ADD21R,2.9000X0.6000*%
%ADD22R,0.6000X2.9000*%
%ADD23R,1.6000X0.6250*%
%ADD24R,1.7500X0.3750*%
G36*
X02619500Y02580500D02*
X02616214Y02592000D01*
X02622786D01*
X02619500Y02580500D01*
D02*
G37*
G36*
X02789500D02*
X02786214Y02592000D01*
X02792786D01*
X02789500Y02580500D01*
D02*
G37*
G36*
X02959500D02*
X02956214Y02592000D01*
X02962786D01*
X02959500Y02580500D01*
D02*
G37*
G36*
X02819250Y02868500D02*
X02825750Y02875000D01*
X02825750D01*
Y02868500D01*
X02819250D01*
D02*
G37*
G36*
X03129500Y02580500D02*
X03126214Y02592000D01*
X03132786D01*
X03129500Y02580500D01*
D02*
G37*
G36*
X02670000Y03202000D02*
X02673286Y03190500D01*
X02666714D01*
X02670000Y03202000D01*
D02*
G37*
G36*
X02840000D02*
X02843286Y03190500D01*
X02836714D01*
X02840000Y03202000D01*
D02*
G37*
G36*
X03010000D02*
X03013286Y03190500D01*
X03006714D01*
X03010000Y03202000D01*
D02*
G37*
G36*
X03133250Y03138000D02*
X03136536Y03126500D01*
X03129964D01*
X03133250Y03138000D01*
D02*
G37*
G36*
X03204750Y03090300D02*
X03193250Y03087014D01*
Y03093586D01*
X03204750Y03090300D01*
D02*
G37*
G36*
X03180000Y03202000D02*
X03183286Y03190500D01*
X03176714D01*
X03180000Y03202000D01*
D02*
G37*
D10*
X03107750Y02767500D02*
G03*
X03107750Y02761500I00000000J-00003000D01*
G01*
X02795376Y02789250D02*
G03*
X02791124Y02789250I-00002126J00000000D01*
G01*
X02959750Y03030000D02*
G03*
X02959750Y03037500I00000000J00003750D01*
G01*
X02869008Y03131750D02*
G03*
X02869008Y03141750I00000000J00005000D01*
G01*
X02789750Y03030000D02*
G03*
X02789750Y03037500I00000000J00003750D01*
G01*
X02836250Y02702000D02*
G03*
X02836250Y02694500I00000000J-00003750D01*
G01*
X02913250Y02767500D02*
G03*
X02913250Y02761500I00000000J-00003000D01*
G01*
X02885750Y02884000D02*
G03*
X02885750Y02891500I00000000J00003750D01*
G01*
X03021750D02*
G03*
X03021750Y02884000I00000000J-00003750D01*
G01*
X03080250D02*
G03*
X03080250Y02891500I00000000J00003750D01*
G01*
X03216250D02*
G03*
X03216250Y02884000I00000000J-00003750D01*
G01*
X03103200Y03204000D02*
Y03326500D01*
X03206300Y03204000D02*
Y03326500D01*
X03103200D02*
X03206300D01*
X03103200Y03204000D02*
X03206300D01*
X02933200D02*
Y03326500D01*
X03036300Y03204000D02*
Y03326500D01*
X02933200D02*
X03036300D01*
X02933200Y03204000D02*
X03036300D01*
X02593200D02*
Y03326500D01*
X02696300Y03204000D02*
Y03326500D01*
X02593200D02*
X02696300D01*
X02593200Y03204000D02*
X02696300D01*
X02763200D02*
Y03326500D01*
X02866300Y03204000D02*
Y03326500D01*
X02763200D02*
X02866300D01*
X02763200Y03204000D02*
X02866300D01*
X03077750Y02777000D02*
X03107750D01*
X03077750Y02752000D02*
Y02777000D01*
Y02752000D02*
X03107750D01*
Y02767500D02*
Y02777000D01*
Y02752000D02*
Y02761500D01*
X03112500Y02694000D02*
X03141000D01*
Y02680000D02*
Y02694000D01*
X03112500Y02680000D02*
X03141000D01*
X03112500D02*
Y02694000D01*
Y02710000D02*
X03141000D01*
Y02696000D02*
Y02710000D01*
X03112500Y02696000D02*
X03141000D01*
X03112500D02*
Y02710000D01*
X02905250Y02654000D02*
Y02682500D01*
X02891250Y02654000D02*
X02905250D01*
X02891250D02*
Y02682500D01*
X02905250D01*
X02942500Y03000500D02*
X02956500D01*
Y03029000D01*
X02942500D02*
X02956500D01*
X02942500Y03000500D02*
Y03029000D01*
X02926500D02*
X02940500D01*
X02926500Y03000500D02*
Y03029000D01*
Y03000500D02*
X02940500D01*
Y03029000D01*
X02829750Y02789500D02*
Y02818000D01*
X02815750Y02789500D02*
X02829750D01*
X02815750D02*
Y02818000D01*
X02829750D01*
X02813750Y02820500D02*
Y02833750D01*
X02782250Y02820500D02*
X02813750D01*
X02782250Y02833750D02*
X02813750D01*
X02782250Y02820500D02*
Y02833750D01*
X02797250Y02850000D02*
X02825750D01*
Y02836000D02*
Y02850000D01*
X02797250Y02836000D02*
X02825750D01*
X02797250D02*
Y02850000D01*
X02828750Y02893500D02*
Y02938500D01*
X02851250D01*
Y02893500D02*
Y02938500D01*
X02828750Y02893500D02*
X02851250D01*
X02879500Y02943750D02*
Y02969750D01*
X02877000Y02972250D02*
X02879500Y02969750D01*
X02865500Y02972250D02*
X02877000D01*
X02865500Y02943750D02*
X02879500D01*
X02865500D02*
Y02972250D01*
X02884900Y02943750D02*
Y02972250D01*
X02898900D01*
Y02943750D02*
Y02972250D01*
X02884900Y02943750D02*
X02898900D01*
X02863250D02*
Y02972250D01*
X02849250Y02943750D02*
X02863250D01*
X02849250D02*
Y02972250D01*
X02863250D01*
X02789000Y02818250D02*
X02797500D01*
X02795376Y02789250D02*
X02797500D01*
X02789000D02*
X02791124D01*
X02750000Y02843750D02*
X02795000D01*
X02750000D02*
Y02866250D01*
X02795000D01*
Y02843750D02*
Y02866250D01*
X02797250Y02852000D02*
Y02866000D01*
Y02852000D02*
X02825750D01*
Y02866000D01*
X02797250D02*
X02825750D01*
X02740250Y02868500D02*
Y02985000D01*
X02825750D01*
Y02868500D02*
Y02985000D01*
X02740250Y02868500D02*
X02825750D01*
X02846750Y02940750D02*
Y02972250D01*
X02828750Y02940750D02*
Y02972250D01*
X02846750D01*
X02828750Y02940750D02*
X02846750D01*
X03053500Y03174750D02*
X03079500D01*
X03051000Y03172250D02*
X03053500Y03174750D01*
X03051000Y03160750D02*
Y03172250D01*
X03079500Y03160750D02*
Y03174750D01*
X03051000Y03160750D02*
X03079500D01*
X03088750D02*
X03117250D01*
X03088750D02*
Y03174750D01*
X03117250D01*
Y03160750D02*
Y03174750D01*
X03188000Y02978750D02*
X03216500D01*
Y02964750D02*
Y02978750D01*
X03188000Y02964750D02*
X03216500D01*
X03188000D02*
Y02978750D01*
X03157000Y03002500D02*
X03188500D01*
X03157000Y02984500D02*
X03188500D01*
X03157000D02*
Y03002500D01*
X03188500Y02984500D02*
Y03002500D01*
X03157000Y03004500D02*
X03185500D01*
X03157000D02*
Y03018500D01*
X03185500D01*
Y03004500D02*
Y03018500D01*
X03035500Y03000500D02*
X03049500D01*
Y03029000D01*
X03035500D02*
X03049500D01*
X03035500Y03000500D02*
Y03029000D01*
X03037000Y03033500D02*
X03065500D01*
X03037000D02*
Y03047500D01*
X03065500D01*
Y03033500D02*
Y03047500D01*
Y03000500D02*
Y03029000D01*
X03051500Y03000500D02*
X03065500D01*
X03051500D02*
Y03029000D01*
X03065500D01*
X03067500Y03035000D02*
Y03063500D01*
X03081500D01*
Y03035000D02*
Y03063500D01*
X03067500Y03035000D02*
X03081500D01*
Y03000500D02*
Y03029000D01*
X03067500Y03000500D02*
X03081500D01*
X03067500D02*
Y03029000D01*
X03081500D01*
X03221000Y03106000D02*
Y03134500D01*
X03235000D01*
Y03106000D02*
Y03134500D01*
X03221000Y03106000D02*
X03235000D01*
X03203000Y03094000D02*
Y03122500D01*
X03189000Y03094000D02*
X03203000D01*
X03189000D02*
Y03122500D01*
X03203000D01*
X03219000Y03106000D02*
Y03134500D01*
X03205000Y03106000D02*
X03219000D01*
X03205000D02*
Y03134500D01*
X03219000D01*
X03027498Y02948750D02*
X03055998D01*
X03027498D02*
Y02962750D01*
X03055998D01*
Y02948750D02*
Y02962750D01*
X03071500Y02962750D02*
X03100000D01*
Y02948750D02*
Y02962750D01*
X03071500Y02948750D02*
X03100000D01*
X03071500D02*
Y02962750D01*
X03051000Y03122000D02*
X03079500D01*
Y03108000D02*
Y03122000D01*
X03051000Y03108000D02*
X03079500D01*
X03051000D02*
Y03122000D01*
X03037000Y03049500D02*
X03065500D01*
X03037000D02*
Y03063500D01*
X03065500D01*
Y03049500D02*
Y03063500D01*
X03051000Y03138000D02*
X03079500D01*
Y03124000D02*
Y03138000D01*
X03051000Y03124000D02*
X03079500D01*
X03051000D02*
Y03138000D01*
Y03140750D02*
X03079500D01*
X03051000D02*
Y03154750D01*
X03079500D01*
Y03140750D02*
Y03154750D01*
X03104750Y03126250D02*
Y03154750D01*
X03118750D01*
Y03126250D02*
Y03154750D01*
X03104750Y03126250D02*
X03118750D01*
X03102750D02*
Y03154750D01*
X03088750Y03126250D02*
X03102750D01*
X03088750D02*
Y03154750D01*
X03102750D01*
X03084750Y03021750D02*
X03186750D01*
Y03123750D01*
X03084750D02*
X03186750D01*
X03084750Y03021750D02*
Y03123750D01*
X03049000Y03065500D02*
X03081500D01*
X03049000Y03106000D02*
X03081500D01*
X03049000Y03065500D02*
Y03106000D01*
X03081500Y03065500D02*
Y03106000D01*
X02740500Y02787250D02*
Y02833250D01*
X02769500Y02787250D02*
Y02833250D01*
X02778250Y02730500D02*
Y02775000D01*
X02754750Y02730500D02*
X02778250D01*
X02754750D02*
Y02775000D01*
X02778250D01*
X02754500Y03038500D02*
Y03067000D01*
X02740500Y03038500D02*
X02754500D01*
X02740500D02*
Y03067000D01*
X02754500D01*
X02740500Y03000500D02*
X02754500D01*
Y03029000D01*
X02740500D02*
X02754500D01*
X02740500Y03000500D02*
Y03029000D01*
X02924500Y03000500D02*
Y03029000D01*
X02910500Y03000500D02*
X02924500D01*
X02910500D02*
Y03029000D01*
X02924500D01*
X02894500Y03000500D02*
X02908500D01*
Y03029000D01*
X02894500D02*
X02908500D01*
X02894500Y03000500D02*
Y03029000D01*
X03027000Y03000500D02*
Y03029000D01*
X03013000Y03000500D02*
X03027000D01*
X03013000D02*
Y03029000D01*
X03027000D01*
X03013000Y03038500D02*
Y03067000D01*
X03027000D01*
Y03038500D02*
Y03067000D01*
X03013000Y03038500D02*
X03027000D01*
X02940500D02*
Y03067000D01*
X02926500Y03038500D02*
X02940500D01*
X02926500D02*
Y03067000D01*
X02940500D01*
X02843000Y03038500D02*
Y03067000D01*
X02857000D01*
Y03038500D02*
Y03067000D01*
X02843000Y03038500D02*
X02857000D01*
Y03000500D02*
Y03029000D01*
X02843000Y03000500D02*
X02857000D01*
X02843000D02*
Y03029000D01*
X02857000D01*
X02770500Y03038500D02*
Y03067000D01*
X02756500Y03038500D02*
X02770500D01*
X02756500D02*
Y03067000D01*
X02770500D01*
Y03000500D02*
Y03029000D01*
X02756500Y03000500D02*
X02770500D01*
X02756500D02*
Y03029000D01*
X02770500D01*
X02772500Y03000500D02*
Y03029000D01*
X02786500D01*
Y03000500D02*
Y03029000D01*
X02772500Y03000500D02*
X02786500D01*
X02956500Y03038500D02*
Y03067000D01*
X02942500Y03038500D02*
X02956500D01*
X02942500D02*
Y03067000D01*
X02956500D01*
X02959750Y03037500D02*
Y03050000D01*
Y03017500D02*
Y03030000D01*
Y03050000D02*
X03009750D01*
Y03017500D02*
Y03050000D01*
X02959750Y03017500D02*
X03009750D01*
X02948500Y03107500D02*
X02966500D01*
X02948500Y03076000D02*
X02966500D01*
Y03107500D01*
X02948500Y03076000D02*
Y03107500D01*
X03003000D02*
X03021000D01*
X03003000Y03076000D02*
X03021000D01*
Y03107500D01*
X03003000Y03076000D02*
Y03107500D01*
X02869000Y03141750D02*
Y03186500D01*
Y03087000D02*
Y03131750D01*
Y03087000D02*
X02930500D01*
Y03186500D01*
X02869000D02*
X02930500D01*
X02894250Y03084250D02*
X02916750D01*
X02894250Y03039250D02*
Y03084250D01*
Y03039250D02*
X02916750D01*
Y03084250D01*
X02818750Y03180750D02*
X02861750D01*
X02818750Y03112750D02*
Y03180750D01*
X02861750Y03115750D02*
Y03180750D01*
X02858750Y03112750D02*
X02861750Y03115750D01*
X02818750Y03112750D02*
X02858750D01*
X02937750Y03180750D02*
X02980750D01*
X02937750Y03112750D02*
Y03180750D01*
X02980750Y03115750D02*
Y03180750D01*
X02977750Y03112750D02*
X02980750Y03115750D01*
X02937750Y03112750D02*
X02977750D01*
X02988750Y03180750D02*
X03031750D01*
X02988750Y03112750D02*
Y03180750D01*
X03031750Y03115750D02*
Y03180750D01*
X03028750Y03112750D02*
X03031750Y03115750D01*
X02988750Y03112750D02*
X03028750D01*
X02869000Y03084250D02*
X02891500D01*
X02869000Y03039250D02*
Y03084250D01*
Y03039250D02*
X02891500D01*
Y03084250D01*
X02786500Y03038500D02*
Y03067000D01*
X02772500Y03038500D02*
X02786500D01*
X02772500D02*
Y03067000D01*
X02786500D01*
X02789750Y03037500D02*
Y03050000D01*
Y03017500D02*
Y03030000D01*
Y03050000D02*
X02839750D01*
Y03017500D02*
Y03050000D01*
X02789750Y03017500D02*
X02839750D01*
X02833000Y03107500D02*
X02851000D01*
X02833000Y03076000D02*
X02851000D01*
Y03107500D01*
X02833000Y03076000D02*
Y03107500D01*
X02778500D02*
X02796500D01*
X02778500Y03076000D02*
X02796500D01*
Y03107500D01*
X02778500Y03076000D02*
Y03107500D01*
X02767750Y03180750D02*
X02810750D01*
X02767750Y03112750D02*
Y03180750D01*
X02810750Y03115750D02*
Y03180750D01*
X02807750Y03112750D02*
X02810750Y03115750D01*
X02767750Y03112750D02*
X02807750D01*
X02696300Y02456000D02*
Y02578500D01*
X02593200Y02456000D02*
Y02578500D01*
Y02456000D02*
X02696300D01*
X02593200Y02578500D02*
X02696300D01*
X02815750Y02741250D02*
Y02769750D01*
X02829750D01*
Y02741250D02*
Y02769750D01*
X02815750Y02741250D02*
X02829750D01*
X02813750D02*
Y02769750D01*
X02799750Y02741250D02*
X02813750D01*
X02799750D02*
Y02769750D01*
X02813750D01*
X02793250Y02678250D02*
Y02718250D01*
X02836250D01*
X02793250Y02678250D02*
X02836250D01*
Y02702000D02*
Y02718250D01*
Y02678250D02*
Y02694500D01*
X02791750Y02628250D02*
X02837750D01*
X02791750Y02657250D02*
X02837750D01*
X02754750Y02605500D02*
Y02650000D01*
X02778250D01*
Y02605500D02*
Y02650000D01*
X02754750Y02605500D02*
X02778250D01*
X02993498Y02948750D02*
X03021998D01*
X02993498D02*
Y02962750D01*
X03021998D01*
Y02948750D02*
Y02962750D01*
X03156500Y02767500D02*
Y02796000D01*
X03142500Y02767500D02*
X03156500D01*
X03142500D02*
Y02796000D01*
X03156500D01*
X03126500Y02767500D02*
Y02796000D01*
X03140500D01*
Y02767500D02*
Y02796000D01*
X03126500Y02767500D02*
X03140500D01*
X03110500D02*
Y02796000D01*
X03124500D01*
Y02767500D02*
Y02796000D01*
X03110500Y02767500D02*
X03124500D01*
X03158500Y02763000D02*
Y02791500D01*
X03172500D01*
Y02763000D02*
Y02791500D01*
X03158500Y02763000D02*
X03172500D01*
X03174500D02*
X03203000D01*
X03174500D02*
Y02777000D01*
X03203000D01*
Y02763000D02*
Y02777000D01*
X03078500Y02822750D02*
X03107000D01*
X03078500D02*
Y02836750D01*
X03107000D01*
Y02822750D02*
Y02836750D01*
X03201750Y02798000D02*
Y02826500D01*
X03215750D01*
Y02798000D02*
Y02826500D01*
X03201750Y02798000D02*
X03215750D01*
X03179750D02*
Y02826500D01*
X03193750D01*
Y02798000D02*
Y02826500D01*
X03179750Y02798000D02*
X03193750D01*
X03163750D02*
Y02826500D01*
X03177750D01*
Y02798000D02*
Y02826500D01*
X03163750Y02798000D02*
X03177750D01*
X03142500D02*
Y02826500D01*
X03156500D01*
Y02798000D02*
Y02826500D01*
X03142500Y02798000D02*
X03156500D01*
X03126500D02*
Y02826500D01*
X03140500D01*
Y02798000D02*
Y02826500D01*
X03126500Y02798000D02*
X03140500D01*
X03007250D02*
Y02826500D01*
X03021250D01*
Y02798000D02*
Y02826500D01*
X03007250Y02798000D02*
X03021250D01*
X02985250D02*
Y02826500D01*
X02999250D01*
Y02798000D02*
Y02826500D01*
X02985250Y02798000D02*
X02999250D01*
X02948000D02*
Y02826500D01*
X02962000D01*
Y02798000D02*
Y02826500D01*
X02948000Y02798000D02*
X02962000D01*
X02932000D02*
Y02826500D01*
X02946000D01*
Y02798000D02*
Y02826500D01*
X02932000Y02798000D02*
X02946000D01*
X02969250D02*
Y02826500D01*
X02983250D01*
Y02798000D02*
Y02826500D01*
X02969250Y02798000D02*
X02983250D01*
X02964000Y02763000D02*
Y02791500D01*
X02978000D01*
Y02763000D02*
Y02791500D01*
X02964000Y02763000D02*
X02978000D01*
X02980000D02*
X03008500D01*
X02980000D02*
Y02777000D01*
X03008500D01*
Y02763000D02*
Y02777000D01*
X02884000Y02822750D02*
X02912500D01*
X02884000D02*
Y02836750D01*
X02912500D01*
Y02822750D02*
Y02836750D01*
X02887000Y02685000D02*
Y02730000D01*
X02909500D01*
Y02685000D02*
Y02730000D01*
X02887000Y02685000D02*
X02909500D01*
X02882500Y02817000D02*
X02914000D01*
X02882500Y02799000D02*
X02914000D01*
X02882500D02*
Y02817000D01*
X02914000Y02799000D02*
Y02817000D01*
X02932000Y02767500D02*
Y02796000D01*
X02946000D01*
Y02767500D02*
Y02796000D01*
X02932000Y02767500D02*
X02946000D01*
X02962000D02*
Y02796000D01*
X02948000Y02767500D02*
X02962000D01*
X02948000D02*
Y02796000D01*
X02962000D01*
X02916000Y02767500D02*
Y02796000D01*
X02930000D01*
Y02767500D02*
Y02796000D01*
X02916000Y02767500D02*
X02930000D01*
X02866300Y02456000D02*
Y02578500D01*
X02763200Y02456000D02*
Y02578500D01*
Y02456000D02*
X02866300D01*
X02763200Y02578500D02*
X02866300D01*
X03099750Y02654000D02*
Y02682500D01*
X03085750Y02654000D02*
X03099750D01*
X03085750D02*
Y02682500D01*
X03099750D01*
X03145500Y02634000D02*
Y02679500D01*
Y02634000D02*
X03161500D01*
Y02679500D01*
X03145500D02*
X03161500D01*
X02951000Y02634000D02*
Y02679500D01*
Y02634000D02*
X02967000D01*
Y02679500D01*
X02951000D02*
X02967000D01*
X02883250Y02777000D02*
X02913250D01*
X02883250Y02752000D02*
Y02777000D01*
Y02752000D02*
X02913250D01*
Y02767500D02*
Y02777000D01*
Y02752000D02*
Y02761500D01*
X02885750Y02866000D02*
Y02884000D01*
Y02891500D02*
Y02909500D01*
X02910750D01*
Y02866000D02*
Y02909500D01*
X02885750Y02866000D02*
X02910750D01*
X03021750Y02891500D02*
Y02925750D01*
X02917750D02*
X03021750D01*
Y02849750D02*
Y02884000D01*
X02917750Y02849750D02*
X03021750D01*
X02917750D02*
Y02925750D01*
X03080250Y02866000D02*
Y02884000D01*
Y02891500D02*
Y02909500D01*
X03105250D01*
Y02866000D02*
Y02909500D01*
X03080250Y02866000D02*
X03105250D01*
X03216500Y02948750D02*
Y02962750D01*
X03188000D02*
X03216500D01*
X03188000Y02948750D02*
Y02962750D01*
Y02948750D02*
X03216500D01*
X03216250Y02891500D02*
Y02925750D01*
X03112250D02*
X03216250D01*
Y02849750D02*
Y02884000D01*
X03112250Y02849750D02*
X03216250D01*
X03112250D02*
Y02925750D01*
X02916000Y02764750D02*
X02930000D01*
X02916000Y02736250D02*
Y02764750D01*
Y02736250D02*
X02930000D01*
Y02764750D01*
X03013750Y02699000D02*
Y02713000D01*
X02985250D02*
X03013750D01*
X02985250Y02699000D02*
Y02713000D01*
Y02699000D02*
X03013750D01*
Y02731000D02*
Y02745000D01*
X02985250D02*
X03013750D01*
X02985250Y02731000D02*
Y02745000D01*
Y02731000D02*
X03013750D01*
Y02747000D02*
Y02761000D01*
X02985250D02*
X03013750D01*
X02985250Y02747000D02*
Y02761000D01*
Y02747000D02*
X03013750D01*
Y02715000D02*
Y02729000D01*
X02985250D02*
X03013750D01*
X02985250Y02715000D02*
Y02729000D01*
Y02715000D02*
X03013750D01*
X02948500Y02681500D02*
X02962500D01*
Y02710000D01*
X02948500D02*
X02962500D01*
X02948500Y02681500D02*
Y02710000D01*
X02918000Y02696000D02*
Y02710000D01*
Y02696000D02*
X02946500D01*
Y02710000D01*
X02918000D02*
X02946500D01*
X02918000Y02680000D02*
Y02694000D01*
Y02680000D02*
X02946500D01*
Y02694000D01*
X02918000D02*
X02946500D01*
X02886500Y02605500D02*
X02910000D01*
Y02650000D01*
X02886500D02*
X02910000D01*
X02886500Y02605500D02*
Y02650000D01*
X02933200Y02578500D02*
X03036300D01*
X02933200Y02456000D02*
X03036300D01*
X02933200D02*
Y02578500D01*
X03036300Y02456000D02*
Y02578500D01*
X03108500Y02799000D02*
Y02817000D01*
X03077000Y02799000D02*
Y02817000D01*
Y02799000D02*
X03108500D01*
X03077000Y02817000D02*
X03108500D01*
X03110500Y02764750D02*
X03124500D01*
X03110500Y02736250D02*
Y02764750D01*
Y02736250D02*
X03124500D01*
Y02764750D01*
X03081500Y02685000D02*
X03104000D01*
Y02730000D01*
X03081500D02*
X03104000D01*
X03081500Y02685000D02*
Y02730000D01*
X03143000Y02681500D02*
X03157000D01*
Y02710000D01*
X03143000D02*
X03157000D01*
X03143000Y02681500D02*
Y02710000D01*
X03208250Y02747000D02*
Y02761000D01*
X03179750D02*
X03208250D01*
X03179750Y02747000D02*
Y02761000D01*
Y02747000D02*
X03208250D01*
Y02731000D02*
Y02745000D01*
X03179750D02*
X03208250D01*
X03179750Y02731000D02*
Y02745000D01*
Y02731000D02*
X03208250D01*
Y02715000D02*
Y02729000D01*
X03179750D02*
X03208250D01*
X03179750Y02715000D02*
Y02729000D01*
Y02715000D02*
X03208250D01*
Y02699000D02*
Y02713000D01*
X03179750D02*
X03208250D01*
X03179750Y02699000D02*
Y02713000D01*
Y02699000D02*
X03208250D01*
X03103200Y02578500D02*
X03206300D01*
X03103200Y02456000D02*
X03206300D01*
X03103200D02*
Y02578500D01*
X03206300Y02456000D02*
Y02578500D01*
X03081000Y02605500D02*
X03104500D01*
Y02650000D01*
X03081000D02*
X03104500D01*
X03081000Y02605500D02*
Y02650000D01*
D11*
X02805700Y02786250D02*
G03*
X02805700Y02786250I-00001200J00000000D01*
G01*
X02836500Y02728250D02*
G03*
X02836500Y02728250I-00001000J00000000D01*
G01*
X03232500Y02685000D02*
G03*
X03232500Y02685000I-00001250J00000000D01*
G01*
X03038000D02*
G03*
X03038000Y02685000I-00001250J00000000D01*
G01*
X02884750Y02855500D02*
G03*
X02884750Y02855500I-00001000J00000000D01*
G01*
X03079250D02*
G03*
X03079250Y02855500I-00001000J00000000D01*
G01*
D12*
X03095250Y03114500D02*
G03*
X03095250Y03114500I-00001250J00000000D01*
G01*
D13*
X02980800Y02757000D02*
G03*
X02980800Y02757000I-00000800J00000000D01*
G01*
X03175300Y02757000D02*
G03*
X03175300Y02757000I-00000800J00000000D01*
G01*
D14*
X02914750Y02631750D02*
G03*
X02914750Y02631750I-00000750J00000000D01*
G01*
X03109250Y02631750D02*
G03*
X03109250Y02631750I-00000750J00000000D01*
G01*
D15*
X03126100Y03139750D02*
X03222300D01*
X03121100Y03144750D02*
X03126100Y03139750D01*
X03222300D02*
Y03163750D01*
X03121100Y03144750D02*
Y03163750D01*
X03222300D01*
X03206500Y03001250D02*
Y03097450D01*
X03211500Y03102450D01*
X03206500Y03001250D02*
X03230500D01*
X03211500Y03102450D02*
X03230500D01*
Y03001250D02*
Y03102450D01*
X02999750Y03084750D02*
Y03089750D01*
X02991500Y03084750D02*
X02999750D01*
X02969750D02*
Y03089750D01*
Y03084750D02*
X02978000D01*
X02829750D02*
Y03089750D01*
X02821500Y03084750D02*
X02829750D01*
X02799750D02*
Y03089750D01*
Y03084750D02*
X02808000D01*
X03164750Y02640250D02*
Y02671250D01*
X03231750Y02640250D02*
Y02671250D01*
X03164750Y02640250D02*
X03231750D01*
X03164750Y02671250D02*
X03231750D01*
X02970250Y02640250D02*
Y02671250D01*
X03037250Y02640250D02*
Y02671250D01*
X02970250Y02640250D02*
X03037250D01*
X02970250Y02671250D02*
X03037250D01*
D16*
X02937000Y02756000D02*
X02942000D01*
X02937000Y02751000D02*
Y02756000D01*
X02937000Y02714000D02*
Y02719000D01*
Y02714000D02*
X02942000D01*
X02974000Y02714000D02*
X02979000D01*
Y02719000D01*
X02976750Y02756000D02*
X02979000Y02753750D01*
X02974000Y02756000D02*
X02976750D01*
X02979000Y02751000D02*
Y02753750D01*
X03131500Y02756000D02*
X03136500D01*
X03131500Y02751000D02*
Y02756000D01*
X03131500Y02714000D02*
Y02719000D01*
Y02714000D02*
X03136500D01*
X03168500Y02714000D02*
X03173500D01*
Y02719000D01*
X03171250Y02756000D02*
X03173500Y02753750D01*
X03168500Y02756000D02*
X03171250D01*
X03173500Y02751000D02*
Y02753750D01*
X03148086Y03198749D02*
X03153417Y03190751D01*
Y03198749D02*
X03148086Y03190751D01*
X03156083Y03197416D02*
X03157416Y03198749D01*
X03160081D01*
X03161414Y03197416D01*
Y03196083D01*
X03160081Y03194750D01*
X03161414Y03193417D01*
Y03192084D01*
X03160081Y03190751D01*
X03157416D01*
X03156083Y03192084D01*
Y03193417D01*
X03157416Y03194750D01*
X03156083Y03196083D01*
Y03197416D01*
X03157416Y03194750D02*
X03160081D01*
X03036086Y03198749D02*
X03041417Y03190751D01*
Y03198749D02*
X03036086Y03190751D01*
X03044083Y03197416D02*
X03045416Y03198749D01*
X03048082D01*
X03049414Y03197416D01*
Y03196083D01*
X03048082Y03194750D01*
X03046749D01*
X03048082D01*
X03049414Y03193417D01*
Y03192084D01*
X03048082Y03190751D01*
X03045416D01*
X03044083Y03192084D01*
X03024087Y03095749D02*
Y03090417D01*
X03026753Y03087751D01*
X03029418Y03090417D01*
Y03095749D01*
X03032084D02*
Y03087751D01*
X03036083D01*
X03037416Y03089084D01*
Y03094416D01*
X03036083Y03095749D01*
X03032084D01*
X03045413D02*
X03042747Y03094416D01*
X03040081Y03091750D01*
Y03089084D01*
X03041414Y03087751D01*
X03044080D01*
X03045413Y03089084D01*
Y03090417D01*
X03044080Y03091750D01*
X03040081D01*
X02638086Y03198749D02*
X02643417Y03190751D01*
Y03198749D02*
X02638086Y03190751D01*
X02646083Y03198749D02*
X02651414D01*
Y03197416D01*
X02646083Y03192084D01*
Y03190751D01*
X02750085Y03198749D02*
X02755417Y03190751D01*
Y03198749D02*
X02750085Y03190751D01*
X02763415D02*
X02758083D01*
X02763415Y03196083D01*
Y03197416D01*
X02762082Y03198749D01*
X02759416D01*
X02758083Y03197416D01*
X03053253Y02760501D02*
X03047921D01*
X03053253Y02765833D01*
Y02767166D01*
X03051920Y02768499D01*
X03049254D01*
X03047921Y02767166D01*
X03055918Y02768499D02*
Y02760501D01*
X03059917D01*
X03061250Y02761834D01*
Y02767166D01*
X03059917Y02768499D01*
X03055918D01*
X03063916Y02760501D02*
Y02765833D01*
X03066582Y02768499D01*
X03069247Y02765833D01*
Y02760501D01*
Y02764500D01*
X03063916D01*
X03071913Y02760501D02*
X03074579D01*
X03073246D01*
Y02768499D01*
X03071913Y02767166D01*
X03095420Y02586001D02*
X03090088D01*
X03095420Y02591333D01*
Y02592666D01*
X03094087Y02593999D01*
X03091421D01*
X03090088Y02592666D01*
X03098086Y02593999D02*
Y02586001D01*
X03102084D01*
X03103417Y02587334D01*
Y02592666D01*
X03102084Y02593999D01*
X03098086D01*
X03106083Y02586001D02*
Y02591333D01*
X03108749Y02593999D01*
X03111414Y02591333D01*
Y02586001D01*
Y02590000D01*
X03106083D01*
X03119412Y02586001D02*
X03114080D01*
X03119412Y02591333D01*
Y02592666D01*
X03118079Y02593999D01*
X03115413D01*
X03114080Y02592666D01*
X02916255Y02586001D02*
X02918920D01*
X02917587D01*
Y02593999D01*
X02916255Y02592666D01*
X02922919Y02593999D02*
Y02586001D01*
X02926918D01*
X02928251Y02587334D01*
Y02592666D01*
X02926918Y02593999D01*
X02922919D01*
X02930916Y02586001D02*
Y02591333D01*
X02933582Y02593999D01*
X02936248Y02591333D01*
Y02586001D01*
Y02590000D01*
X02930916D01*
X02944246Y02586001D02*
X02938914D01*
X02944246Y02591333D01*
Y02592666D01*
X02942913Y02593999D01*
X02940247D01*
X02938914Y02592666D01*
X03184920Y02781001D02*
X03179588D01*
X03184920Y02786333D01*
Y02787666D01*
X03183587Y02788999D01*
X03180921D01*
X03179588Y02787666D01*
X03187585Y02788999D02*
Y02781001D01*
X03191584D01*
X03192917Y02782334D01*
Y02787666D01*
X03191584Y02788999D01*
X03187585D01*
X03195583Y02781001D02*
Y02786333D01*
X03198249Y02788999D01*
X03200915Y02786333D01*
Y02781001D01*
Y02785000D01*
X03195583D01*
X03203580Y02787666D02*
X03204913Y02788999D01*
X03207579D01*
X03208912Y02787666D01*
Y02786333D01*
X03207579Y02785000D01*
X03206246D01*
X03207579D01*
X03208912Y02783667D01*
Y02782334D01*
X03207579Y02781001D01*
X03204913D01*
X03203580Y02782334D01*
X02853837Y02760501D02*
X02856503D01*
X02855170D01*
Y02768499D01*
X02853837Y02767166D01*
X02860502Y02768499D02*
Y02760501D01*
X02864501D01*
X02865834Y02761834D01*
Y02767166D01*
X02864501Y02768499D01*
X02860502D01*
X02868499Y02760501D02*
Y02765833D01*
X02871165Y02768499D01*
X02873831Y02765833D01*
Y02760501D01*
Y02764500D01*
X02868499D01*
X02876497Y02760501D02*
X02879163D01*
X02877830D01*
Y02768499D01*
X02876497Y02767166D01*
X02782837Y02782499D02*
Y02777167D01*
X02785503Y02774501D01*
X02788168Y02777167D01*
Y02782499D01*
X02790834D02*
X02796166D01*
X02793500D01*
Y02774501D01*
X02804163D02*
X02798831D01*
X02804163Y02779833D01*
Y02781166D01*
X02802830Y02782499D01*
X02800164D01*
X02798831Y02781166D01*
X03025170Y03079249D02*
X03030501D01*
Y03077916D01*
X03025170Y03072584D01*
Y03071251D01*
X03030501D01*
X03038499Y03072584D02*
Y03077916D01*
X03037166Y03079249D01*
X03034500D01*
X03033167Y03077916D01*
Y03072584D01*
X03034500Y03071251D01*
X03037166D01*
X03035833Y03073917D02*
X03038499Y03071251D01*
X03037166D02*
X03038499Y03072584D01*
X03041165Y03071251D02*
X03043830D01*
X03042497D01*
Y03079249D01*
X03041165Y03077916D01*
X03208753Y02997249D02*
X03214085Y02989251D01*
Y02997249D02*
X03208753Y02989251D01*
X03216750D02*
X03219417D01*
X03218083D01*
Y02997249D01*
X03216750Y02995916D01*
X03223415D02*
X03224748Y02997249D01*
X03227414D01*
X03228747Y02995916D01*
Y02990584D01*
X03227414Y02989251D01*
X03224748D01*
X03223415Y02990584D01*
Y02995916D01*
X03166335Y03175749D02*
X03171667Y03167751D01*
Y03175749D02*
X03166335Y03167751D01*
X03174333Y03169084D02*
X03175666Y03167751D01*
X03178332D01*
X03179665Y03169084D01*
Y03174416D01*
X03178332Y03175749D01*
X03175666D01*
X03174333Y03174416D01*
Y03173083D01*
X03175666Y03171750D01*
X03179665D01*
X02638086Y02591749D02*
X02643417Y02583751D01*
Y02591749D02*
X02638086Y02583751D01*
X02651414Y02591749D02*
X02648749Y02590416D01*
X02646083Y02587750D01*
Y02585084D01*
X02647416Y02583751D01*
X02650081D01*
X02651414Y02585084D01*
Y02586417D01*
X02650081Y02587750D01*
X02646083D01*
X02808086Y02591749D02*
X02813417Y02583751D01*
Y02591749D02*
X02808086Y02583751D01*
X02821414Y02591749D02*
X02816083D01*
Y02587750D01*
X02818749Y02589083D01*
X02820081D01*
X02821414Y02587750D01*
Y02585084D01*
X02820081Y02583751D01*
X02817416D01*
X02816083Y02585084D01*
X02978086Y02591749D02*
X02983417Y02583751D01*
Y02591749D02*
X02978086Y02583751D01*
X02990081D02*
Y02591749D01*
X02986083Y02587750D01*
X02991414D01*
X03149418Y02591749D02*
X03154750Y02583751D01*
Y02591749D02*
X03149418Y02583751D01*
X03157416D02*
X03160081D01*
X03158749D01*
Y02591749D01*
X03157416Y02590416D01*
X02715587Y02814999D02*
Y02809667D01*
X02718253Y02807001D01*
X02720918Y02809667D01*
Y02814999D01*
X02723584D02*
Y02807001D01*
X02727583D01*
X02728916Y02808334D01*
Y02813666D01*
X02727583Y02814999D01*
X02723584D01*
X02731582Y02813666D02*
X02732914Y02814999D01*
X02735580D01*
X02736913Y02813666D01*
Y02812333D01*
X02735580Y02811000D01*
X02736913Y02809667D01*
Y02808334D01*
X02735580Y02807001D01*
X02732914D01*
X02731582Y02808334D01*
Y02809667D01*
X02732914Y02811000D01*
X02731582Y02812333D01*
Y02813666D01*
X02732914Y02811000D02*
X02735580D01*
X02816587Y02830499D02*
Y02825167D01*
X02819253Y02822501D01*
X02821918Y02825167D01*
Y02830499D01*
X02824584D02*
Y02822501D01*
X02828583D01*
X02829916Y02823834D01*
Y02829166D01*
X02828583Y02830499D01*
X02824584D01*
X02832581D02*
X02837913D01*
Y02829166D01*
X02832581Y02823834D01*
Y02822501D01*
X02754337Y03095749D02*
Y03090417D01*
X02757003Y03087751D01*
X02759668Y03090417D01*
Y03095749D01*
X02762334D02*
Y03087751D01*
X02766333D01*
X02767666Y03089084D01*
Y03094416D01*
X02766333Y03095749D01*
X02762334D01*
X02775663D02*
X02770332D01*
Y03091750D01*
X02772997Y03093083D01*
X02774330D01*
X02775663Y03091750D01*
Y03089084D01*
X02774330Y03087751D01*
X02771664D01*
X02770332Y03089084D01*
X02806337Y02624999D02*
Y02619667D01*
X02809003Y02617001D01*
X02811668Y02619667D01*
Y02624999D01*
X02814334D02*
Y02617001D01*
X02818333D01*
X02819666Y02618334D01*
Y02623666D01*
X02818333Y02624999D01*
X02814334D01*
X02826330Y02617001D02*
Y02624999D01*
X02822332Y02621000D01*
X02827663D01*
X02723086Y02893999D02*
Y02887334D01*
X02724418Y02886001D01*
X02727084D01*
X02728417Y02887334D01*
Y02893999D01*
X02736414Y02886001D02*
X02731083D01*
X02736414Y02891333D01*
Y02892666D01*
X02735082Y02893999D01*
X02732416D01*
X02731083Y02892666D01*
X02777168Y02702499D02*
Y02695834D01*
X02778501Y02694501D01*
X02781167D01*
X02782500Y02695834D01*
Y02702499D01*
X02785166Y02694501D02*
X02787832D01*
X02786499D01*
Y02702499D01*
X02785166Y02701166D01*
X02899750Y03197666D02*
X02898417Y03198999D01*
X02895751D01*
X02894418Y03197666D01*
Y03196333D01*
X02895751Y03195000D01*
X02898417D01*
X02899750Y03193667D01*
Y03192334D01*
X02898417Y03191001D01*
X02895751D01*
X02894418Y03192334D01*
X02902416Y03191001D02*
X02905081D01*
X02903749D01*
Y03198999D01*
X02902416Y03197666D01*
X02861837Y02987249D02*
Y02979251D01*
Y02983250D01*
X02867168D01*
Y02987249D01*
Y02979251D01*
X02869834Y02987249D02*
Y02979251D01*
X02875166D01*
X02883163D02*
X02877832D01*
X02883163Y02984583D01*
Y02985916D01*
X02881830Y02987249D01*
X02879164D01*
X02877832Y02985916D01*
X03055920Y03186249D02*
Y03178251D01*
Y03182250D01*
X03061251D01*
Y03186249D01*
Y03178251D01*
X03063917Y03186249D02*
Y03178251D01*
X03069249D01*
X03071914D02*
X03074580D01*
X03073247D01*
Y03186249D01*
X03071914Y03184916D01*
X02734418Y02758249D02*
X02729087D01*
Y02754250D01*
X02731753D01*
X02729087D01*
Y02750251D01*
X02737084Y02758249D02*
Y02751584D01*
X02738417Y02750251D01*
X02741083D01*
X02742416Y02751584D01*
Y02758249D01*
X02745081D02*
X02750413D01*
Y02756916D01*
X02745081Y02751584D01*
Y02750251D01*
X02949668Y03193749D02*
X02944337D01*
Y03189750D01*
X02947003D01*
X02944337D01*
Y03185751D01*
X02952334Y03193749D02*
Y03187084D01*
X02953667Y03185751D01*
X02956333D01*
X02957666Y03187084D01*
Y03193749D01*
X02965663D02*
X02962997Y03192416D01*
X02960332Y03189750D01*
Y03187084D01*
X02961664Y03185751D01*
X02964330D01*
X02965663Y03187084D01*
Y03188417D01*
X02964330Y03189750D01*
X02960332D01*
X02983918Y03193749D02*
X02978587D01*
Y03189750D01*
X02981253D01*
X02978587D01*
Y03185751D01*
X02986584Y03193749D02*
Y03187084D01*
X02987917Y03185751D01*
X02990583D01*
X02991916Y03187084D01*
Y03193749D01*
X02999913D02*
X02994582D01*
Y03189750D01*
X02997247Y03191083D01*
X02998580D01*
X02999913Y03189750D01*
Y03187084D01*
X02998580Y03185751D01*
X02995915D01*
X02994582Y03187084D01*
X02780418Y03193749D02*
X02775087D01*
Y03189750D01*
X02777753D01*
X02775087D01*
Y03185751D01*
X02783084Y03193749D02*
Y03187084D01*
X02784417Y03185751D01*
X02787083D01*
X02788416Y03187084D01*
Y03193749D01*
X02795080Y03185751D02*
Y03193749D01*
X02791082Y03189750D01*
X02796413D01*
X02814668Y03193749D02*
X02809337D01*
Y03189750D01*
X02812003D01*
X02809337D01*
Y03185751D01*
X02817334Y03193749D02*
Y03187084D01*
X02818667Y03185751D01*
X02821333D01*
X02822666Y03187084D01*
Y03193749D01*
X02825332Y03192416D02*
X02826664Y03193749D01*
X02829330D01*
X02830663Y03192416D01*
Y03191083D01*
X02829330Y03189750D01*
X02827997D01*
X02829330D01*
X02830663Y03188417D01*
Y03187084D01*
X02829330Y03185751D01*
X02826664D01*
X02825332Y03187084D01*
X02735918Y02631749D02*
X02730587D01*
Y02627750D01*
X02733253D01*
X02730587D01*
Y02623751D01*
X02738584Y02631749D02*
Y02625084D01*
X02739917Y02623751D01*
X02742583D01*
X02743916Y02625084D01*
Y02631749D01*
X02751913Y02623751D02*
X02746582D01*
X02751913Y02629083D01*
Y02630416D01*
X02750580Y02631749D01*
X02747914D01*
X02746582Y02630416D01*
X03123087Y03017499D02*
Y03009501D01*
X03127086D01*
X03128418Y03010834D01*
Y03016166D01*
X03127086Y03017499D01*
X03123087D01*
X03131084D02*
Y03009501D01*
X03135083D01*
X03136416Y03010834D01*
Y03016166D01*
X03135083Y03017499D01*
X03131084D01*
X03144413Y03009501D02*
X03139082D01*
X03144413Y03014833D01*
Y03016166D01*
X03143080Y03017499D01*
X03140414D01*
X03139082Y03016166D01*
X02974087Y02995749D02*
Y02987751D01*
X02978086D01*
X02979418Y02989084D01*
Y02994416D01*
X02978086Y02995749D01*
X02974087D01*
X02982084Y02987751D02*
Y02993083D01*
X02984750Y02995749D01*
X02987416Y02993083D01*
Y02987751D01*
Y02991750D01*
X02982084D01*
X02995413Y02995749D02*
X02990081D01*
Y02991750D01*
X02992747Y02993083D01*
X02994080D01*
X02995413Y02991750D01*
Y02989084D01*
X02994080Y02987751D01*
X02991414D01*
X02990081Y02989084D01*
X02792087Y02995749D02*
Y02987751D01*
X02796086D01*
X02797419Y02989084D01*
Y02994416D01*
X02796086Y02995749D01*
X02792087D01*
X02800084Y02987751D02*
Y02993083D01*
X02802750Y02995749D01*
X02805416Y02993083D01*
Y02987751D01*
Y02991750D01*
X02800084D01*
X02812080Y02987751D02*
Y02995749D01*
X02808082Y02991750D01*
X02813413D01*
X03054003Y02883751D02*
X03048671D01*
X03054003Y02889083D01*
Y02890416D01*
X03052670Y02891749D01*
X03050004D01*
X03048671Y02890416D01*
X03056668Y02891749D02*
Y02886417D01*
X03059334Y02883751D01*
X03062000Y02886417D01*
Y02891749D01*
X03064666D02*
Y02885084D01*
X03065999Y02883751D01*
X03068665D01*
X03069997Y02885084D01*
Y02891749D01*
X03072663Y02883751D02*
X03075329D01*
X03073996D01*
Y02891749D01*
X03072663Y02890416D01*
X03190253Y02598251D02*
X03184921D01*
X03190253Y02603583D01*
Y02604916D01*
X03188920Y02606249D01*
X03186254D01*
X03184921Y02604916D01*
X03192918Y02606249D02*
Y02600917D01*
X03195584Y02598251D01*
X03198250Y02600917D01*
Y02606249D01*
X03200916D02*
X03206247D01*
X03203582D01*
Y02598251D01*
X03208913D02*
X03211579D01*
X03210246D01*
Y02606249D01*
X03208913Y02604916D01*
X03165749Y02604532D02*
Y02599200D01*
X03160417Y02604532D01*
X03159084D01*
X03157751Y02603199D01*
Y02600533D01*
X03159084Y02599200D01*
X03157751Y02607197D02*
X03163083D01*
X03165749Y02609863D01*
X03163083Y02612529D01*
X03157751D01*
Y02615195D02*
X03165749D01*
Y02619193D01*
X03164416Y02620526D01*
X03159084D01*
X03157751Y02619193D01*
Y02615195D01*
X03159084Y02623192D02*
X03157751Y02624525D01*
Y02627191D01*
X03159084Y02628524D01*
X03160417D01*
X03161750Y02627191D01*
Y02625858D01*
Y02627191D01*
X03163083Y02628524D01*
X03164416D01*
X03165749Y02627191D01*
Y02624525D01*
X03164416Y02623192D01*
X03176999Y02604502D02*
Y02599170D01*
X03171667Y02604502D01*
X03170334D01*
X03169001Y02603169D01*
Y02600503D01*
X03170334Y02599170D01*
X03169001Y02607167D02*
X03174333D01*
X03176999Y02609833D01*
X03174333Y02612499D01*
X03169001D01*
Y02615165D02*
X03176999D01*
Y02619164D01*
X03175666Y02620497D01*
X03170334D01*
X03169001Y02619164D01*
Y02615165D01*
X03176999Y02623162D02*
Y02625828D01*
Y02624495D01*
X03169001D01*
X03170334Y02623162D01*
X03154249Y02604502D02*
Y02599170D01*
X03148917Y02604502D01*
X03147584D01*
X03146251Y02603169D01*
Y02600503D01*
X03147584Y02599170D01*
X03146251Y02607167D02*
X03151583D01*
X03154249Y02609833D01*
X03151583Y02612499D01*
X03146251D01*
Y02615165D02*
X03154249D01*
Y02619164D01*
X03152916Y02620497D01*
X03147584D01*
X03146251Y02619164D01*
Y02615165D01*
X03154249Y02628494D02*
Y02623162D01*
X03148917Y02628494D01*
X03147584D01*
X03146251Y02627161D01*
Y02624495D01*
X03147584Y02623162D01*
X03056753Y02622001D02*
X03051421D01*
X03056753Y02627333D01*
Y02628666D01*
X03055420Y02629999D01*
X03052754D01*
X03051421Y02628666D01*
X03064750Y02629999D02*
X03059418D01*
Y02626000D01*
X03062084D01*
X03059418D01*
Y02622001D01*
X03067416Y02629999D02*
Y02623334D01*
X03068749Y02622001D01*
X03071414D01*
X03072747Y02623334D01*
Y02629999D01*
X03075413Y02622001D02*
X03078079D01*
X03076746D01*
Y02629999D01*
X03075413Y02628666D01*
X03156253Y02948501D02*
X03150921D01*
X03156253Y02953833D01*
Y02955166D01*
X03154920Y02956499D01*
X03152254D01*
X03150921Y02955166D01*
X03158918Y02956499D02*
Y02948501D01*
X03162917D01*
X03164250Y02949834D01*
Y02955166D01*
X03162917Y02956499D01*
X03158918D01*
X03166916D02*
Y02948501D01*
X03170915D01*
X03172247Y02949834D01*
Y02955166D01*
X03170915Y02956499D01*
X03166916D01*
X03174913Y02948501D02*
X03177579D01*
X03176246D01*
Y02956499D01*
X03174913Y02955166D01*
X02856337Y02883751D02*
X02859003D01*
X02857670D01*
Y02891749D01*
X02856337Y02890416D01*
X02863002Y02891749D02*
Y02886417D01*
X02865668Y02883751D01*
X02868334Y02886417D01*
Y02891749D01*
X02870999D02*
Y02885084D01*
X02872332Y02883751D01*
X02874998D01*
X02876331Y02885084D01*
Y02891749D01*
X02878997Y02883751D02*
X02881663D01*
X02880330D01*
Y02891749D01*
X02878997Y02890416D01*
X02991087Y02598251D02*
X02993753D01*
X02992420D01*
Y02606249D01*
X02991087Y02604916D01*
X02997752Y02606249D02*
Y02600917D01*
X03000418Y02598251D01*
X03003083Y02600917D01*
Y02606249D01*
X03005750D02*
X03011081D01*
X03008415D01*
Y02598251D01*
X03013747D02*
X03016413D01*
X03015080D01*
Y02606249D01*
X03013747Y02604916D01*
X02971249Y02600250D02*
Y02602916D01*
Y02601583D01*
X02963251D01*
X02964584Y02600250D01*
X02963251Y02606914D02*
X02968583D01*
X02971249Y02609580D01*
X02968583Y02612246D01*
X02963251D01*
Y02614912D02*
X02971249D01*
Y02618911D01*
X02969916Y02620244D01*
X02964584D01*
X02963251Y02618911D01*
Y02614912D01*
X02964584Y02622909D02*
X02963251Y02624242D01*
Y02626908D01*
X02964584Y02628241D01*
X02965917D01*
X02967250Y02626908D01*
Y02625575D01*
Y02626908D01*
X02968583Y02628241D01*
X02969916D01*
X02971249Y02626908D01*
Y02624242D01*
X02969916Y02622909D01*
X02982749Y02600250D02*
Y02602916D01*
Y02601583D01*
X02974751D01*
X02976084Y02600250D01*
X02974751Y02606914D02*
X02980083D01*
X02982749Y02609580D01*
X02980083Y02612246D01*
X02974751D01*
Y02614912D02*
X02982749D01*
Y02618911D01*
X02981416Y02620244D01*
X02976084D01*
X02974751Y02618911D01*
Y02614912D01*
X02982749Y02622910D02*
Y02625575D01*
Y02624242D01*
X02974751D01*
X02976084Y02622910D01*
X02959749Y02600250D02*
Y02602916D01*
Y02601583D01*
X02951751D01*
X02953084Y02600250D01*
X02951751Y02606914D02*
X02957083D01*
X02959749Y02609580D01*
X02957083Y02612246D01*
X02951751D01*
Y02614912D02*
X02959749D01*
Y02618911D01*
X02958416Y02620244D01*
X02953084D01*
X02951751Y02618911D01*
Y02614912D01*
X02959749Y02628241D02*
Y02622909D01*
X02954417Y02628241D01*
X02953084D01*
X02951751Y02626908D01*
Y02624242D01*
X02953084Y02622909D01*
X02856837Y02622001D02*
X02859503D01*
X02858170D01*
Y02629999D01*
X02856837Y02628666D01*
X02868834Y02629999D02*
X02863502D01*
Y02626000D01*
X02866168D01*
X02863502D01*
Y02622001D01*
X02871499Y02629999D02*
Y02623334D01*
X02872832Y02622001D01*
X02875498D01*
X02876831Y02623334D01*
Y02629999D01*
X02879497Y02622001D02*
X02882162D01*
X02880830D01*
Y02629999D01*
X02879497Y02628666D01*
X02957087Y02948501D02*
X02959753D01*
X02958420D01*
Y02956499D01*
X02957087Y02955166D01*
X02963752Y02956499D02*
Y02948501D01*
X02967751D01*
X02969084Y02949834D01*
Y02955166D01*
X02967751Y02956499D01*
X02963752D01*
X02971749D02*
Y02948501D01*
X02975748D01*
X02977081Y02949834D01*
Y02955166D01*
X02975748Y02956499D01*
X02971749D01*
X02979747Y02948501D02*
X02982413D01*
X02981080D01*
Y02956499D01*
X02979747Y02955166D01*
X02985005Y02781001D02*
X02987670D01*
X02986337D01*
Y02788999D01*
X02985005Y02787666D01*
X02991669Y02788999D02*
Y02781001D01*
X02995668D01*
X02997001Y02782334D01*
Y02787666D01*
X02995668Y02788999D01*
X02991669D01*
X02999666Y02781001D02*
Y02786333D01*
X03002332Y02788999D01*
X03004998Y02786333D01*
Y02781001D01*
Y02785000D01*
X02999666D01*
X03007664Y02787666D02*
X03008997Y02788999D01*
X03011663D01*
X03012996Y02787666D01*
Y02786333D01*
X03011663Y02785000D01*
X03010330D01*
X03011663D01*
X03012996Y02783667D01*
Y02782334D01*
X03011663Y02781001D01*
X03008997D01*
X03007664Y02782334D01*
D17*
X02931500Y02635250D02*
Y02678250D01*
X02949000D01*
Y02635250D02*
Y02678250D01*
X02931500Y02635250D02*
X02949000D01*
X02929750D02*
Y02678250D01*
X02912250Y02635250D02*
X02929750D01*
X02912250D02*
Y02678250D01*
X02929750D01*
X02914750Y02627750D02*
Y02628250D01*
Y02598250D02*
Y02600750D01*
Y02598250D02*
X02924000D01*
X02946750D02*
Y02600750D01*
X02937500Y02598250D02*
X02946750D01*
Y02627750D02*
Y02630250D01*
X02937500D02*
X02946750D01*
X02916750D02*
X02924000D01*
X02914750Y02628250D02*
X02916750Y02630250D01*
X03126000Y02635250D02*
Y02678250D01*
X03143500D01*
Y02635250D02*
Y02678250D01*
X03126000Y02635250D02*
X03143500D01*
X03124250D02*
Y02678250D01*
X03106750Y02635250D02*
X03124250D01*
X03106750D02*
Y02678250D01*
X03124250D01*
X03109250Y02627750D02*
Y02628250D01*
Y02598250D02*
Y02600750D01*
Y02598250D02*
X03118500D01*
X03141250D02*
Y02600750D01*
X03132000Y02598250D02*
X03141250D01*
Y02627750D02*
Y02630250D01*
X03132000D02*
X03141250D01*
X03111250D02*
X03118500D01*
X03109250Y02628250D02*
X03111250Y02630250D01*
D18*
X02794622Y02827251D02*
D03*
D19*
X02872375Y02959250D02*
D03*
D20*
X03064000Y03167625D02*
D03*
D21*
X02754998Y02805748D02*
D03*
D22*
X02819251Y02642748D02*
D03*
D23*
X03153498Y02649875D02*
D03*
X02959000Y02649875D02*
D03*
D24*
X02940250Y02652362D02*
D03*
X02920992Y02661137D02*
D03*
X03134752Y02652375D02*
D03*
X03115506Y02661125D02*
D03*
M02*
