M48
;Layer_Color=9474304
;FILE_FORMAT=4:4
METRIC
;TYPE=PLATED
T1F00S00C0.3000
T2F00S00C0.4000
T3F00S00C0.8000
T4F00S00C1.1000
T5F00S00C1.6000
%
T01
X02745500Y02725500
X02745500Y02736000
X02759500Y02725500
X02773500
X02797750Y02747500
X02883750Y02759000
Y02770000
X02898250
Y02759000
X02914250Y02758500
X02911250Y02770000
X02914250Y02742500
X02914250Y02731000
X02912750Y02722000
X02925250Y02727500
X02931250Y02732500
X02936250Y02751250
X02942750Y02757250
X02939000Y02765000
X02947000Y02765000
X02955000Y02765000
X02952600Y02740400
X02958000Y02735000
X02963400Y02740400
Y02729600
X02952600
X02977000Y02749250
X02981000Y02759250
X03016250Y02754000
X03020250Y02746000
X03016250Y02738000
Y02722000
Y02706000
X03015250Y02668000
X03026750
X03003750
X02992250
X02980750
X02980750Y02638500
X02992250
X03003750
X03015250
X03026750
X03026750Y02623750
X03026750Y02609000
X03015250
X03003750
X02992250
X02980750
Y02623750
X02930750Y02620500
X02935750Y02614250
X02925750
X02930750Y02608000
X02912750Y02693000
X02883750
Y02722000
X03011000Y02770000
X03026000Y02763750
X03078250Y02759000
Y02770000
X03092750
Y02759000
X03108750Y02758500
X03105750Y02770000
X03108750Y02742500
X03108750Y02731000
X03107250Y02722000
X03119750Y02727500
X03125750Y02732500
X03130750Y02751250
X03137250Y02757250
X03133500Y02765000
X03141500Y02765000
X03149500Y02765000
X03147100Y02740400
X03152500Y02735000
X03157900Y02740400
Y02729600
X03147100
X03171500Y02749250
X03107250Y02693000
X03078250
Y02722000
X03125250Y02620500
X03130250Y02614250
X03120250
X03125250Y02608000
X03175250Y02609000
X03186750
X03198250
X03209750
X03221250
X03221250Y02623750
X03221250Y02638500
X03209750
X03198250
X03186750
X03175250
X03175250Y02623750
X03175250Y02668000
X03186750
X03198250
X03209750
X03221250
X03210750Y02706000
Y02722000
Y02738000
X03214750Y02746000
X03210750Y02754000
X03220500Y02763750
X03205500Y02770000
X03175500Y02759250
X03186750Y02795500
X03208750
X03220500Y02805500
X03217450Y02820300
X03220500Y02830500
Y02843000
X03196050Y02826750
X03220500Y02780500
X03219250Y02955750
X03229500
X03219250Y02971750
X03178500
X03185250Y02955750
X03192250Y02988500
Y02998500
X03188250Y03011500
X03196000Y03091250
Y03125250
X03228000Y03137250
X03168250Y03095250
X03158250Y03040250
X03148250
X03118250Y03041750
X03103250Y03055250
Y03065250
X03083250Y03050250
X03086000Y03034500
X03074500Y03032250
X03101000Y03025500
X03108250Y03020250
Y03009750
X03098750Y02987250
X03105250Y02975250
X03111750Y02980750
Y02969750
X03118250Y02964250
X03119750Y02955750
X03111250
X03102750
X03132450
X03141500Y02969750
X03153250Y02977500
X03153250Y02988500
Y02998500
X03143250Y02996000
X03138250Y02990500
X03123250Y02975250
X03170600Y02964250
X03170500Y03025500
X03154250Y03011500
X03074500Y02997750
X03058500
X03042500
X03020000
X03024748Y02955750
X03058748
X03068750Y02955750
X02990748Y02955750
X02937950Y02955750
X02925250
X02912250
X02891900Y02975000
X02872500
X02856250
X02842750Y02976000
X02832750
X02822750
X02812750
X02802750
X02821150Y02994500
X02808350Y03019000
X02788500Y03044750
X02779500Y03069750
X02787500Y03109750
X02814750Y03090750
X02850000Y03069750
X02833850Y03048500
X02859000Y03006750
X02901500Y02997750
X02917500
X02949500
X02958500Y03044750
X02949500Y03069750
X02933500
X02917500Y03031750
X02912450Y03126500
X02862750Y03100750
X02984750Y03090750
X03012000Y03109750
X03020000Y03069750
X03043250Y03065500
X03047000Y03074750
X03034250Y03040500
X03003850Y03048500
X03049875Y03138375
X03048250Y03147750
X03057250Y03158750
X03086750Y03148500
Y03132500
X03082250Y03124250
X03082250Y03115000
X03113250Y03105250
X03109000Y02847500
X03112250Y02839000
X03109500Y02829750
X03121000Y02824250
Y02807250
X03111250Y02805000
Y02812000
X03117500Y02798500
X03092750
X03083750Y02819000
X03078250Y02843750
X03099150
X03026000Y02843000
Y02830500
X03022950Y02820300
X03026000Y02805500
X03014250Y02795500
X02992250
X02979750Y02785250
X02965750Y02795500
Y02804250
X02926500Y02807250
X02916750Y02805000
Y02812000
X02915000Y02829750
X02917750Y02839000
X02914500Y02847500
X02904650Y02843750
X02883750
X02889250Y02819000
X02898250Y02798500
X02923000
X02926500Y02824250
X03001550Y02826750
X03026000Y02780500
X03160250Y02795500
Y02804250
X03174250Y02785250
X02822750Y02786750
X02832500Y02843000
X02782250Y02878750
Y02904500
X02787000Y02924250
Y02935500
X02824000
Y02924250
X02856000
Y02935500
X02859000Y02913250
X02779500Y02997750
X02763500
X02747500
X02725000Y02989350
Y02965227
Y02935500
Y02904500
X02756000
Y02873500
X02747500Y02860000
Y02850000
X02736500Y02836000
Y02824500
X02725000Y02819250
Y02842500
Y02873500
X02756000Y02935500
X02747500Y03031750
X02738500Y03044750
X02725000Y03037596
Y03013473
Y03061719
Y03085842
Y03109966
Y03134088
Y03158212
X02747500Y03069750
X02725000Y03182335
X03199250Y03181500
X03229250
T02
X02579750Y02481750
X02629750
X02679750
Y02531750
X02629750
X02579750
Y02581750
Y02631750
X02629750
X02679750
Y02581750
Y02681750
X02629750
X02579750
Y02731750
X02629750
X02679750
Y02781750
X02629750
X02579750
Y02831750
X02629750
X02679750
Y02881750
X02629750
X02579750
Y02931750
X02629750
X02679750
Y02981750
X02629750
X02579750
Y03031750
X02629750
X02679750
Y03081750
X02629750
X02579750
Y03131750
X02629750
X02679750
Y03181750
X02629750
X02579750
Y03231750
Y03281750
X02629750
X02679750
X02729750
X02779750
X02829750
X02879750
X02929750
X02979750
X03029750
X03079750
X03129750
X03179750
X03229750
T03
X02805500Y02901350
Y02926750
Y02952150
X02887050Y03098650
X02912450
Y03174850
X02887050
T04
X03218500Y03013950
Y03039350
Y03064750
Y03090150
X03209600Y03151750
X03184200
X03158800
X03133400
T05
X02619350Y02561750
X02670150
X02789350
X02840150
X02959350
X03010150
X03129350
X03180150
X02670150Y03220750
X02619350
X02789350
X02840150
X02959350
X03010150
X03129350
X03180150
M30
